<?xml version="1.0" standalone="no"?>
<!DOCTYPE svg PUBLIC "-//W3C//DTD SVG 1.1//EN" "http://www.w3.org/Graphics/SVG/1.1/DTD/svg11.dtd" >
<svg xmlns="http://www.w3.org/2000/svg" xmlns:xlink="http://www.w3.org/1999/xlink" version="1.1">
<metadata>
Created by FontForge 20170731 at Tue Nov  2 20:22:36 2021
 By Aleksey,,,
Copyright (c) 2021 Suseong district. All rights reserved.
</metadata>
<defs>
<font id="SuseongDotum-Regular" horiz-adv-x="950" >
  <font-face 
    font-family="Suseong Dotum"
    font-weight="400"
    font-stretch="normal"
    units-per-em="1000"
    panose-1="2 0 6 0 0 0 0 0 0 0"
    ascent="800"
    descent="-200"
    x-height="542"
    cap-height="771"
    bbox="-71.25 -336 1093 1005"
    underline-thickness="50"
    underline-position="-275"
    unicode-range="U+000D-FFE6"
  />
<missing-glyph horiz-adv-x="330" 
 />
    <glyph glyph-name=".notdef" horiz-adv-x="330" 
 />
    <glyph glyph-name=".null" horiz-adv-x="0" 
 />
    <glyph glyph-name=".null" horiz-adv-x="0" 
 />
    <glyph glyph-name="nonmarkingreturn" unicode="&#xd;" horiz-adv-x="300" 
 />
    <glyph glyph-name="cid1" unicode=" " horiz-adv-x="300" 
 />
    <glyph glyph-name="cid1" unicode="&#xa0;" horiz-adv-x="300" 
 />
    <glyph glyph-name="cid2" unicode="!" horiz-adv-x="455" 
d="M161 167l-26 612q0 12 11 12h163q5 0 8 -4t3 -8l-27 -612h-132zM140 49q0 13 11 13h154q10 0 10 -12v-145q0 -12 -10 -12h-154q-11 0 -11 13v143z" />
    <glyph glyph-name="cid3" unicode="&#x22;" horiz-adv-x="456" 
d="M199 716q0 -27 -2 -58t-11 -58t-26.5 -44.5t-48.5 -17.5h-51v272q0 13 11 13h118q10 0 10 -12v-95zM396 716q0 -27 -2 -58t-11 -58t-26.5 -44.5t-48.5 -17.5h-51v272q0 13 11 13h118q10 0 10 -12v-95z" />
    <glyph glyph-name="cid4" unicode="#" horiz-adv-x="848" 
d="M468 139h-151l-30 -214h-142l30 214h-115v132h134l24 168h-123v133h142l30 214h143l-31 -214h151l30 214h142l-30 -214h116v-133h-135l-24 -168h123v-132h-141l-30 -214h-143zM336 271h151l24 168h-151z" />
    <glyph glyph-name="cid5" unicode="$" horiz-adv-x="677" 
d="M256 -55q-70 8 -127.5 32.5t-98.5 56.5q-14 11 -4 24l60 97q5 6 11 5.5t11 -4.5q21 -15 46.5 -28t53.5 -23t57.5 -15.5t57.5 -5.5h16q21 0 42 5t37 16.5t26 30t10 44.5q0 27 -6 44t-17 28t-26 17.5t-33 12.5l-134 42q-91 31 -137.5 86.5t-46.5 137.5q0 95 52.5 148.5
t149.5 67.5v117q0 8 4 10t7 2h115q5 0 8.5 -3t3.5 -9v-114q26 -2 53 -8t52.5 -13.5t47.5 -16t38 -15.5q12 -5 8 -17l-45 -105q-5 -11 -18 -5q-41 17 -83 30.5t-82 13.5h-32q-20 0 -39 -4.5t-33 -14.5t-22.5 -24.5t-8.5 -33.5q0 -42 18 -62.5t56 -32.5l133 -40q45 -14 80 -36
t60 -52.5t38 -70t13 -90.5q0 -43 -15.5 -82t-45 -69.5t-73 -50.5t-100.5 -25v-120q0 -6 -3.5 -9t-8.5 -3h-115q-3 0 -7 2t-4 10v122z" />
    <glyph glyph-name="cid6" unicode="%" horiz-adv-x="1144" 
d="M392 -89q-3 -5 -6.5 -8t-11.5 -3h-126q-9 0 -11 6t0 10l501 876q3 5 6.5 8t11.5 3h126q9 0 11 -6t0 -10zM39 577q0 46 18 85.5t49 68t73 45t90 16.5t90 -16.5t73 -45t49 -68t18 -85.5t-18 -85.5t-49 -68.5t-73 -45.5t-90 -16.5t-90 16.5t-73 45.5t-49 68.5t-18 85.5z
M368 577q0 43 -28.5 69.5t-70.5 26.5t-70.5 -26.5t-28.5 -69.5t28.5 -69.5t70.5 -26.5t70.5 26.5t28.5 69.5zM633 112q0 46 18 85.5t49 68t73 45t90 16.5t90 -16.5t73 -45t49 -68t18 -85.5t-18 -85.5t-49 -68.5t-73 -45.5t-90 -16.5t-90 16.5t-73 45.5t-49 68.5t-18 85.5z
M961 112q0 43 -28 69.5t-70 26.5t-70.5 -26.5t-28.5 -69.5t28.5 -69.5t70.5 -26.5t70 26.5t28 69.5z" />
    <glyph glyph-name="cid7" unicode="&#x26;" horiz-adv-x="890" 
d="M872 -59q2 -4 0 -10t-11 -6h-159q-8 0 -11.5 3t-6.5 8l-85 87q-21 -25 -46.5 -46t-57 -36.5t-69.5 -24t-85 -8.5q-57 0 -109.5 16t-92 47.5t-63.5 78t-24 108.5q0 48 16 86.5t42 68.5t60 52t70 38q-43 44 -68 90.5t-25 102.5q0 55 21 95.5t55.5 66t78.5 38t89 12.5
q46 0 89 -13t76 -39t53 -65t20 -92q0 -42 -14 -76.5t-38 -63t-56 -50.5t-68 -39l141 -147l93 146q3 5 6.5 8t11.5 3h133q9 0 11 -6t0 -10l-161 -234zM393 690q-42 0 -71.5 -27t-29.5 -69q0 -37 20 -71t57 -67q25 10 47.5 24t39.5 31t27 38t10 45q0 19 -7.5 36.5t-20.5 31
t-31.5 21t-40.5 7.5zM323 309q-24 -9 -46 -21t-38.5 -29t-26 -40.5t-9.5 -54.5q0 -32 13 -57t33.5 -42.5t46 -26.5t50.5 -9q53 0 91 23t69 66z" />
    <glyph glyph-name="cid8" unicode="'" horiz-adv-x="265" 
d="M205 716q0 -27 -2.5 -58t-12 -58t-27.5 -44.5t-49 -17.5h-54v272q0 13 11 13h124q10 0 10 -12v-95z" />
    <glyph glyph-name="cid9" unicode="(" horiz-adv-x="432" 
d="M80 312q0 147 45.5 282t126.5 250q7 10 14 3l101 -62q6 -6 4 -11q-1 -3 -2 -5q-69 -100 -107 -217t-38 -240t38 -240t107 -217q1 -2 2 -5q2 -5 -4 -11l-101 -62q-7 -7 -14 3q-81 115 -126.5 250t-45.5 282z" />
    <glyph glyph-name="cid10" unicode=")" horiz-adv-x="432" 
d="M352 312q0 -147 -45.5 -282t-126.5 -250q-7 -10 -14 -3l-101 62q-6 5 -4 11q1 3 2 5q69 100 107 217t38 240t-38 240t-107 217q-1 2 -2 5q-2 6 4 11l101 62q7 7 14 -3q81 -115 126.5 -250t45.5 -282z" />
    <glyph glyph-name="cid11" unicode="*" horiz-adv-x="600" 
d="M204 319q-3 -5 -6 -5t-9 2l-87 60q-7 7 -3 15l101 131l-152 52q-10 2 -7 13l31 101q4 8 13 7l152 -54v160q0 10 10 10h107q10 0 10 -10v-158l151 48q9 1 13 -7l31 -101q3 -11 -7 -13l-150 -49l97 -131q4 -8 -3 -15l-87 -60q-6 -2 -9 -2t-6 5l-96 130z" />
    <glyph glyph-name="cid12" unicode="+" horiz-adv-x="815" 
d="M100 286q-10 0 -10 10v116q0 10 10 10h236v240q0 10 10 10h124q10 0 10 -10v-240h235q10 0 10 -10v-116q0 -10 -10 -10h-235v-252q0 -10 -10 -10h-124q-10 0 -10 10v252h-236z" />
    <glyph glyph-name="cid13" unicode="," horiz-adv-x="324" 
d="M55 96q0 8 2 11t10 3h181q10 0 10 -13v-145q0 -75 -37.5 -139.5t-97.5 -109.5l-63 59q36 32 55.5 78.5t21.5 91.5h-70q-8 0 -10 3t-2 11v150z" />
    <glyph glyph-name="cid14" unicode="-" horiz-adv-x="681" 
d="M100 284q-10 0 -10 10v120q0 10 10 10h481q10 0 10 -10v-120q0 -10 -10 -10h-481z" />
    <glyph glyph-name="cid15" unicode="." horiz-adv-x="356" 
d="M73 106q0 8 2.5 11.5t10.5 3.5h187q11 0 11 -14v-176q0 -6 -3 -10.5t-8 -4.5h-187q-8 0 -10.5 4t-2.5 12v174z" />
    <glyph glyph-name="cid16" unicode="/" horiz-adv-x="548" 
d="M165 -113q-3 -5 -6.5 -8t-11.5 -3h-114q-9 0 -11 6t0 10l361 925q3 5 6.5 8t11.5 3h114q9 0 11 -6t0 -10z" />
    <glyph glyph-name="cid17" unicode="0" horiz-adv-x="692" 
d="M652 355q0 -205 -80.5 -314.5t-224.5 -109.5q-72 0 -129 28t-96.5 82t-60.5 133t-21 181t21 181t60.5 133t96.5 82t129 28q144 0 224.5 -109.5t80.5 -314.5zM483 355q0 43 -5 93t-19.5 92.5t-41 70.5t-70.5 28t-71 -28t-42 -70.5t-20 -92.5t-5 -93q0 -44 5 -93.5t20 -92
t42 -70.5t71 -28t70.5 28t41 70.5t19.5 92t5 93.5z" />
    <glyph glyph-name="cid18" unicode="1" horiz-adv-x="552" 
d="M418 779q8 0 11 -5t3 -10v-821q0 -6 -3.5 -9t-8.5 -3h-147q-3 0 -7 2t-4 10v669l-178 -90q-14 -6 -14 9v120q0 14 9 18l220 110h119z" />
    <glyph glyph-name="cid19" unicode="2" horiz-adv-x="615" 
d="M111 575q-12 -8 -19 2l-60 98q-6 11 5 18q24 17 52 32.5t59 27.5t64 19t66 7q69 0 121.5 -18t88 -50t53.5 -76t18 -96q0 -50 -12 -92.5t-35.5 -83t-57.5 -80.5t-77 -85l-128 -120h305q5 0 8 -2.5t3 -10.5v-113q0 -14 -10 -14h-513v113q0 10 2 15t9 13l189 192
q41 41 69.5 73t46 60.5t26 57t8.5 63.5q0 18 -4.5 38t-18 36.5t-36.5 27.5t-60 12q-18 0 -38.5 -5.5t-41.5 -14.5t-42 -20.5t-40 -23.5z" />
    <glyph glyph-name="cid20" unicode="3" horiz-adv-x="671" 
d="M154 174q10 -19 24 -37.5t32.5 -33t43 -23.5t54.5 -9q62 0 98 33.5t37 89.5q1 49 -22 77.5t-58 43t-76 18t-77 2.5v87l166 210h-306q-3 0 -6.5 2t-3.5 10v117q0 3 2.5 6.5t8.5 3.5h495q6 0 8.5 -3.5t2.5 -6.5v-95q0 -10 -2.5 -15.5t-8.5 -13.5l-156 -196q91 -21 146 -83
t55 -166q0 -57 -22 -105t-62 -82.5t-94.5 -54t-118.5 -19.5q-94 0 -166.5 42.5t-114.5 125.5q-5 11 4 17l100 65q10 6 17 -7z" />
    <glyph glyph-name="cid21" unicode="4" horiz-adv-x="668" 
d="M403 -69q-10 0 -10 13v143h-357q-11 0 -11 14v77q0 14 5 23l284 567q2 5 6 8t12 3h138q9 0 11 -6t0 -10l-263 -539h175v245q0 13 10 13h140q5 0 8 -3.5t3 -8.5v-246h78q5 0 8 -2.5t3 -10.5v-110q0 -14 -10 -14h-79v-143q0 -13 -11 -13h-140z" />
    <glyph glyph-name="cid22" unicode="5" horiz-adv-x="693" 
d="M184 170q19 -39 55.5 -69t95.5 -30q63 0 97 36t34 94q0 36 -12.5 60.5t-32.5 40.5t-44.5 23.5t-48.5 8.5q-36 2 -62 -2.5t-57 -15.5h-115l33 440q2 15 14 15h436q6 0 8.5 -3.5t2.5 -6.5v-118q0 -8 -3.5 -10t-6.5 -2h-296l-14 -170q19 4 39 5t43 1q58 0 109.5 -17t90 -51
t61 -84t22.5 -116q0 -59 -21.5 -108t-60 -84.5t-92 -55.5t-118.5 -20q-93 0 -166 41.5t-112 122.5q-5 11 4 17l100 65q10 6 17 -7z" />
    <glyph glyph-name="cid23" unicode="6" horiz-adv-x="696" 
d="M333 479l1 -1q16 2 31 2t37 -1q50 -1 97.5 -20.5t84.5 -54t59.5 -83t22.5 -106.5q0 -66 -23.5 -119.5t-65 -92t-97.5 -59t-121 -20.5q-66 0 -123 22t-98 60t-64.5 90.5t-23.5 112.5q0 36 5.5 66.5t16.5 60t27 58t37 60.5l200 306q3 5 6.5 8t11.5 3h155q9 0 11 -6t0 -10z
M215 206q0 -30 10 -56t28.5 -45.5t45 -30.5t59.5 -11q65 0 104.5 38.5t39.5 106.5q0 65 -40 104t-102 39q-64 0 -104.5 -39.5t-40.5 -105.5z" />
    <glyph glyph-name="cid24" unicode="7" horiz-adv-x="634" 
d="M284 -58q-2 -5 -6 -8t-12 -3h-148q-9 0 -11 6t0 10l302 684h-369q-3 0 -6.5 2t-3.5 10v118q0 3 2.5 6.5t8.5 3.5h542q6 0 8.5 -3.5t2.5 -6.5v-98q0 -10 -2 -18t-6 -17z" />
    <glyph glyph-name="cid25" unicode="8" horiz-adv-x="676" 
d="M338 -72q-65 0 -120.5 16.5t-96 49t-63 79.5t-22.5 107q0 38 10.5 69t28.5 55t40.5 42t46.5 31v2q-22 14 -40 30t-31 36.5t-20 46.5t-7 60q0 51 20 93.5t56.5 73t87 47t110.5 16.5t110.5 -16.5t87 -47t56.5 -73t20 -93.5q0 -67 -27 -106t-71 -67v-2q24 -13 46.5 -31
t40.5 -42t28.5 -55t10.5 -69q0 -60 -22.5 -107t-63 -79.5t-96 -49t-120.5 -16.5zM338 440q48 0 77.5 30.5t29.5 78.5t-31 77.5t-76 29.5t-76 -29.5t-31 -77.5t29.5 -78.5t77.5 -30.5zM338 56q27 0 51 9t42 25.5t28.5 39.5t10.5 51q0 31 -10.5 55.5t-28.5 42t-42 26.5t-51 9
t-51 -9t-42 -26.5t-28.5 -42t-10.5 -55.5q0 -28 10.5 -51t28.5 -39.5t42 -25.5t51 -9z" />
    <glyph glyph-name="cid26" unicode="9" horiz-adv-x="696" 
d="M363 223l-1 1q-16 -2 -31 -2t-37 1q-50 1 -97.5 20.5t-84.5 54t-59.5 82.5t-22.5 107q0 66 23.5 119.5t64.5 92t97.5 59t121.5 20.5q66 0 123 -22t98 -60t64.5 -90.5t23.5 -112.5q0 -36 -5.5 -66.5t-16.5 -60t-27 -58.5t-37 -60l-200 -306q-3 -5 -6.5 -8t-11.5 -3h-155
q-9 0 -11 6t0 10zM481 496q0 30 -10 56t-28.5 45.5t-45 30.5t-59.5 11q-65 0 -104.5 -38.5t-39.5 -106.5q0 -65 40 -104t102 -39q64 0 104.5 39.5t40.5 105.5z" />
    <glyph glyph-name="cid27" unicode=":" horiz-adv-x="357" 
d="M73 662q0 8 2.5 11.5t10.5 3.5h187q11 0 11 -14v-176q0 -6 -3 -10.5t-8 -4.5h-187q-8 0 -10.5 4t-2.5 12v174zM73 192q0 8 2.5 11.5t10.5 3.5h187q11 0 11 -14v-176q0 -6 -3 -10.5t-8 -4.5h-187q-8 0 -10.5 4t-2.5 12v174z" />
    <glyph glyph-name="cid28" unicode=";" horiz-adv-x="357" 
d="M73 662q0 8 2.5 11.5t10.5 3.5h187q11 0 11 -14v-176q0 -6 -3 -10.5t-8 -4.5h-187q-8 0 -10.5 4t-2.5 12v174zM76 179q0 8 2 11t10 3h181q10 0 10 -13v-145q0 -75 -37.5 -139.5t-97.5 -109.5l-63 59q36 32 55.5 78.5t21.5 91.5h-70q-8 0 -10 3t-2 11v150z" />
    <glyph glyph-name="cid29" unicode="&#x3c;" horiz-adv-x="796" 
d="M102 294q-12 5 -12 15v66q0 10 10 15l592 270q14 6 14 -9v-120q0 -7 -2 -11.5t-10 -7.5l-379 -170l379 -170q8 -3 10 -7.5t2 -11.5v-120q0 -15 -14 -9z" />
    <glyph glyph-name="cid30" unicode="=" horiz-adv-x="681" 
d="M100 387q-10 0 -10 10v116q0 10 10 10h481q10 0 10 -10v-116q0 -10 -10 -10h-481zM100 137q-10 0 -10 10v116q0 10 10 10h481q10 0 10 -10v-116q0 -10 -10 -10h-481z" />
    <glyph glyph-name="cid31" unicode="&#x3e;" horiz-adv-x="796" 
d="M104 24q-14 -6 -14 9v120q0 7 2 11.5t10 7.5l379 170l-379 170q-8 3 -10 7.5t-2 11.5v120q0 15 14 9l592 -270q10 -5 10 -15v-66q0 -10 -12 -15z" />
    <glyph glyph-name="cid32" unicode="?" horiz-adv-x="647" 
d="M252 142v83q0 29 5 53.5t17.5 48t34 49t54.5 56.5q41 39 60.5 67.5t19.5 65.5q0 48 -28.5 77.5t-82.5 29.5q-50 0 -81 -30t-37 -74q-1 -7 -4.5 -13t-12.5 -5l-128 11q-15 2 -12 17q9 54 34.5 97t63 72.5t85.5 45t102 15.5q52 0 100 -15t84 -44.5t57.5 -73.5t21.5 -102
q0 -39 -8.5 -68t-24 -53.5t-38.5 -46.5t-51 -47q-24 -21 -39.5 -37t-24.5 -31.5t-12.5 -34t-3.5 -44.5v-69h-151zM243 39q0 13 11 13h154q10 0 10 -12v-145q0 -12 -10 -12h-154q-11 0 -11 13v143z" />
    <glyph glyph-name="cid33" unicode="@" horiz-adv-x="1116" 
d="M935 -46q-78 -60 -169.5 -86.5t-194.5 -26.5q-116 0 -211 36.5t-163 102.5t-105 158t-37 203q0 109 39.5 201.5t109 159.5t164 105t203.5 38q93 0 179.5 -27t152.5 -81t106 -135.5t40 -190.5q0 -81 -22.5 -143t-59.5 -104t-85.5 -63t-100.5 -21q-53 0 -86 26.5t-33 65.5
h-6q-10 -17 -25.5 -33t-36.5 -29.5t-47 -21.5t-57 -8q-45 0 -80.5 16t-60 45.5t-38 70t-13.5 89.5q0 57 19 111.5t54.5 97.5t84.5 69.5t109 26.5q51 0 86 -21.5t45 -52.5h1l11 55h120l-53 -257q-4 -17 -7.5 -41t-3.5 -43q0 -24 9 -39.5t35 -15.5q25 0 47 15t38 42t25 65.5
t9 86.5q0 81 -27 143.5t-75 105t-114 65t-143 22.5q-83 0 -153 -30.5t-121 -84t-79.5 -126t-28.5 -155.5q0 -89 29.5 -161t82 -122.5t125.5 -78t160 -27.5q90 0 159.5 24t128.5 69zM568 495q-32 0 -57 -19t-42 -48t-26 -64t-9 -66q0 -17 4 -35.5t14 -34t27 -26t43 -10.5
q37 0 63 18.5t42 46.5t23 60t7 59q0 21 -4 42.5t-14 38.5t-27.5 27.5t-43.5 10.5z" />
    <glyph glyph-name="cid34" unicode="A" horiz-adv-x="749" 
d="M743 -46q2 -4 0 -10t-11 -6h-133q-8 0 -12 3t-6 8l-57 172h-299l-57 -172q-2 -5 -6 -8t-12 -3h-133q-9 0 -11 6t0 10l286 806q3 11 14 11h138q11 0 14 -11zM270 257h209l-104 321z" />
    <glyph glyph-name="cid35" unicode="B" horiz-adv-x="700" 
d="M428 771q42 0 81 -11.5t69 -37t48 -66t18 -99.5q0 -73 -31 -118t-83 -65v-2q67 -11 103.5 -62.5t36.5 -137.5q0 -69 -20 -114.5t-53.5 -72t-77.5 -37t-91 -10.5h-337q-3 0 -7 2t-4 10v806q0 6 3.5 10.5t11.5 4.5h333zM250 428h146q50 0 68.5 27t18.5 80q0 55 -19 78
t-72 23h-142v-208zM250 73h140q24 0 44.5 4t36 16t24.5 34t9 58q0 31 -4.5 52.5t-16 35t-31.5 19.5t-51 6h-151v-225z" />
    <glyph glyph-name="cid36" unicode="C" horiz-adv-x="663" 
d="M400 73q20 0 44 5t48.5 12.5t48.5 17t45 19.5q5 2 10 1.5t7 -5.5l38 -105q2 -7 1 -9.5t-8 -7.5q-17 -13 -43 -25.5t-56 -22.5t-62 -16t-61 -6h-67q-62 0 -114 15.5t-90 49t-59.5 86t-21.5 125.5v310q0 59 19.5 107t56.5 82.5t89 53.5t118 19h69q28 0 58 -4.5t58.5 -12.5
t53.5 -18.5t42 -22.5q7 -5 8 -7.5t-1 -9.5l-38 -107q-2 -3 -7 -4.5t-10 0.5q-42 18 -90.5 31t-85.5 13h-28q-29 0 -54.5 -8.5t-44.5 -27t-30 -47t-11 -68.5v-268q0 -40 11.5 -67.5t30.5 -45t44.5 -25t52.5 -7.5h29z" />
    <glyph glyph-name="cid37" unicode="D" horiz-adv-x="767" 
d="M80 756q0 6 3.5 10.5t11.5 4.5h282q95 0 158.5 -17.5t101.5 -64t54 -126.5t16 -206q0 -121 -15 -201.5t-53.5 -129t-103 -68.5t-163.5 -20h-281q-3 0 -7 2t-4 10v806zM250 631v-553h127q51 0 82 6t48 34t23 84.5t6 157.5q0 87 -6 140.5t-23 82.5t-48 38.5t-82 9.5h-127z
" />
    <glyph glyph-name="cid38" unicode="E" horiz-adv-x="641" 
d="M250 294v-216h340q6 0 8.5 -3.5t2.5 -6.5v-118q0 -8 -3.5 -10t-6.5 -2h-500q-3 0 -7 2t-4 10v806q0 6 3.5 10.5t11.5 4.5h495q6 0 8.5 -3.5t2.5 -6.5v-118q0 -8 -3.5 -10t-6.5 -2h-341v-198h311q6 0 8.5 -3.5t2.5 -6.5v-117q0 -8 -3.5 -10t-6.5 -2h-312z" />
    <glyph glyph-name="cid39" unicode="F" horiz-adv-x="635" 
d="M91 -62q-3 0 -7 2t-4 10v806q0 5 3 10t11 5h505q6 0 8.5 -3.5t2.5 -6.5v-118q0 -8 -3.5 -10t-6.5 -2h-350v-204h326q6 0 8.5 -4t2.5 -7v-117q0 -3 -2 -7t-9 -4h-326v-338q0 -6 -3.5 -9t-8.5 -3h-147z" />
    <glyph glyph-name="cid40" unicode="G" horiz-adv-x="728" 
d="M230 218q0 -40 12 -68t31.5 -45.5t45 -25.5t52.5 -8h17q35 0 70 12t54 32v183h-115q-5 0 -8.5 2.5t-3.5 8.5v108q0 3 2 6.5t9 3.5h270q7 0 9.5 -3.5t2.5 -7.5v-370q-33 -31 -70.5 -52.5t-75 -35.5t-72 -20.5t-60.5 -6.5h-55q-62 0 -114 16t-90 50t-59.5 86t-21.5 124v310
q0 58 19.5 106t56.5 82.5t89 54t118 19.5h79q28 0 61 -4.5t65 -11.5t60 -16t46 -18q6 -5 7 -7t0 -10l-38 -105q-5 -7 -17 -4q-21 8 -47 14.5t-53 11t-52.5 7t-43.5 2.5h-38q-29 0 -54.5 -9t-45 -27.5t-31 -47t-11.5 -68.5v-268z" />
    <glyph glyph-name="cid41" unicode="H" horiz-adv-x="769" 
d="M689 -50q0 -6 -3.5 -9t-8.5 -3h-147q-3 0 -7 2t-4 10v346h-269v-346q0 -6 -3.5 -9t-8.5 -3h-147q-3 0 -7 2t-4 10v809q0 8 4 10t7 2h147q5 0 8.5 -3t3.5 -9v-323h269v323q0 8 4 10t7 2h147q5 0 8.5 -3t3.5 -9v-809z" />
    <glyph glyph-name="cid42" unicode="I" horiz-adv-x="351" 
d="M261 -50q0 -6 -3.5 -9t-8.5 -3h-148q-3 0 -7 2t-4 10v809q0 8 4 10t7 2h148q5 0 8.5 -3t3.5 -9v-809z" />
    <glyph glyph-name="cid43" unicode="J" horiz-adv-x="571" 
d="M321 759q0 8 4 10t7 2h147q5 0 8.5 -3t3.5 -9v-527q0 -48 -10 -101t-38.5 -97.5t-78.5 -73.5t-129 -29q-50 0 -87.5 11.5t-65.5 32.5t-47 50.5t-32 65.5q-3 9 4 12l119 61q3 2 6.5 1.5t5.5 -5.5q17 -45 34.5 -66t51.5 -21q51 0 74 36t23 116v534z" />
    <glyph glyph-name="cid44" unicode="K" horiz-adv-x="707" 
d="M436 424l267 -470q2 -4 0 -10t-11 -6h-149q-8 0 -12 3t-6 8l-194 351l-81 -105v-245q0 -6 -3.5 -9t-8.5 -3h-147q-3 0 -7 2t-4 10v809q0 8 4 10t7 2h147q5 0 8.5 -3t3.5 -9v-350l262 351q3 5 6.5 8t11.5 3h146q9 0 12 -5t-1 -11z" />
    <glyph glyph-name="cid45" unicode="L" horiz-adv-x="578" 
d="M91 -62q-3 0 -7 2t-4 10v809q0 8 4 10t7 2h148q5 0 8.5 -3t3.5 -9v-681h306q6 0 8.5 -3.5t2.5 -6.5v-118q0 -8 -3.5 -10t-6.5 -2h-467z" />
    <glyph glyph-name="cid46" unicode="M" horiz-adv-x="949" 
d="M538 65h-127l-180 461l10 -66v-510q0 -6 -3.5 -9t-8.5 -3h-138q-3 0 -7 2t-4 10v806q0 6 3.5 10.5t11.5 4.5h168q14 0 20 -15l191 -464l192 464q6 15 20 15h168q8 0 11.5 -4.5t3.5 -10.5v-806q0 -8 -4 -10t-7 -2h-138q-5 0 -8.5 3t-3.5 9v510l10 66z" />
    <glyph glyph-name="cid47" unicode="N" horiz-adv-x="806" 
d="M238 505l5 -72v-483q0 -6 -3.5 -9t-8.5 -3h-140q-3 0 -7 2t-4 10v806q0 6 3.5 10.5t11.5 4.5h144q13 0 19 -11l311 -553l-6 68v484q0 8 4 10t7 2h140q5 0 8.5 -3t3.5 -9v-806q0 -6 -3.5 -10.5t-11.5 -4.5h-143q-14 0 -19 11z" />
    <glyph glyph-name="cid48" unicode="O" horiz-adv-x="782" 
d="M375 -69q-67 0 -124.5 19.5t-100 60t-66.5 102t-24 144.5v220q0 69 22.5 125t63.5 95t98.5 60.5t128.5 21.5h36q71 0 128.5 -23t98.5 -64t63.5 -98.5t22.5 -126.5v-210q0 -83 -24 -144.5t-66.5 -102t-100 -60t-124.5 -19.5h-32zM401 72q27 0 54 9.5t48.5 30t34.5 51.5
t13 75v228q0 43 -13 75.5t-34 54t-48 32t-56 10.5h-18q-29 0 -56 -10.5t-48 -32t-34 -54t-13 -75.5v-228q0 -44 13 -75t34.5 -51.5t48.5 -30t54 -9.5h20z" />
    <glyph glyph-name="cid49" unicode="P" horiz-adv-x="683" 
d="M250 230v-280q0 -6 -3.5 -9t-8.5 -3h-147q-3 0 -7 2t-4 10v806q0 6 3.5 10.5t11.5 4.5h274q78 0 132 -15t87.5 -47.5t49 -83.5t15.5 -123q0 -76 -16 -128t-51 -84t-89.5 -46t-131.5 -14h-115zM357 367q33 0 56.5 5.5t39.5 19.5t23.5 39.5t7.5 64.5t-5.5 65.5t-20 42.5
t-38.5 23t-60 7h-110v-267h107z" />
    <glyph glyph-name="cid50" unicode="Q" horiz-adv-x="782" 
d="M560 -30q-35 -19 -73.5 -29t-79.5 -10h-32q-67 0 -124.5 19.5t-100 60t-66.5 102t-24 144.5v220q0 69 22.5 125t63.5 95t98.5 60.5t128.5 21.5h36q71 0 128.5 -23t98.5 -64t63.5 -98.5t22.5 -126.5v-210q0 -63 -18 -115t-49 -92l88 -103q5 -5 3 -10.5t-11 -5.5h-129
q-8 0 -12 2t-8 7zM401 72q35 0 64 10l-137 161q-5 6 -3 11t11 5h130q8 0 12 -3t8 -8l59 -70q3 13 5 28t2 32v228q0 43 -13 75.5t-34 54t-48.5 32t-56.5 10.5h-18q-29 0 -56.5 -10.5t-48.5 -32t-34 -54t-13 -75.5v-228q0 -44 13.5 -75t35 -51.5t48.5 -30t54 -9.5h20z" />
    <glyph glyph-name="cid51" unicode="R" horiz-adv-x="714" 
d="M348 237h-98v-287q0 -6 -3.5 -9t-8.5 -3h-147q-3 0 -7 2t-4 10v806q0 6 3.5 10.5t11.5 4.5h286q76 0 128.5 -14.5t85.5 -46t48 -82t15 -123.5q0 -111 -34 -170t-107 -81l156 -300q2 -4 0 -10t-11 -6h-153q-8 0 -12 3t-6 8zM357 373q33 0 58 5t41.5 18.5t24.5 38.5t8 64
t-5.5 65t-20 41.5t-38.5 22t-60 6.5h-115v-261h107z" />
    <glyph glyph-name="cid52" unicode="S" horiz-adv-x="651" 
d="M79 145q5 6 11 5.5t11 -4.5q21 -15 46.5 -28t53.5 -23t57.5 -15.5t57.5 -5.5h16q21 0 42 6t37 18.5t26 31.5t10 45q0 27 -6 45t-17 30t-26 19t-33 13l-134 42q-91 31 -137.5 89t-46.5 140q0 111 71 168.5t198 57.5h42q28 0 59 -5.5t61 -13.5t56 -17.5t44 -18.5
q12 -5 8 -17l-45 -105q-5 -11 -18 -5q-41 17 -83 30.5t-82 13.5h-32q-20 0 -39 -5.5t-33 -16t-22.5 -26t-8.5 -34.5q0 -42 18 -65t56 -35l133 -40q90 -29 140.5 -90t50.5 -164q0 -47 -18 -89t-52.5 -74.5t-86 -51.5t-117.5 -19h-37q-89 0 -163 27t-124 66q-14 11 -4 24z" />
    <glyph glyph-name="cid53" unicode="T" horiz-adv-x="620" 
d="M400 -50q0 -6 -3.5 -9t-8.5 -3h-147q-3 0 -7 2t-4 10v681h-210q-3 0 -6.5 2t-3.5 10v118q0 3 2.5 6.5t8.5 3.5h578q6 0 8.5 -3.5t2.5 -6.5v-118q0 -8 -3.5 -10t-6.5 -2h-200v-681z" />
    <glyph glyph-name="cid54" unicode="U" horiz-adv-x="759" 
d="M519 759q0 8 4 10t7 2h147q5 0 8.5 -3t3.5 -9v-539q0 -72 -17 -126t-53.5 -90t-95.5 -54.5t-143 -18.5q-85 0 -144 18.5t-96 54.5t-53.5 90t-16.5 126v539q0 8 4 10t7 2h147q5 0 8.5 -3t3.5 -9v-543q0 -80 34 -112.5t106 -32.5t105.5 32.5t33.5 112.5v543z" />
    <glyph glyph-name="cid55" unicode="V" horiz-adv-x="700" 
d="M526 760q2 5 6 8t12 3h139q9 0 11 -6t0 -10l-252 -804q-3 -13 -15 -13h-154q-12 0 -15 13l-252 804q-2 4 0 10t11 6h139q8 0 12 -3t6 -8l179 -614z" />
    <glyph glyph-name="cid56" unicode="W" horiz-adv-x="1038" 
d="M566 771q13 0 16 -14l150 -636l138 639q2 5 6 8t12 3h133q9 0 11 -6t0 -10l-190 -807q-3 -10 -12 -10h-171q-10 0 -13 9l-127 509l-127 -509q-3 -9 -13 -9h-171q-9 0 -12 10l-190 807q-2 4 0 10t11 6h133q8 0 12 -3t6 -8l138 -639l150 636q3 14 16 14h94z" />
    <glyph glyph-name="cid57" unicode="X" horiz-adv-x="664" 
d="M186 -51q-3 -5 -6.5 -8t-11.5 -3h-150q-9 0 -11 6t0 10l238 414l-229 387q-2 4 0 10t11 6h144q8 0 12 -3t6 -8l143 -261l143 261q2 5 6 8t12 3h144q9 0 11 -6t0 -10l-229 -387l238 -414q2 -4 0 -10t-11 -6h-150q-8 0 -11.5 3t-6.5 8l-146 269z" />
    <glyph glyph-name="cid58" unicode="Y" horiz-adv-x="710" 
d="M531 760q2 5 6 8t12 3h144q9 0 11 -6t0 -10l-264 -472v-333q0 -6 -3.5 -9t-8.5 -3h-147q-3 0 -7 2t-4 10v333l-264 472q-2 4 0 10t11 6h144q8 0 12 -3t6 -8l176 -331z" />
    <glyph glyph-name="cid59" unicode="Z" horiz-adv-x="605" 
d="M376 631h-326q-3 0 -6.5 2t-3.5 10v118q0 3 2.5 6.5t8.5 3.5h511q13 0 13 -13v-94q0 -11 -7 -23l-344 -563h339q3 0 6.5 -2t3.5 -10v-118q0 -3 -2.5 -6.5t-8.5 -3.5h-520q-12 0 -12 12v94q0 11 6 22z" />
    <glyph glyph-name="cid60" unicode="[" horiz-adv-x="420" 
d="M350 -110q3 0 6.5 -2t3.5 -10v-97q0 -3 -2.5 -6.5t-8.5 -3.5h-245q-8 0 -11 5t-3 10v1051q0 5 3 10t11 5h245q6 0 8.5 -3.5t2.5 -6.5v-97q0 -8 -3.5 -10t-6.5 -2h-111v-843h111z" />
    <glyph glyph-name="cid61" unicode="\" horiz-adv-x="1039" 
d="M66 341q-10 0 -10 10v120q0 10 10 10h74l-52 274q-2 4 0 10t11 6h118q8 0 12 -3t6 -8l49 -279h126l48 276q3 14 16 14h94q13 0 16 -14l47 -276h126l50 279q2 5 6 8t12 3h118q9 0 11 -6t0 -10l-52 -274h74q10 0 10 -10v-120q0 -10 -10 -10h-101l-74 -393q-3 -10 -12 -10
h-168q-10 0 -13 9l-68 394h-39l-67 -394q-3 -9 -13 -9h-168q-9 0 -12 10l-75 393h-100zM348 121l38 220h-77zM694 121l39 220h-77z" />
    <glyph glyph-name="cid62" unicode="]" horiz-adv-x="420" 
d="M181 -110v843h-111q-3 0 -6.5 2t-3.5 10v97q0 3 2.5 6.5t8.5 3.5h245q8 0 11 -5t3 -10v-1051q0 -5 -3 -10t-11 -5h-245q-6 0 -8.5 3.5t-2.5 6.5v97q0 8 3.5 10t6.5 2h111z" />
    <glyph glyph-name="cid63" unicode="^" horiz-adv-x="830" 
d="M727 357q8 -15 -6 -15h-145q-13 0 -18 10l-144 259l-142 -259q-5 -10 -18 -10h-145q-14 0 -6 15l262 429h100z" />
    <glyph glyph-name="cid64" unicode="_" horiz-adv-x="561" 
d="M40 -257q-10 0 -10 10v120q0 10 10 10h481q10 0 10 -10v-120q0 -10 -10 -10h-481z" />
    <glyph glyph-name="cid65" unicode="`" horiz-adv-x="327" 
d="M126 786q7 0 11 -5l110 -160q2 -4 0.5 -7t-5.5 -3h-143q-7 0 -12 5l-156 160q-3 3 -2 6.5t6 3.5h191z" />
    <glyph glyph-name="cid66" unicode="a" horiz-adv-x="621" 
d="M73 455q48 50 112 72t130 22q80 0 130 -22.5t78 -58.5t38 -80.5t10 -89.5v-350q0 -10 -10 -10h-141q-10 0 -10 10v46q-26 -27 -67 -45t-93 -18q-33 0 -70 9t-68 31t-51.5 57t-20.5 88q0 65 31.5 104.5t83 61.5t116.5 29.5t132 8.5v9q0 45 -26.5 65.5t-72.5 20.5
q-39 0 -74.5 -18.5t-66.5 -44.5q-8 -6 -16 2l-73 87q-5 9 -1 14zM403 201h-10q-31 0 -64 -2t-60 -10t-44.5 -24.5t-17.5 -46.5q0 -33 22.5 -42.5t54.5 -9.5q65 0 92 33t27 86v16z" />
    <glyph glyph-name="cid67" unicode="b" horiz-adv-x="694" 
d="M70 782q0 10 10 10h143q10 0 10 -10v-290q23 23 58 40.5t82 17.5h28q59 0 106 -19t79.5 -51.5t50 -76t17.5 -91.5v-152q0 -57 -20.5 -100t-55.5 -71.5t-81.5 -43t-97.5 -14.5q-26 0 -52 5.5t-49 16t-42.5 24t-32.5 30.5v-59q0 -10 -10 -10h-133q-10 0 -10 10v834z
M364 413q-35 0 -59 -12t-39 -31.5t-21.5 -43.5t-6.5 -47v-83q0 -58 30.5 -95.5t91.5 -37.5q37 0 61.5 10.5t39 28t20.5 39.5t6 46v97q0 21 -6 44t-20.5 42t-38 31t-58.5 12z" />
    <glyph glyph-name="cid68" unicode="c" horiz-adv-x="563" 
d="M534 491q7 -7 1 -15l-62 -97q-6 -6 -15 -1q-22 15 -48 23.5t-55 8.5q-34 0 -61 -13.5t-46 -37t-29 -54.5t-10 -66q0 -36 9 -67t28 -53.5t46.5 -35.5t65.5 -13q29 0 59.5 10t56.5 24q9 4 14 -1l62 -96q6 -8 -1 -15q-39 -30 -90 -45.5t-110 -15.5q-64 0 -120 20t-98 59
t-66.5 96.5t-24.5 132.5q0 72 24 129.5t66 97.5t99.5 61.5t125.5 21.5q52 0 100.5 -16.5t78.5 -41.5z" />
    <glyph glyph-name="cid69" unicode="d" horiz-adv-x="694" 
d="M624 -52q0 -10 -10 -10h-133q-10 0 -10 10v59q-13 -17 -32.5 -30.5t-43 -24t-49 -16t-51.5 -5.5q-51 0 -97.5 14.5t-81.5 43t-55.5 71.5t-20.5 100v152q0 48 17.5 91.5t50 76t79.5 51.5t106 19h28q47 0 82 -17.5t58 -40.5v290q0 10 10 10h143q10 0 10 -10v-834zM330 413
q-35 0 -59 -12t-38 -31t-20 -42t-6 -44v-97q0 -24 6 -46t20.5 -39.5t39 -28t61.5 -10.5q61 0 91.5 37.5t30.5 95.5v83q0 23 -7 47t-22 43.5t-39 31.5t-58 12z" />
    <glyph glyph-name="cid70" unicode="e" horiz-adv-x="645" 
d="M208 186q0 -59 39 -88t103 -29q46 0 88 13t71 39q9 4 14 -1l65 -94q6 -8 -1 -15q-45 -41 -104.5 -61t-138.5 -20q-55 0 -109.5 16t-97.5 49.5t-70 85.5t-26 124v73q0 61 21 111t58.5 85.5t88.5 55t111 19.5q72 0 125.5 -20.5t89 -57.5t53 -87.5t17.5 -111.5v-86h-397z
M437 301q0 23 -6 44t-19.5 36.5t-35 25t-52.5 9.5q-57 0 -86 -33.5t-30 -81.5h229z" />
    <glyph glyph-name="cid71" unicode="f" horiz-adv-x="445" 
d="M424 650q-23 3 -51 3q-53 0 -75 -20.5t-22 -61.5v-61h123q6 0 8.5 -3.5t2.5 -6.5v-113q0 -8 -3.5 -10t-6.5 -2h-124v-425q0 -6 -3.5 -9t-8.5 -3h-142q-3 0 -7 2t-4 10v425h-96q-3 0 -6.5 2t-3.5 10v113q0 3 2.5 6.5t8.5 3.5h95v58q0 115 59.5 169.5t194.5 54.5
q18 0 32 -1t26 -4q11 -3 11 -10v-116q0 -8 -3.5 -10t-6.5 -1z" />
    <glyph glyph-name="cid72" unicode="g" horiz-adv-x="674" 
d="M84 -248q-6 4 -7.5 11t3.5 13l51 91q5 6 11 5t11 -4q40 -22 87 -33.5t84 -11.5h15q60 0 91 25.5t31 73.5v90q-26 -30 -61.5 -43.5t-74.5 -13.5h-30q-51 0 -97.5 14.5t-81.5 43t-55.5 71.5t-20.5 100v128q0 48 17.5 91.5t50 75.5t79.5 51t106 19h28q47 0 82 -17t58 -40v40
q0 10 10 10h143q10 0 10 -10v-622q0 -53 -19 -94.5t-53 -70.5t-81.5 -44.5t-104.5 -15.5h-52q-72 0 -129 19t-101 48zM330 412q-35 0 -59 -12t-38 -30.5t-20 -41.5t-6 -44v-73q0 -24 6 -46t20.5 -39.5t39 -28t61.5 -10.5q61 0 91.5 37.5t30.5 95.5v59q0 23 -7 47t-22 43
t-39 31t-58 12z" />
    <glyph glyph-name="cid73" unicode="h" horiz-adv-x="676" 
d="M463 270q0 26 -2.5 51.5t-12 46t-29 33t-52.5 12.5q-35 0 -60 -12t-41.5 -32t-24.5 -46.5t-8 -55.5v-319q0 -10 -10 -10h-143q-10 0 -10 10v834q0 10 10 10h143q10 0 10 -10v-316h2q10 15 26 30t37 27t48 19.5t59 7.5q58 0 100 -20t69 -53t39.5 -75.5t12.5 -87.5v-366
q0 -10 -10 -10h-143q-10 0 -10 10v322z" />
    <glyph glyph-name="cid74" unicode="i" horiz-adv-x="335" 
d="M70 652v190h195v-125q0 -10 -1 -18t-5 -16q-16 -18 -33 -24.5t-31 -6.5h-125zM252 -50q0 -6 -3.5 -9t-8.5 -3h-146q-3 0 -7 2t-4 10v592h169v-592z" />
    <glyph glyph-name="cid75" unicode="j" horiz-adv-x="333" 
d="M68 652v190h195v-125q0 -10 -1 -18t-5 -16q-16 -18 -33 -24.5t-31 -6.5h-125zM250 542v-657q0 -49 -11 -86t-38 -62.5t-71 -38.5t-110 -13q-13 0 -25 1t-22 4q-13 4 -13 19v105q0 15 14 13q9 -1 18 -1.5t14 -0.5q44 0 59.5 16t15.5 59v642h169z" />
    <glyph glyph-name="cid76" unicode="k" horiz-adv-x="623" 
d="M233 308l204 224q3 5 6.5 8t11.5 3h152q9 0 12 -5t-1 -11l-217 -241l224 -332q2 -4 0 -10t-11 -6h-154q-8 0 -12 3t-6 8l-144 223l-65 -72v-152q0 -10 -10 -10h-143q-10 0 -10 10v834q0 10 10 10h143q10 0 10 -10v-474z" />
    <glyph glyph-name="cid77" unicode="l" horiz-adv-x="331" 
d="M251 -50q0 -6 -3.5 -9t-8.5 -3h-148q-3 0 -7 2t-4 10v830q0 8 4 10t7 2h148q5 0 8.5 -3t3.5 -9v-830z" />
    <glyph glyph-name="cid78" unicode="m" horiz-adv-x="938" 
d="M888 -52q0 -10 -10 -10h-144q-10 0 -10 10v345q0 35 -4 58t-14 36.5t-25.5 19t-39.5 5.5t-40 -5t-26 -17.5t-14.5 -33.5t-4.5 -53v-355q0 -10 -10 -10h-144q-10 0 -10 10v345q0 35 -4.5 58t-14 36.5t-25.5 19t-39 5.5q-24 0 -40.5 -5t-26 -17.5t-14 -33.5t-4.5 -53v-355
q0 -10 -10 -10h-144q-10 0 -10 10v584q0 10 10 10h136q10 0 10 -10v-62q31 80 146 80q128 0 170 -92q15 43 57 67.5t105 24.5q104 0 149 -56.5t45 -165.5v-380z" />
    <glyph glyph-name="cid79" unicode="n" horiz-adv-x="661" 
d="M70 -62q-10 0 -10 10v584q0 10 10 10h143q10 0 10 -10v-65q34 34 78 58.5t106 23.5q38 -1 74.5 -11.5t70.5 -36.5q21 -16 32.5 -35t17.5 -39.5t7.5 -41.5t1.5 -41v-396q0 -3 -2.5 -6.5t-7.5 -3.5h-147q-10 0 -10 10v365q0 33 -9.5 52.5t-24.5 30t-33.5 13.5t-36.5 3
q-27 0 -48 -11.5t-35.5 -31.5t-22 -46t-7.5 -54v-321q0 -10 -10 -10h-147z" />
    <glyph glyph-name="cid80" unicode="o" horiz-adv-x="649" 
d="M609 191q0 -58 -19 -106t-55.5 -82t-89.5 -53t-121 -19q-67 0 -119.5 18.5t-89 52.5t-56 81.5t-19.5 105.5v99q0 58 19 106t55.5 82.5t89.5 53.5t120 19q69 0 122 -18.5t89 -52t55 -81.5t19 -106v-100zM442 274q0 63 -26.5 100.5t-91.5 37.5q-31 0 -53 -10.5t-36.5 -29
t-21 -44t-6.5 -56.5v-63q0 -64 26.5 -102t90.5 -38q65 0 91.5 37.5t26.5 102.5v65z" />
    <glyph glyph-name="cid81" unicode="p" horiz-adv-x="704" 
d="M70 532q0 10 10 10h133q10 0 10 -10v-58q13 16 32.5 30t42.5 24.5t49 16t52 5.5q51 0 97.5 -14.5t81.5 -43t55.5 -71.5t20.5 -100v-152q0 -48 -17.5 -91.5t-50 -76t-79.5 -51.5t-106 -19h-28q-47 0 -82 17.5t-58 40.5v-294q0 -10 -10 -10h-143q-10 0 -10 10v837zM364 68
q35 0 58.5 12t38 31t20.5 42t6 44v97q0 24 -6 46t-20.5 39.5t-39 28t-61.5 10.5q-61 0 -91.5 -37.5t-30.5 -95.5v-83q0 -23 6.5 -47t21.5 -43.5t39 -31.5t59 -12z" />
    <glyph glyph-name="cid82" unicode="q" horiz-adv-x="704" 
d="M634 -305q0 -10 -10 -10h-143q-10 0 -10 10v294q-23 -23 -58 -40.5t-82 -17.5h-28q-59 0 -106 19t-79.5 51.5t-50 76t-17.5 91.5v152q0 57 20.5 100t55.5 71.5t81.5 43t97.5 14.5q26 0 51.5 -5.5t49 -16t43 -24.5t32.5 -30v58q0 10 10 10h133q10 0 10 -10v-837zM340 68
q34 0 58 12t39 31.5t22 43.5t7 47v83q0 58 -30.5 95.5t-91.5 37.5q-37 0 -61.5 -10.5t-39 -28t-20.5 -39.5t-6 -46v-97q0 -21 6 -44t20 -42t38 -31t59 -12z" />
    <glyph glyph-name="cid83" unicode="r" horiz-adv-x="439" 
d="M424 403q-17 4 -33 4q-49 0 -81 -16t-50.5 -39.5t-25.5 -50t-7 -46.5v-317h-167v594q0 10 10 10h140q10 0 10 -10v-97h3q24 51 71.5 83t106.5 32h11.5t12.5 -2q13 -4 13 -19v-114q0 -15 -14 -12z" />
    <glyph glyph-name="cid84" unicode="s" horiz-adv-x="583" 
d="M542 108q-3 -47 -24.5 -80t-55 -55t-77.5 -32t-93 -10q-71 0 -130 23t-119 66q-6 6 0 16l58 92q6 9 16 4q33 -25 79.5 -46t90.5 -23q38 -2 65 8t32 42q3 24 -9.5 40t-44.5 22q-16 3 -30.5 6t-30.5 6.5t-35 8t-44 10.5q-66 17 -98.5 61.5t-27.5 113.5q3 41 21.5 72.5
t47.5 53t67 32.5t82 11q72 0 128.5 -18.5t112.5 -58.5q5 -5 0 -14l-59 -87q-7 -9 -16 -3q-32 23 -71 37t-81 14q-35 0 -51.5 -11t-18.5 -34q-3 -43 59 -55q14 -3 27 -5.5t27.5 -5.5t32.5 -7.5t43 -10.5q60 -15 96 -60t31 -123z" />
    <glyph glyph-name="cid85" unicode="t" horiz-adv-x="397" 
d="M248 542h133q6 0 8.5 -4t2.5 -7v-113q0 -3 -2 -7t-9 -4h-133v-261q0 -25 4 -40.5t13 -24.5t24 -12t37 -3h53q6 0 8.5 -4t2.5 -7v-113q0 -3 -2 -7t-9 -4h-88q-56 0 -95.5 11t-64.5 36t-36.5 65t-11.5 98v266h-62q-7 0 -9 4t-2 7v113q0 3 2.5 7t8.5 4h62v134q0 10 10 10
h145q10 0 10 -10v-134z" />
    <glyph glyph-name="cid86" unicode="u" horiz-adv-x="661" 
d="M591 542q10 0 10 -10v-584q0 -10 -10 -10h-143q-10 0 -10 10v65q-34 -35 -78.5 -59t-105.5 -23q-38 1 -74.5 11.5t-70.5 36.5q-21 16 -32.5 35t-17.5 39.5t-7.5 41.5t-1.5 41v396q0 3 2.5 6.5t7.5 3.5h147q10 0 10 -10v-365q0 -33 9.5 -52.5t24.5 -30t33.5 -13.5t36.5 -3
q27 0 48 11.5t35.5 31.5t22 45.5t7.5 54.5v321q0 10 10 10h147z" />
    <glyph glyph-name="cid87" unicode="v" horiz-adv-x="605" 
d="M231 -62q-10 0 -13 8l-212 580q-2 4 0 10t11 6h133q8 0 12 -3t6 -8l133 -412h3l133 412q2 5 6 8t12 3h133q9 0 11 -6t0 -10l-212 -580q-3 -8 -13 -8h-143z" />
    <glyph glyph-name="cid88" unicode="w" horiz-adv-x="932" 
d="M741 -53q-3 -9 -12 -9h-136q-9 0 -12 9l-114 395h-2l-116 -395q-3 -9 -12 -9h-136q-9 0 -12 9l-183 579q-2 4 0 10t11 6h128q8 0 12 -3t6 -8l109 -404h3l115 406q3 9 12 9h129q9 0 12 -9l114 -406h2l110 404q2 5 6 8t12 3h128q9 0 11 -6t0 -10z" />
    <glyph glyph-name="cid89" unicode="x" horiz-adv-x="608" 
d="M304 137l-124 -188q-3 -5 -6.5 -8t-11.5 -3h-144q-9 0 -11 6t0 10l212 304l-185 268q-2 4 0 10t11 6h147q8 0 12 -3t6 -8l94 -145l94 145q2 5 6 8t12 3h147q9 0 11 -6t0 -10l-185 -268l212 -304q2 -4 0 -10t-11 -6h-144q-8 0 -11.5 3t-6.5 8z" />
    <glyph glyph-name="cid90" unicode="y" horiz-adv-x="604" 
d="M240 -44l-234 570q-2 4 0 10t11 6h134q8 0 12 -3t6 -8l138 -374h3l124 374q3 11 18 11h135q9 0 11 -6t0 -10l-308 -830q-3 -11 -18 -11h-119q-9 0 -11 6t0 10z" />
    <glyph glyph-name="cid91" unicode="z" horiz-adv-x="488" 
d="M224 74h229q3 0 6.5 -2t3.5 -10v-114q0 -3 -2.5 -6.5t-8.5 -3.5h-414q-13 0 -13 14v67q0 14 8 27l240 361h-238q-3 0 -6.5 2t-3.5 10v113q0 3 2.5 6.5t8.5 3.5h414q13 0 13 -14v-87q0 -14 -8 -27z" />
    <glyph glyph-name="cid92" unicode="{" horiz-adv-x="430" 
d="M252 -229q-31 0 -59 9.5t-49.5 29.5t-34.5 50.5t-13 71.5v232q0 29 -8.5 47t-21 28.5t-27 14.5t-27.5 4v107q13 0 27.5 3.5t27 13t21 26t8.5 42.5v241q0 41 13 71.5t34.5 50.5t49.5 29.5t59 9.5h107q6 0 8.5 -3.5t2.5 -6.5v-97q0 -8 -3.5 -10t-6.5 -2h-62
q-18 0 -28.5 -6.5t-16 -17t-7 -23.5t-1.5 -26v-212q0 -36 -13.5 -60.5t-32 -40.5t-39 -24t-35.5 -10v-3q15 -1 35.5 -7.5t39 -22.5t32 -43t13.5 -69v-205q0 -13 1.5 -26t7 -23.5t16 -17t28.5 -6.5h61q6 0 8.5 -3.5t2.5 -6.5v-97q0 -8 -3.5 -10t-6.5 -2h-108z" />
    <glyph glyph-name="cid93" unicode="|" horiz-adv-x="296" 
d="M80 881q0 8 4 10t7 2h113q5 0 8.5 -3t3.5 -9v-1205q0 -6 -3.5 -9t-8.5 -3h-113q-3 0 -7 2t-4 10v1205z" />
    <glyph glyph-name="cid94" unicode="}" horiz-adv-x="430" 
d="M70 -229q-3 0 -6.5 2t-3.5 10v97q0 3 2.5 6.5t8.5 3.5h61q18 0 28.5 6.5t16 17t7 23.5t1.5 26v205q0 42 13.5 69t32 43t39 22.5t35.5 7.5v3q-15 2 -35.5 10t-39 24t-32 40.5t-13.5 60.5v212q0 13 -1.5 26t-7 23.5t-16 17t-28.5 6.5h-62q-3 0 -6.5 2t-3.5 10v97
q0 3 2.5 6.5t8.5 3.5h107q31 0 59 -9.5t49.5 -29.5t34.5 -50.5t13 -71.5v-241q0 -26 8.5 -42.5t21 -26t27 -13t27.5 -3.5v-107q-13 0 -27.5 -4t-27 -14.5t-21 -28.5t-8.5 -47v-232q0 -41 -13 -71.5t-34.5 -50.5t-49.5 -29.5t-59 -9.5h-108z" />
    <glyph glyph-name="cid95" unicode="~" horiz-adv-x="864" 
d="M209 213q-5 -10 -14 -3l-101 74q-6 4 -3 9q23 40 48.5 65.5t51.5 40.5t52 21t51 6q46 0 79.5 -12.5t71.5 -37.5q22 -14 38 -23t28.5 -14t24 -7t24.5 -2q23 0 45 20.5t40 55.5q5 10 14 3l111 -81q6 -4 3 -9q-21 -38 -46.5 -63.5t-52.5 -40.5t-54.5 -21.5t-52.5 -6.5
q-42 0 -76.5 12t-76.5 38q-26 16 -43 25.5t-30 14t-23 6t-20 1.5q-25 0 -45 -17t-44 -54z" />
    <glyph glyph-name="cid208" unicode="&#xa1;" horiz-adv-x="455" 
d="M140 570q0 13 11 13h154q10 0 10 -12v-145q0 -12 -10 -12h-154q-11 0 -11 13v143zM293 309l27 -612q0 -4 -3 -8t-8 -4h-163q-11 0 -11 12l26 612h132z" />
    <glyph glyph-name="cid143" unicode="&#xa2;" horiz-adv-x="659" 
d="M536 519q14 -6 26 -13t22 -15q7 -7 1 -15l-62 -93q-6 -6 -15 -1l-21 12l-127 -326q7 -1 13.5 -1h14.5q37 0 73.5 10t62.5 24q9 4 14 -1l62 -93q6 -8 -1 -15q-39 -30 -96.5 -45.5t-123.5 -15.5q-37 0 -71 6l-58 -150q-3 -5 -6.5 -8t-11.5 -3h-104q-9 0 -11 6t0 10l72 186
q-65 37 -102 102t-37 159q0 72 24 129.5t68.5 97.5t106 61.5t136.5 21.5q7 0 13.5 -0.5t13.5 -0.5l66 169q3 5 6.5 8t11.5 3h104q9 0 11 -6t0 -10zM214 239q0 -68 33 -113l112 286q-36 -4 -63 -19.5t-45 -39t-27.5 -53t-9.5 -61.5z" />
    <glyph glyph-name="cid143" unicode="&#xffe0;" horiz-adv-x="659" 
d="M536 519q14 -6 26 -13t22 -15q7 -7 1 -15l-62 -93q-6 -6 -15 -1l-21 12l-127 -326q7 -1 13.5 -1h14.5q37 0 73.5 10t62.5 24q9 4 14 -1l62 -93q6 -8 -1 -15q-39 -30 -96.5 -45.5t-123.5 -15.5q-37 0 -71 6l-58 -150q-3 -5 -6.5 -8t-11.5 -3h-104q-9 0 -11 6t0 10l72 186
q-65 37 -102 102t-37 159q0 72 24 129.5t68.5 97.5t106 61.5t136.5 21.5q7 0 13.5 -0.5t13.5 -0.5l66 169q3 5 6.5 8t11.5 3h104q9 0 11 -6t0 -10zM214 239q0 -68 33 -113l112 286q-36 -4 -63 -19.5t-45 -39t-27.5 -53t-9.5 -61.5z" />
    <glyph glyph-name="cid144" unicode="&#xa3;" horiz-adv-x="667" 
d="M306 350q0 -68 -12 -120.5t-39 -107.5q24 4 46 2t51 -15q18 -8 35.5 -20.5t40.5 -12.5q34 0 58.5 18t47.5 50q7 10 16 2l79 -71q5 -4 6 -10.5t-4 -12.5q-18 -24 -39.5 -45.5t-47 -38.5t-55 -27t-63.5 -10q-30 0 -59.5 17t-59.5 33q-16 8 -32 13t-33 5q-31 0 -59 -19
t-55 -51q-7 -8 -16 -2l-93 60q-8 6 -4 13q17 29 35 60t34 63t29 66t20 69q2 10 3.5 22.5t2.5 25.5t1.5 24.5t0.5 19.5h-96q-3 0 -6.5 2t-3.5 10v113q0 3 2.5 6.5t8.5 3.5h95v83q0 115 65.5 169.5t208.5 54.5h26.5t35.5 -1t34 -2t22 -2q11 -3 11 -10v-116q0 -8 -3.5 -10
t-6.5 -1q-6 1 -21 1.5t-32.5 1t-34 0.5h-23.5q-60 0 -88.5 -20.5t-28.5 -61.5v-86h203q6 0 8.5 -3.5t2.5 -6.5v-113q0 -8 -3.5 -10t-6.5 -2h-204z" />
    <glyph glyph-name="cid144" unicode="&#xffe1;" horiz-adv-x="667" 
d="M306 350q0 -68 -12 -120.5t-39 -107.5q24 4 46 2t51 -15q18 -8 35.5 -20.5t40.5 -12.5q34 0 58.5 18t47.5 50q7 10 16 2l79 -71q5 -4 6 -10.5t-4 -12.5q-18 -24 -39.5 -45.5t-47 -38.5t-55 -27t-63.5 -10q-30 0 -59.5 17t-59.5 33q-16 8 -32 13t-33 5q-31 0 -59 -19
t-55 -51q-7 -8 -16 -2l-93 60q-8 6 -4 13q17 29 35 60t34 63t29 66t20 69q2 10 3.5 22.5t2.5 25.5t1.5 24.5t0.5 19.5h-96q-3 0 -6.5 2t-3.5 10v113q0 3 2.5 6.5t8.5 3.5h95v83q0 115 65.5 169.5t208.5 54.5h26.5t35.5 -1t34 -2t22 -2q11 -3 11 -10v-116q0 -8 -3.5 -10
t-6.5 -1q-6 1 -21 1.5t-32.5 1t-34 0.5h-23.5q-60 0 -88.5 -20.5t-28.5 -61.5v-86h203q6 0 8.5 -3.5t2.5 -6.5v-113q0 -8 -3.5 -10t-6.5 -2h-204z" />
    <glyph glyph-name="cid214" unicode="&#xa4;" horiz-adv-x="769" 
d="M667 191q0 -72 -29 -128l96 -88q10 -6 2 -14l-85 -91q-5 -5 -8.5 -4.5t-8.5 4.5l-99 94q-32 -16 -70 -24.5t-83 -8.5q-86 0 -150 31l-97 -92q-5 -4 -8.5 -4.5t-8.5 4.5l-85 91q-3 3 -3 7t5 7l93 86q-30 54 -30 128v99q0 67 26 121l-89 83q-5 3 -5 7t3 7l85 91
q5 5 8.5 4.5t8.5 -4.5l88 -84q32 17 72 26.5t87 9.5q95 0 163 -37l89 85q5 4 8.5 4.5t8.5 -4.5l85 -91q8 -8 -2 -14l-91 -84q24 -51 24 -117v-100zM500 274q0 63 -26.5 100.5t-91.5 37.5q-31 0 -53 -10.5t-36.5 -29t-21 -44t-6.5 -56.5v-63q0 -64 26.5 -102t90.5 -38
q65 0 91.5 37.5t26.5 102.5v65z" />
    <glyph glyph-name="cid145" unicode="&#xa5;" horiz-adv-x="720" 
d="M536 760q2 5 6 8t12 3h144q9 0 11 -6t0 -10l-209 -374h100q10 0 10 -10v-113q0 -10 -10 -10h-155v-67h155q10 0 10 -10v-113q0 -10 -10 -10h-155v-98q0 -6 -3.5 -9t-8.5 -3h-147q-3 0 -7 2t-4 10v98h-155q-10 0 -10 10v113q0 10 10 10h155v67h-155q-10 0 -10 10v113
q0 10 10 10h100l-209 374q-2 4 0 10t11 6h144q8 0 12 -3t6 -8l176 -331z" />
    <glyph glyph-name="cid145" unicode="&#xffe5;" horiz-adv-x="720" 
d="M536 760q2 5 6 8t12 3h144q9 0 11 -6t0 -10l-209 -374h100q10 0 10 -10v-113q0 -10 -10 -10h-155v-67h155q10 0 10 -10v-113q0 -10 -10 -10h-155v-98q0 -6 -3.5 -9t-8.5 -3h-147q-3 0 -7 2t-4 10v98h-155q-10 0 -10 10v113q0 10 10 10h155v67h-155q-10 0 -10 10v113
q0 10 10 10h100l-209 374q-2 4 0 10t11 6h144q8 0 12 -3t6 -8l176 -331z" />
    <glyph glyph-name="cid155" unicode="&#xa7;" horiz-adv-x="612" 
d="M338 51q8 0 19.5 2t22 6.5t18.5 13t11 22.5q4 23 -10 45t-51 30l-98 21q-83 22 -120 65t-37 108q0 37 16 68t40 54q-65 48 -65 128q0 83 59.5 124t159.5 41h21q22 0 48.5 -4.5t55 -12.5t56.5 -19.5t54 -25.5l-52 -109q-12 7 -31.5 16t-42 17t-45.5 13.5t-43 5.5h-21
q-39 0 -55.5 -14t-16.5 -32q0 -15 9.5 -31t43.5 -24h-1l111 -27q46 -13 75.5 -33.5t45.5 -44.5t21.5 -51t4.5 -52q-2 -37 -16.5 -65.5t-35.5 -45.5q34 -30 48.5 -68t12.5 -72q-2 -47 -25 -79t-55.5 -52t-68.5 -29t-63 -9h-16q-32 0 -63 4t-62 14t-63.5 26.5t-67.5 41.5
l65 105q45 -36 96 -53.5t91 -17.5h20zM313 425q-40 0 -56.5 -19.5t-17.5 -42.5q-2 -44 61 -59l27 -4q8 0 19 2.5t22 8.5t19.5 16.5t11.5 27.5q1 29 -20 48.5t-45 20.5z" />
    <glyph glyph-name="cid107" unicode="&#xa8;" horiz-adv-x="521" 
d="M70 818q0 8 2.5 11.5t10.5 3.5h127q11 0 11 -14v-116q0 -6 -3 -10.5t-8 -4.5h-127q-8 0 -10.5 4t-2.5 12v114zM300 818q0 8 2.5 11.5t10.5 3.5h127q11 0 11 -14v-116q0 -6 -3 -10.5t-8 -4.5h-127q-8 0 -10.5 4t-2.5 12v114z" />
    <glyph glyph-name="cid98" unicode="&#xa9;" 
d="M475 -146q-96 0 -181 36t-148.5 101t-100.5 156t-37 201t37 201t100.5 156t148.5 101t181 36t181 -36t148.5 -101t100.5 -156t37 -201t-37 -201t-100.5 -156t-148.5 -101t-181 -36zM475 -53q76 0 142 28.5t114.5 81t76 126.5t27.5 165q0 90 -27.5 163.5t-75.5 126
t-114 81.5t-143 29t-143 -29t-114 -81.5t-75.5 -126t-27.5 -163.5q0 -91 27.5 -165t76 -126.5t114 -81t142.5 -28.5zM656 562q5 -7 1 -13l-54 -84q-4 -4 -13 -1q-19 13 -41 20.5t-48 7.5q-30 0 -53 -11.5t-39.5 -32t-25 -47.5t-8.5 -57q0 -63 31.5 -104.5t97.5 -41.5
q25 0 51 8.5t49 20.5q6 4 12 0l54 -83q4 -8 -1 -13q-34 -26 -78 -39.5t-95 -13.5q-55 0 -103.5 17.5t-85 51t-57.5 83t-21 114.5q0 62 20.5 112t57 84.5t86.5 53t108 18.5q45 0 87 -14.5t68 -35.5z" />
    <glyph glyph-name="cid668" unicode="&#xaa;" horiz-adv-x="521" 
d="M99 730q-9 12 -2 24q34 34 78 49t88 15q55 0 89.5 -15.5t53.5 -40.5t26 -55.5t7 -61.5v-229q0 -10 -3.5 -13t-13.5 -3h-90q-17 0 -17 16v6q-38 -27 -96 -27q-23 0 -49 6.5t-47.5 21.5t-35.5 40t-14 63q0 44 20.5 70.5t54 41.5t76 20.5t86.5 7.5q-2 25 -17 35.5t-38 10.5
t-45.5 -10.5t-41.5 -26.5q-5 -5 -9 -6.5t-9 3.5zM310 574q-18 0 -37.5 -1t-35.5 -5.5t-26 -13.5t-10 -26t12 -23t29 -6q38 0 53 22.5t15 51.5v1zM60 203q-10 0 -10 10v111q0 10 10 10h401q10 0 10 -10v-111q0 -10 -10 -10h-401z" />
    <glyph glyph-name="cid176" unicode="&#xab;" 
d="M241 359l382 -256l-69 -101l-525 357l533 359l72 -97zM540 359l388 -255l-69 -102l-535 357l542 359l70 -100z" />
    <glyph glyph-name="cid176" unicode="&#x226a;" 
d="M241 359l382 -256l-69 -101l-525 357l533 359l72 -97zM540 359l388 -255l-69 -102l-535 357l542 359l70 -100z" />
    <glyph glyph-name="cid194" unicode="&#xac;" horiz-adv-x="955" 
d="M715 355h-660q-10 0 -10 10v120q0 10 10 10h820q10 0 10 -10v-449q0 -6 -3.5 -9t-8.5 -3h-147q-3 0 -7 2t-4 10v319z" />
    <glyph glyph-name="cid194" unicode="&#xffe2;" horiz-adv-x="955" 
d="M715 355h-660q-10 0 -10 10v120q0 10 10 10h820q10 0 10 -10v-449q0 -6 -3.5 -9t-8.5 -3h-147q-3 0 -7 2t-4 10v319z" />
    <glyph glyph-name="cid109" unicode="&#xad;" horiz-adv-x="689" 
d="M84 284q-10 0 -10 10v120q0 10 10 10h511q10 0 10 -10v-120q0 -10 -10 -10h-511z" />
    <glyph glyph-name="cid109" unicode="&#x2013;" horiz-adv-x="689" 
d="M84 284q-10 0 -10 10v120q0 10 10 10h511q10 0 10 -10v-120q0 -10 -10 -10h-511z" />
    <glyph glyph-name="cid18352" unicode="&#xae;" 
d="M475 -146q-96 0 -181 36t-148.5 101t-100.5 156t-37 201t37 201t100.5 156t148.5 101t181 36t181 -36t148.5 -101t100.5 -156t37 -201t-37 -201t-100.5 -156t-148.5 -101t-181 -36zM475 -53q76 0 142 28.5t114.5 81t76 126.5t27.5 165q0 90 -27.5 163.5t-75.5 126
t-114 81.5t-143 29t-143 -29t-114 -81.5t-75.5 -126t-27.5 -163.5q0 -91 27.5 -165t76 -126.5t114 -81t142.5 -28.5zM472 270h-57v-170q0 -9 -9 -9h-114q-2 0 -5 1.5t-3 7.5v499q0 12 10 12h204q55 0 93.5 -8t63 -27.5t35.5 -52t11 -81.5q0 -71 -24.5 -106t-73.5 -52
l109 -180q1 -4 0 -8.5t-9 -4.5h-118q-11 0 -14 8zM479 375q22 0 39 1.5t29 7.5t18 18.5t6 34.5t-4.5 35.5t-14.5 20.5t-26.5 9.5t-40.5 2.5h-70v-130h64z" />
    <glyph glyph-name="cid138" unicode="&#xb0;" horiz-adv-x="450" 
d="M83 730q0 31 12.5 55.5t33 41.5t45.5 26.5t51 9.5t51.5 -9.5t45.5 -26.5t32.5 -41.5t12.5 -55.5t-12.5 -56t-32.5 -43t-45.5 -27.5t-51.5 -9.5t-51 9.5t-45.5 27.5t-33 43t-12.5 56zM184 730q0 -19 10.5 -32t30.5 -13t31 13.5t11 31.5q0 20 -11 31.5t-31 11.5
q-19 0 -30 -12.5t-11 -30.5z" />
    <glyph glyph-name="cid130" unicode="&#xb1;" horiz-adv-x="695" 
d="M100 386q-10 0 -10 10v116q0 10 10 10h176v150q0 10 10 10h124q10 0 10 -10v-150h175q10 0 10 -10v-116q0 -10 -10 -10h-175v-152q0 -10 -10 -10h-124q-10 0 -10 10v152h-176zM107 14q-10 0 -10 10v120q0 10 10 10h481q10 0 10 -10v-120q0 -10 -10 -10h-481z" />
    <glyph glyph-name="cid843" unicode="&#xb2;" horiz-adv-x="450" 
d="M126 676q-11 -7 -17 -4.5t-12 7.5l-32 52q-5 10 -4.5 19t9.5 14q27 19 63 33.5t77 14.5q40 0 71 -11t52 -30t31.5 -45.5t10.5 -57.5q0 -57 -27 -101t-76 -94l-45 -42h132q9 0 14.5 -3.5t5.5 -17.5v-61q0 -13 -4.5 -17t-14.5 -4h-294v75q0 8 2 13t9 11l102 105
q21 21 36 37.5t24.5 31t13.5 28.5t4 31q1 16 -9 32t-42 17q-16 1 -38 -9.5t-42 -23.5z" />
    <glyph glyph-name="cid844" unicode="&#xb3;" horiz-adv-x="450" 
d="M136 475q9 -17 26 -32.5t46 -15.5q27 0 43 14.5t17 38.5q0 22 -12.5 34.5t-31.5 19t-41.5 8t-41.5 1.5v66l77 96h-140q-5 0 -12 3.5t-7 16.5v64q0 5 4.5 12t15.5 7h270q10 0 14.5 -7t4.5 -12v-51q0 -8 -1.5 -12.5t-6.5 -12.5l-79 -94q48 -14 77 -48t29 -92
q0 -34 -13 -62.5t-36.5 -49t-55.5 -32t-71 -11.5q-55 0 -97.5 24.5t-66.5 72.5q-7 9 -4.5 15.5t8.5 11.5l54 35q11 6 18.5 4.5t12.5 -12.5z" />
    <glyph glyph-name="cid199" unicode="&#xb4;" horiz-adv-x="286" 
d="M50 538q-11 0 -8 12l56 260q4 13 17 13h140q12 0 5 -14l-108 -260q-3 -6 -7.5 -8.5t-13.5 -2.5h-81z" />
    <glyph glyph-name="cid244" unicode="&#xb6;" 
d="M694 771v-955h-94v854h-71v-854h-90v461q-54 3 -95.5 23t-70 52.5t-43 77t-14.5 97.5q0 49 15.5 93.5t45.5 78t74.5 53t101.5 19.5h241z" />
    <glyph glyph-name="cid104" unicode="&#xb7;" horiz-adv-x="356" 
d="M72 466q0 8 2.5 11.5t10.5 3.5h187q11 0 11 -14v-176q0 -6 -3 -10.5t-8 -4.5h-187q-8 0 -10.5 4t-2.5 12v174z" />
    <glyph glyph-name="cid104" unicode="&#x30fb;" horiz-adv-x="356" 
d="M72 466q0 8 2.5 11.5t10.5 3.5h187q11 0 11 -14v-176q0 -6 -3 -10.5t-8 -4.5h-187q-8 0 -10.5 4t-2.5 12v174z" />
    <glyph glyph-name="cid206" unicode="&#xb8;" horiz-adv-x="364" 
d="M248 65l-25 -76q53 -14 79 -51t22 -86q-3 -38 -21.5 -64t-46 -42t-60.5 -23.5t-63 -8.5h-21.5t-28.5 2q-17 1 -17 18v84q0 14 13 12q53 -7 80.5 1.5t27.5 38.5q0 35 -41 47q-11 2 -28.5 2h-31.5q-16 0 -13 14l39 161z" />
    <glyph glyph-name="cid842" unicode="&#xb9;" horiz-adv-x="450" 
d="M286 812q21 0 21 -22v-446q0 -20 -20 -20h-80q-6 0 -13 3.5t-7 16.5v341l-81 -41q-11 -5 -17 -1t-6 21v65q0 18 14 23l122 60h67z" />
    <glyph glyph-name="cid675" unicode="&#xba;" horiz-adv-x="521" 
d="M456 524q0 -81 -51 -130t-145 -49t-145 49t-51 129v65q0 81 51.5 130.5t144.5 49.5q94 0 145 -48.5t51 -129.5v-66zM326 578q0 38 -15 60t-51 22t-51.5 -23t-15.5 -60v-40q0 -38 14.5 -60.5t52.5 -22.5q36 0 51 22.5t15 60.5v41z" />
    <glyph glyph-name="cid177" unicode="&#xbb;" 
d="M14 618l70 101l543 -359l-536 -358l-70 102l389 255zM314 620l74 98l533 -359l-527 -357l-67 101l381 256z" />
    <glyph glyph-name="cid177" unicode="&#x226b;" 
d="M14 618l70 101l543 -359l-536 -358l-70 102l389 255zM314 620l74 98l533 -359l-527 -357l-67 101l381 256z" />
    <glyph glyph-name="cid751" unicode="&#xbc;" 
d="M297 -50q-3 -5 -6.5 -8t-11.5 -3h-103q-9 0 -11 6t0 10l482 855q3 5 6.5 8t11.5 3h103q9 0 11 -6t0 -10zM246 812q21 0 21 -22v-446q0 -20 -20 -20h-80q-6 0 -13 3.5t-7 16.5v341l-81 -41q-11 -5 -17 -1t-6 21v65q0 18 14 23l122 60h67zM758 255q0 10 3.5 16.5t14.5 6.5
h70q7 0 13 -6t6 -14v-121h29q9 0 14.5 -3.5t5.5 -16.5v-60q0 -14 -6 -18t-13 -4h-30v-64q0 -10 -4 -15t-15 -5h-69q-11 0 -15 3.5t-4 16.5v64h-199q-20 0 -20 22v42q0 9 3 18l155 308q4 5 9.5 9.5t13.5 4.5h70q15 0 18 -11.5t0 -19.5l-131 -271h81v118z" />
    <glyph glyph-name="cid748" unicode="&#xbd;" 
d="M282 -50q-3 -5 -6.5 -8t-11.5 -3h-103q-9 0 -11 6t0 10l482 855q3 5 6.5 8t11.5 3h103q9 0 11 -6t0 -10zM246 812q21 0 21 -22v-446q0 -20 -20 -20h-80q-6 0 -13 3.5t-7 16.5v341l-81 -41q-11 -5 -17 -1t-6 21v65q0 18 14 23l122 60h67zM656 303q-11 -7 -17 -4.5t-12 7.5
l-32 52q-5 10 -4.5 19t9.5 14q27 19 63 33.5t77 14.5q40 0 71 -11t52 -30t31.5 -45.5t10.5 -57.5q0 -57 -27 -101t-76 -94l-45 -42h132q9 0 14.5 -3.5t5.5 -17.5v-61q0 -13 -4.5 -17t-14.5 -4h-294v75q0 8 2 13t9 11l102 105q21 21 36 37.5t24.5 31t13.5 28.5t4 31
q1 16 -9 32t-42 17q-16 1 -38 -9.5t-42 -23.5z" />
    <glyph glyph-name="cid752" unicode="&#xbe;" 
d="M317 -50q-3 -5 -6.5 -8t-11.5 -3h-103q-9 0 -11 6t0 10l482 855q3 5 6.5 8t11.5 3h103q9 0 11 -6t0 -10zM116 475q9 -17 26 -32.5t46 -15.5q27 0 43 14.5t17 38.5q0 22 -12.5 34.5t-31.5 19t-41.5 8t-41.5 1.5v66l77 96h-140q-5 0 -12 3.5t-7 16.5v64q0 5 4.5 12t15.5 7
h270q10 0 14.5 -7t4.5 -12v-51q0 -8 -1.5 -12.5t-6.5 -12.5l-79 -94q48 -14 77 -48t29 -92q0 -34 -13 -62.5t-36.5 -49t-55.5 -32t-71 -11.5q-55 0 -97.5 24.5t-66.5 72.5q-7 9 -4.5 15.5t8.5 11.5l54 35q11 6 18.5 4.5t12.5 -12.5zM764 255q0 10 3.5 16.5t14.5 6.5h70
q7 0 13 -6t6 -14v-121h29q9 0 14.5 -3.5t5.5 -16.5v-60q0 -14 -6 -18t-13 -4h-30v-64q0 -10 -4 -15t-15 -5h-69q-11 0 -15 3.5t-4 16.5v64h-191q-20 0 -20 22v42q0 9 3 18l155 308q4 5 9.5 9.5t13.5 4.5h70q15 0 18 -11.5t0 -19.5l-131 -271h73v118z" />
    <glyph glyph-name="cid209" unicode="&#xbf;" horiz-adv-x="647" 
d="M405 454q0 -13 -11 -13h-154q-10 0 -10 12v145q0 12 10 12h154q11 0 11 -13v-143zM396 351v-83q0 -29 -5 -53.5t-17.5 -48t-34 -49t-54.5 -56.5q-41 -39 -60.5 -67.5t-19.5 -65.5q0 -48 28.5 -77.5t82.5 -29.5q50 0 81 30t37 74q1 7 4.5 13t12.5 5l128 -11q15 -2 12 -17
q-9 -54 -34.5 -97t-63 -72.5t-85.5 -45t-102 -15.5q-53 0 -100.5 15t-83.5 44.5t-57.5 73.5t-21.5 102q0 39 8.5 68t24 53.5t38 46.5t51.5 47q24 21 39.5 36.5t24.5 31.5t12.5 34.5t3.5 44.5v69h151z" />
    <glyph glyph-name="cid666" unicode="&#xc6;" 
d="M636 294v-216h271q6 0 8.5 -3.5t2.5 -6.5v-118q0 -8 -3.5 -10t-6.5 -2h-427q-3 0 -7 2t-4 10v171h-196l-86 -172q-2 -5 -6 -8t-12 -3h-143q-9 0 -11 6t0 10l416 806q3 11 14 11h461q6 0 8.5 -3.5t2.5 -6.5v-118q0 -8 -3.5 -10t-6.5 -2h-272v-198h246q6 0 8.5 -3.5
t2.5 -6.5v-117q0 -8 -3.5 -10t-6.5 -2h-247zM470 257v254l-128 -254h128z" />
    <glyph glyph-name="cid667" unicode="&#xd0;" horiz-adv-x="787" 
d="M120 756q0 6 3.5 10.5t11.5 4.5h282q95 0 158.5 -17.5t101.5 -64t54 -126.5t16 -206q0 -121 -15 -201.5t-53.5 -129t-103 -68.5t-163.5 -20h-281q-3 0 -7 2t-4 10v334h-100q-10 0 -10 10v120q0 10 10 10h100v332zM290 631v-207h151q10 0 10 -10v-120q0 -10 -10 -10h-151
v-206h127q51 0 82 6t48 34t23 84.5t6 157.5q0 87 -6 140.5t-23 82.5t-48 38.5t-82 9.5h-127z" />
    <glyph glyph-name="cid131" unicode="&#xd7;" horiz-adv-x="750" 
d="M106 524q-5 5 -4 8t4 6l88 88q7 7 14 0l167 -167l166 166q7 7 14 0l88 -87q6 -8 0 -15l-166 -166l166 -166q7 -7 0 -14l-88 -88q-6 -6 -14 0l-166 166l-166 -165q-6 -8 -14 0l-88 88q-7 7 0 14l166 165z" />
    <glyph glyph-name="cid673" unicode="&#xd8;" horiz-adv-x="802" 
d="M385 -69q-17 0 -33 1.5t-32 3.5l-19 -49q-3 -5 -6.5 -8t-11.5 -3h-114q-9 0 -11 6t0 10l36 92q-57 38 -90.5 105.5t-33.5 167.5v220q0 69 22.5 125t63.5 95t98.5 60.5t128.5 21.5h36q22 0 42 -2.5t40 -6.5l18 47q3 5 6.5 8t11.5 3h114q9 0 11 -6t0 -10l-39 -100
q52 -42 80.5 -104.5t28.5 -140.5v-210q0 -83 -24 -144.5t-66.5 -102t-100 -60t-124.5 -19.5h-32zM241 238q0 -26 5 -47.5t13 -39.5l188 482q-20 5 -37 5h-18q-29 0 -56 -10.5t-48 -32t-34 -54t-13 -75.5v-228zM411 72q27 0 54 9.5t48.5 30t34.5 51.5t13 75v228q0 18 -2.5 34
t-6.5 30l-179 -457q5 -1 9 -1h9h20z" />
    <glyph glyph-name="cid676" unicode="&#xde;" horiz-adv-x="683" 
d="M250 649h119q78 0 132 -15t87.5 -47.5t49 -83.5t15.5 -123q0 -76 -16 -128t-51 -84t-89.5 -46t-131.5 -14h-115v-158q0 -6 -3.5 -9t-8.5 -3h-147q-3 0 -7 2t-4 10v809q0 8 4 10t7 2h147q5 0 8.5 -3t3.5 -9v-110zM250 512v-267h107q33 0 56.5 5.5t39.5 19.5t23.5 39.5
t7.5 64.5t-5.5 65.5t-20 42.5t-38.5 23t-60 7h-110z" />
    <glyph glyph-name="cid768" unicode="&#xdf;" horiz-adv-x="707" 
d="M319 -62q-3 0 -6.5 2t-3.5 10v121q0 3 2.5 6.5t8.5 3.5h54q33 0 58.5 5t43.5 18.5t27.5 36.5t9.5 58q0 39 -12 62.5t-31 36t-43 16t-47 3.5h-50q-3 0 -6.5 2t-3.5 10v115q0 3 2.5 6.5t8.5 3.5h49q37 0 60.5 20t23.5 73q0 48 -27 68.5t-84 20.5q-103 0 -103 -96v-590
q0 -6 -3.5 -9t-8.5 -3h-147q-3 0 -7 2t-4 10v610q0 62 22 104t59.5 67.5t87 36.5t104.5 11q56 0 106 -15t87.5 -42.5t59 -66.5t21.5 -87q0 -63 -21 -100.5t-61 -58.5q33 -15 57.5 -33t41 -43t25 -57.5t8.5 -76.5q0 -77 -26 -128t-68.5 -81t-97.5 -41.5t-113 -10.5h-53z" />
    <glyph glyph-name="cid757" unicode="&#xe6;" 
d="M83 455q48 50 103.5 72t118.5 22q60 0 101 -15.5t67 -47.5q32 33 72 48t87 15q68 0 118.5 -20.5t83.5 -57.5t49.5 -87.5t16.5 -111.5v-86h-361q0 -59 33 -88t90 -29q38 0 75.5 13t66.5 39q9 4 14 -1l65 -94q6 -8 -1 -15q-45 -41 -99.5 -61t-126.5 -20q-51 0 -100.5 16.5
t-88.5 57.5q-35 -38 -79.5 -55t-85.5 -18h-62q-33 0 -67 9t-61.5 31t-44.5 57t-17 88q0 65 26 104.5t71 61.5t104.5 29.5t126.5 8.5v9q0 45 -23 65.5t-61 20.5q-32 0 -62 -18.5t-59 -44.5q-8 -6 -16 2l-73 87q-5 9 -1 14zM732 301q0 23 -4.5 44t-16 36.5t-30 25t-45.5 9.5
q-49 0 -72.5 -33.5t-24.5 -81.5h193zM378 201h-13q-27 0 -53.5 -2t-47.5 -10t-34 -24.5t-13 -46.5q0 -33 12.5 -42.5t44.5 -9.5q51 0 77.5 33t26.5 86v16z" />
    <glyph glyph-name="cid759" unicode="&#xf0;" horiz-adv-x="696" 
d="M437 637l123 -183q21 -32 37 -60.5t27 -58t16.5 -60t5.5 -66.5q0 -60 -23.5 -112.5t-64.5 -90.5t-98 -60t-123 -22q-65 0 -121.5 20.5t-97.5 59t-64.5 92t-23.5 119.5q0 58 22.5 106.5t59.5 83t84.5 54t97.5 20.5q22 1 42 0.5t36 -4.5l1 1l-47 67l-34 -28
q-4 -4 -8.5 -7.5t-12.5 -3.5h-134q-9 0 -9.5 6t1.5 10l135 113l-85 122q-2 4 0 10t11 6h148q8 0 11.5 -3t6.5 -8l21 -32l38 32q4 4 8.5 7.5t12.5 3.5h134q9 0 9.5 -6t-1.5 -10zM481 206q0 66 -40.5 105.5t-104.5 39.5q-62 0 -102 -39t-40 -104q0 -68 39.5 -106.5
t104.5 -38.5q33 0 59.5 11t45 30.5t28.5 45.5t10 56z" />
    <glyph glyph-name="cid132" unicode="&#xf7;" horiz-adv-x="761" 
d="M288 661q0 8 2.5 11.5t10.5 3.5h157q11 0 11 -14v-146q0 -6 -3 -10.5t-8 -4.5h-157q-8 0 -10.5 4t-2.5 12v144zM100 286q-10 0 -10 10v120q0 10 10 10h561q10 0 10 -10v-120q0 -10 -10 -10h-561zM288 191q0 8 2.5 11.5t10.5 3.5h157q11 0 11 -14v-146q0 -6 -3 -10.5
t-8 -4.5h-157q-8 0 -10.5 4t-2.5 12v144z" />
    <glyph glyph-name="cid766" unicode="&#xf8;" horiz-adv-x="709" 
d="M532 510q62 -33 94.5 -88.5t32.5 -130.5v-100q0 -58 -20.5 -106t-60 -82t-96 -53t-128.5 -19q-13 0 -24.5 0.5t-22.5 1.5l-57 -146q-3 -5 -6.5 -8t-11.5 -3h-104q-9 0 -11 6t0 10l68 175q-65 32 -100 89.5t-35 132.5v99q0 58 21 106t60 82.5t95.5 53.5t127.5 19
q30 0 57 -3l67 171q3 5 6.5 8t11.5 3h104q9 0 11 -6t0 -10zM217 209q0 -59 26 -94l116 297h-5q-70 0 -103.5 -39t-33.5 -101v-63zM492 274q0 24 -4.5 45t-15.5 38l-112 -288q69 2 100.5 39t31.5 101v65z" />
    <glyph glyph-name="cid769" unicode="&#xfe;" horiz-adv-x="714" 
d="M70 782q0 10 10 10h143q10 0 10 -10v-298q26 31 70 48.5t96 17.5q51 0 97.5 -14.5t81.5 -43t55.5 -71.5t20.5 -100v-152q0 -48 -17.5 -91.5t-50 -76t-79.5 -51.5t-106 -19h-28q-47 0 -82 17.5t-58 40.5v-294q0 -10 -10 -10h-143q-10 0 -10 10v1087zM364 68q35 0 58.5 12
t38 31t20.5 42t6 44v97q0 24 -6 46t-20.5 39.5t-39 28t-61.5 10.5q-61 0 -91.5 -37.5t-30.5 -95.5v-83q0 -23 6.5 -47t21.5 -43.5t39 -31.5t59 -12z" />
    <glyph glyph-name="cid758" unicode="&#x111;" horiz-adv-x="752" 
d="M644 545v-597q0 -10 -10 -10h-133q-10 0 -10 10v59q-13 -17 -32.5 -30.5t-43 -24t-49 -16t-51.5 -5.5q-51 0 -97.5 13t-81.5 39.5t-55.5 68t-20.5 98.5v102q0 48 17.5 90t50 72.5t79.5 48t106 17.5h28q47 0 82 -17.5t58 -40.5v123h-150q-10 0 -10 10v115q0 10 10 10h150
v102q0 10 10 10h143q10 0 10 -10v-102h88q10 0 10 -10v-115q0 -10 -10 -10h-88zM350 343q-35 0 -59 -10.5t-38 -27.5t-20 -38.5t-6 -42.5v-47q0 -24 6 -44.5t20.5 -36t39 -24.5t61.5 -9q61 0 91.5 32.5t30.5 90.5v33q0 23 -7 45.5t-22 40t-39 28t-58 10.5z" />
    <glyph glyph-name="cid669" unicode="&#x126;" horiz-adv-x="789" 
d="M699 640h70q10 0 10 -10v-115q0 -10 -10 -10h-70v-555q0 -6 -3.5 -9t-8.5 -3h-147q-3 0 -7 2t-4 10v316h-269v-316q0 -6 -3.5 -9t-8.5 -3h-147q-3 0 -7 2t-4 10v555h-70q-10 0 -10 10v115q0 10 10 10h70v119q0 8 4 10t7 2h147q5 0 8.5 -3t3.5 -9v-119h269v119q0 8 4 10
t7 2h147q5 0 8.5 -3t3.5 -9v-119zM529 406v99h-269v-99h269z" />
    <glyph glyph-name="cid760" unicode="&#x127;" horiz-adv-x="715" 
d="M262 545v-149h2q10 15 26 30t37 27t48 19.5t59 7.5q58 0 100 -20t69 -53t39.5 -75.5t12.5 -87.5v-296q0 -10 -10 -10h-143q-10 0 -10 10v252q0 26 -2.5 51.5t-12 46t-29 33t-52.5 12.5q-35 0 -60 -12t-41.5 -32t-24.5 -46.5t-8 -55.5v-249q0 -10 -10 -10h-143
q-10 0 -10 10v597h-79q-10 0 -10 10v115q0 10 10 10h79v102q0 10 10 10h143q10 0 10 -10v-102h159q10 0 10 -10v-115q0 -10 -10 -10h-159z" />
    <glyph glyph-name="cid761" unicode="&#x131;" horiz-adv-x="329" 
d="M249 -50q0 -6 -3.5 -9t-8.5 -3h-146q-3 0 -7 2t-4 10v592h169v-592z" />
    <glyph glyph-name="cid670" unicode="&#x132;" horiz-adv-x="871" 
d="M261 -50q0 -6 -3.5 -9t-8.5 -3h-148q-3 0 -7 2t-4 10v809q0 8 4 10t7 2h148q5 0 8.5 -3t3.5 -9v-809zM611 759q0 8 4 10t7 2h147q5 0 8.5 -3t3.5 -9v-527q0 -48 -10 -101t-38.5 -97.5t-78.5 -73.5t-129 -29q-50 0 -87.5 11.5t-65.5 32.5t-47 50.5t-32 65.5q-3 9 4 12
l119 61q3 2 6.5 1.5t5.5 -5.5q17 -45 34.5 -66t51.5 -21q51 0 74 36t23 116v534z" />
    <glyph glyph-name="cid762" unicode="&#x133;" horiz-adv-x="613" 
d="M70 652v190h195v-125q0 -10 -1 -18t-5 -16q-16 -18 -33 -24.5t-31 -6.5h-125zM348 652v190h195v-125q0 -10 -1 -18t-5 -16q-16 -18 -33 -24.5t-31 -6.5h-125zM252 -50q0 -6 -3.5 -9t-8.5 -3h-146q-3 0 -7 2t-4 10v592h169v-592zM530 542v-657q0 -49 -11 -86t-38 -62.5
t-71 -38.5t-110 -13q-13 0 -25 1t-22 4q-13 4 -13 19v105q0 15 14 13q9 -1 18 -1.5t14 -0.5q44 0 59.5 16t15.5 59v642h169z" />
    <glyph glyph-name="cid763" unicode="&#x138;" horiz-adv-x="641" 
d="M233 308l204 224q3 5 6.5 8t11.5 3h152q9 0 12 -5t-1 -11l-217 -241l224 -332q2 -4 0 -10t-11 -6h-154q-8 0 -12 3t-6 8l-144 223l-65 -72v-152q0 -10 -10 -10h-143q-10 0 -10 10v584q0 10 10 10h143q10 0 10 -10v-224z" />
    <glyph glyph-name="cid671" unicode="&#x13f;" horiz-adv-x="578" 
d="M91 -62q-3 0 -7 2t-4 10v809q0 8 4 10t7 2h148q5 0 8.5 -3t3.5 -9v-681h306q6 0 8.5 -3.5t2.5 -6.5v-118q0 -8 -3.5 -10t-6.5 -2h-467zM342 469q0 8 2.5 11.5t10.5 3.5h187q11 0 11 -14v-176q0 -6 -3 -10.5t-8 -4.5h-187q-8 0 -10.5 4t-2.5 12v174z" />
    <glyph glyph-name="cid764" unicode="&#x140;" horiz-adv-x="568" 
d="M251 -50q0 -6 -3.5 -9t-8.5 -3h-148q-3 0 -7 2t-4 10v830q0 8 4 10t7 2h148q5 0 8.5 -3t3.5 -9v-830zM322 469q0 8 2.5 11.5t10.5 3.5h187q11 0 11 -14v-176q0 -6 -3 -10.5t-8 -4.5h-187q-8 0 -10.5 4t-2.5 12v174z" />
    <glyph glyph-name="cid672" unicode="&#x141;" horiz-adv-x="715" 
d="M228 -62q-3 0 -7 2t-4 10v323l-29 -23q-4 -4 -9.5 -7.5t-13.5 -3.5h-154q-9 0 -9.5 6.5t3.5 9.5l212 168v336q0 8 4 10t7 2h148q5 0 8.5 -3t3.5 -9v-200l33 26q4 4 9.5 7.5t13.5 3.5h154q9 0 9.5 -6.5t-3.5 -9.5l-216 -172v-330h306q6 0 8.5 -3.5t2.5 -6.5v-118
q0 -8 -3.5 -10t-6.5 -2h-467z" />
    <glyph glyph-name="cid765" unicode="&#x142;" horiz-adv-x="607" 
d="M395 565l25 20q4 4 9.5 7.5t13.5 3.5h154q9 0 9.5 -6.5t-3.5 -9.5l-208 -165v-465q0 -6 -3.5 -9t-8.5 -3h-148q-3 0 -7 2t-4 10v329l-37 -29q-4 -4 -9.5 -7.5t-13.5 -3.5h-154q-9 0 -9.5 6.5t3.5 9.5l220 174v351q0 8 4 10t7 2h148q5 0 8.5 -3t3.5 -9v-215z" />
    <glyph glyph-name="cid772" unicode="&#x149;" horiz-adv-x="886" 
d="M30 676q0 8 2 11t10 3h181q10 0 10 -13v-145q0 -75 -37.5 -139.5t-97.5 -109.5l-63 59q36 32 55.5 78.5t21.5 91.5h-70q-8 0 -10 3t-2 11v150zM285 -62q-10 0 -10 10v584q0 10 10 10h143q10 0 10 -10v-65q34 34 78 58.5t106 23.5q38 -1 74.5 -11.5t70.5 -36.5
q21 -16 32.5 -35t17.5 -39.5t7.5 -41.5t1.5 -41v-396q0 -3 -2.5 -6.5t-7.5 -3.5h-147q-10 0 -10 10v365q0 33 -9.5 52.5t-24.5 30t-33.5 13.5t-36.5 3q-27 0 -48 -11.5t-35.5 -31.5t-22 -46t-7.5 -54v-321q0 -10 -10 -10h-147z" />
    <glyph glyph-name="cid678" unicode="&#x14a;" horiz-adv-x="806" 
d="M238 505l5 -72v-483q0 -6 -3.5 -9t-8.5 -3h-140q-3 0 -7 2t-4 10v806q0 6 3.5 10.5t11.5 4.5h144q13 0 19 -11l311 -553l-6 68v484q0 8 4 10t7 2h140q5 0 8.5 -3t3.5 -9v-806q0 -48 -13.5 -96t-43.5 -86t-79 -62t-120 -24q-50 0 -87.5 11.5t-65.5 32.5t-47 50.5t-32 65.5
q-3 9 4 12l119 61q3 2 6.5 1.5t5.5 -5.5q17 -45 34.5 -66t51.5 -21q44 0 67 27.5t28 87.5z" />
    <glyph glyph-name="cid771" unicode="&#x14b;" horiz-adv-x="671" 
d="M70 -62q-10 0 -10 10v584q0 10 10 10h143q10 0 10 -10v-65q34 34 78 58.5t106 23.5q38 -1 74.5 -11.5t70.5 -36.5q21 -16 32.5 -35t17.5 -39.5t7.5 -41.5t1.5 -41v-459q0 -49 -11 -86t-38 -62.5t-71 -38.5t-110 -13q-13 0 -25 1t-22 4q-13 4 -13 19v105q0 15 14 13
q9 -1 18 -1.5t14 -0.5q45 0 61 16t16 59v413q0 33 -9.5 52.5t-24.5 30t-33.5 13.5t-36.5 3q-27 0 -48 -11.5t-35.5 -31.5t-22 -46t-7.5 -54v-321q0 -10 -10 -10h-147z" />
    <glyph glyph-name="cid674" unicode="&#x152;" 
d="M630 294v-216h277q6 0 8.5 -3.5t2.5 -6.5v-118q0 -8 -3.5 -10t-6.5 -2h-414q-19 -3 -38 -5t-39 -2h-32q-67 0 -124.5 19.5t-100 60t-66.5 102t-24 144.5v220q0 69 22.5 125t63.5 95t98.5 60.5t128.5 21.5h36q40 0 80 -8h408q6 0 8.5 -3.5t2.5 -6.5v-118q0 -8 -3.5 -10
t-6.5 -2h-278v-198h252q6 0 8.5 -3.5t2.5 -6.5v-117q0 -8 -3.5 -10t-6.5 -2h-253zM411 72q23 0 49 8v550q-26 8 -50 8h-18q-29 0 -56 -10.5t-48 -32t-34 -54t-13 -75.5v-228q0 -44 13 -75t34.5 -51.5t48.5 -30t54 -9.5h20z" />
    <glyph glyph-name="cid767" unicode="&#x153;" 
d="M556 186v-6q3 -111 116 -111q42 0 72.5 13t59.5 39q9 4 14 -1l65 -94q6 -8 -1 -15q-45 -41 -94 -61t-122 -20q-51 0 -99 15t-86 47q-31 -29 -75.5 -45t-101.5 -16q-62 0 -109.5 18.5t-79.5 52.5t-48.5 81.5t-16.5 105.5v99q0 58 16 106t48 82.5t79.5 53.5t110.5 19
q58 0 101.5 -15t75.5 -43q32 28 72.5 43t88.5 15q67 0 115.5 -20.5t80 -57.5t47 -87.5t15.5 -111.5v-86h-344zM732 301q0 23 -3.5 44t-13.5 36.5t-26.5 25t-42.5 9.5q-47 0 -68 -33.5t-22 -81.5h176zM395 274q0 31 -4 56.5t-14 43.5t-27.5 28t-45.5 10q-27 0 -43.5 -10.5
t-26.5 -29t-13.5 -44t-3.5 -56.5v-63q0 -32 3.5 -58t13 -44t26.5 -28t44 -10q52 0 70.5 33.5t20.5 93.5v78z" />
    <glyph glyph-name="cid677" unicode="&#x166;" horiz-adv-x="640" 
d="M410 424h151q10 0 10 -10v-120q0 -10 -10 -10h-151v-334q0 -6 -3.5 -9t-8.5 -3h-147q-3 0 -7 2t-4 10v334h-160q-10 0 -10 10v120q0 10 10 10h160v207h-210q-3 0 -6.5 2t-3.5 10v118q0 3 2.5 6.5t8.5 3.5h578q6 0 8.5 -3.5t2.5 -6.5v-118q0 -8 -3.5 -10t-6.5 -2h-200
v-207z" />
    <glyph glyph-name="cid770" unicode="&#x167;" horiz-adv-x="409" 
d="M255 542h133q6 0 8.5 -4t2.5 -7v-113q0 -3 -2 -7t-9 -4h-133v-78h134q10 0 10 -10v-115q0 -10 -10 -10h-134v-48q0 -25 4 -40.5t13 -24.5t24 -12t37 -3h53q6 0 8.5 -4t2.5 -7v-113q0 -3 -2 -7t-9 -4h-88q-56 0 -95.5 11t-64.5 36t-36.5 65t-11.5 98v53h-63q-10 0 -10 10
v115q0 10 10 10h63v78h-62q-7 0 -9 4t-2 7v113q0 3 2.5 7t8.5 4h62v134q0 10 10 10h145q10 0 10 -10v-134z" />
    <glyph glyph-name="cid201" unicode="&#x2c7;" horiz-adv-x="450" 
d="M191 647q-11 0 -17 8l-132 169q-2 3 -0.5 6t6.5 3h111q10 0 16 -8l50 -73l50 73q6 8 16 8h111q5 0 6.5 -3t-0.5 -6l-132 -169q-6 -8 -17 -8h-68z" />
    <glyph glyph-name="cid210" unicode="&#x2d0;" horiz-adv-x="400" 
d="M335 665l-136 -221l-134 221h270zM65 34l134 221l136 -221h-270z" />
    <glyph glyph-name="cid210" unicode="&#x2236;" horiz-adv-x="400" 
d="M335 665l-136 -221l-134 221h270zM65 34l134 221l136 -221h-270z" />
    <glyph glyph-name="cid202" unicode="&#x2d8;" horiz-adv-x="450" 
d="M401 825q-3 -40 -18.5 -71.5t-39.5 -53.5t-54.5 -33.5t-63.5 -11.5q-39 0 -69.5 13t-53 36t-36 54t-17.5 67q0 8 9 8h107q8 0 9.5 -2t1.5 -7q2 -34 15.5 -53.5t33.5 -19.5t33.5 19.5t15.5 53.5q0 5 1.5 7t9.5 2h107q10 0 9 -8z" />
    <glyph glyph-name="cid205" unicode="&#x2d9;" horiz-adv-x="300" 
d="M74 818q0 8 2.5 11.5t10.5 3.5h127q11 0 11 -14v-116q0 -6 -3 -10.5t-8 -4.5h-127q-8 0 -10.5 4t-2.5 12v114z" />
    <glyph glyph-name="cid204" unicode="&#x2da;" horiz-adv-x="450" 
d="M83 730q0 31 12.5 55.5t33 41.5t45.5 26.5t51 9.5t51.5 -9.5t45.5 -26.5t32.5 -41.5t12.5 -55.5t-12.5 -56t-32.5 -43t-45.5 -27.5t-51.5 -9.5t-51 9.5t-45.5 27.5t-33 43t-12.5 56zM184 730q0 -19 10.5 -32t30.5 -13t31 13.5t11 31.5q0 20 -11 31.5t-31 11.5
q-19 0 -30 -12.5t-11 -30.5z" />
    <glyph glyph-name="cid207" unicode="&#x2db;" horiz-adv-x="329" 
d="M162 42q10 6 19 -3l64 -60q8 -8 -1 -14q-32 -22 -48 -45.5t-16 -43.5q0 -47 53 -47h55q11 0 11 -12v-93q0 -11 -11 -11h-46q-37 0 -73 5t-64.5 21t-46.5 44.5t-18 75.5q0 29 9.5 55.5t26 50t39 43t47.5 34.5z" />
    <glyph glyph-name="cid200" unicode="&#x2dc;" horiz-adv-x="450" 
d="M420 785q10 -5 5 -16q-26 -63 -60 -86t-67 -23q-26 0 -50 12t-42 28l-22.5 18t-23.5 10q-22 0 -45 -48q-6 -12 -16 -7l-70 47q-4 3 -6 7.5t2 11.5q26 52 59.5 76.5t75.5 24.5q26 0 49 -11.5t38 -25.5q11 -11 22.5 -18t22.5 -7t17.5 12t19.5 37q5 10 14 5z" />
    <glyph glyph-name="cid203" unicode="&#x2dd;" horiz-adv-x="450" 
d="M38 637q-11 0 -8 12l66 200q4 13 17 13h120q12 0 5 -14l-108 -200q-3 -6 -7.5 -8.5t-13.5 -2.5h-71zM218 637q-11 0 -8 12l66 200q4 13 17 13h120q12 0 5 -14l-108 -200q-3 -6 -7.5 -8.5t-13.5 -2.5h-71z" />
    <glyph glyph-name="cid471" unicode="&#x391;" horiz-adv-x="769" 
d="M753 -46q2 -4 0 -10t-11 -6h-133q-8 0 -12 3t-6 8l-57 172h-299l-57 -172q-2 -5 -6 -8t-12 -3h-133q-9 0 -11 6t0 10l286 806q3 11 14 11h138q11 0 14 -11zM280 257h209l-104 321z" />
    <glyph glyph-name="cid472" unicode="&#x392;" horiz-adv-x="700" 
d="M428 771q42 0 81 -11.5t69 -37t48 -66t18 -99.5q0 -73 -31 -118t-83 -65v-2q67 -11 103.5 -62.5t36.5 -137.5q0 -69 -20 -114.5t-53.5 -72t-77.5 -37t-91 -10.5h-337q-3 0 -7 2t-4 10v806q0 6 3.5 10.5t11.5 4.5h333zM250 428h146q50 0 68.5 27t18.5 80q0 55 -19 78
t-72 23h-142v-208zM250 73h140q24 0 44.5 4t36 16t24.5 34t9 58q0 31 -4.5 52.5t-16 35t-31.5 19.5t-51 6h-151v-225z" />
    <glyph glyph-name="cid473" unicode="&#x393;" horiz-adv-x="620" 
d="M91 -62q-3 0 -7 2t-4 10v806q0 5 3 10t11 5h505q6 0 8.5 -3.5t2.5 -6.5v-118q0 -8 -3.5 -10t-6.5 -2h-350v-681q0 -6 -3.5 -9t-8.5 -3h-147z" />
    <glyph glyph-name="cid474" unicode="&#x394;" horiz-adv-x="769" 
d="M27 -62q-9 0 -11 6t0 10l286 806q3 11 14 11h138q11 0 14 -11l285 -806q2 -4 0 -10t-11 -6h-715zM219 74h331l-165 504z" />
    <glyph glyph-name="cid475" unicode="&#x395;" horiz-adv-x="641" 
d="M250 294v-216h340q6 0 8.5 -3.5t2.5 -6.5v-118q0 -8 -3.5 -10t-6.5 -2h-500q-3 0 -7 2t-4 10v806q0 6 3.5 10.5t11.5 4.5h495q6 0 8.5 -3.5t2.5 -6.5v-118q0 -8 -3.5 -10t-6.5 -2h-341v-198h311q6 0 8.5 -3.5t2.5 -6.5v-117q0 -8 -3.5 -10t-6.5 -2h-312z" />
    <glyph glyph-name="cid476" unicode="&#x396;" horiz-adv-x="605" 
d="M376 631h-326q-3 0 -6.5 2t-3.5 10v118q0 3 2.5 6.5t8.5 3.5h511q13 0 13 -13v-94q0 -11 -7 -23l-344 -563h339q3 0 6.5 -2t3.5 -10v-118q0 -3 -2.5 -6.5t-8.5 -3.5h-520q-12 0 -12 12v94q0 11 6 22z" />
    <glyph glyph-name="cid477" unicode="&#x397;" horiz-adv-x="769" 
d="M689 -50q0 -6 -3.5 -9t-8.5 -3h-147q-3 0 -7 2t-4 10v346h-269v-346q0 -6 -3.5 -9t-8.5 -3h-147q-3 0 -7 2t-4 10v809q0 8 4 10t7 2h147q5 0 8.5 -3t3.5 -9v-323h269v323q0 8 4 10t7 2h147q5 0 8.5 -3t3.5 -9v-809z" />
    <glyph glyph-name="cid478" unicode="&#x398;" horiz-adv-x="802" 
d="M385 -69q-67 0 -124.5 19.5t-100 60t-66.5 102t-24 144.5v220q0 69 22.5 125t63.5 95t98.5 60.5t128.5 21.5h36q71 0 128.5 -23t98.5 -64t63.5 -98.5t22.5 -126.5v-210q0 -83 -24 -144.5t-66.5 -102t-100 -60t-124.5 -19.5h-32zM411 72q27 0 54 9.5t48.5 30t34.5 51.5
t13 75v228q0 43 -13 75.5t-34 54t-48 32t-56 10.5h-18q-29 0 -56 -10.5t-48 -32t-34 -54t-13 -75.5v-228q0 -44 13 -75t34.5 -51.5t48.5 -30t54 -9.5h20zM301 294q-10 0 -10 10v120q0 10 10 10h200q10 0 10 -10v-120q0 -10 -10 -10h-200z" />
    <glyph glyph-name="cid479" unicode="&#x399;" horiz-adv-x="351" 
d="M261 -50q0 -6 -3.5 -9t-8.5 -3h-148q-3 0 -7 2t-4 10v809q0 8 4 10t7 2h148q5 0 8.5 -3t3.5 -9v-809z" />
    <glyph glyph-name="cid480" unicode="&#x39a;" horiz-adv-x="719" 
d="M436 424l267 -470q2 -4 0 -10t-11 -6h-149q-8 0 -12 3t-6 8l-194 351l-81 -105v-245q0 -6 -3.5 -9t-8.5 -3h-147q-3 0 -7 2t-4 10v809q0 8 4 10t7 2h147q5 0 8.5 -3t3.5 -9v-350l262 351q3 5 6.5 8t11.5 3h146q9 0 12 -5t-1 -11z" />
    <glyph glyph-name="cid481" unicode="&#x39b;" horiz-adv-x="769" 
d="M178 -51q-2 -5 -6 -8t-12 -3h-133q-9 0 -11 6t0 10l286 806q3 11 14 11h138q11 0 14 -11l285 -806q2 -4 0 -10t-11 -6h-133q-8 0 -12 3t-6 8l-206 629z" />
    <glyph glyph-name="cid482" unicode="&#x39c;" horiz-adv-x="949" 
d="M538 65h-127l-180 461l10 -66v-510q0 -6 -3.5 -9t-8.5 -3h-138q-3 0 -7 2t-4 10v806q0 6 3.5 10.5t11.5 4.5h168q14 0 20 -15l191 -464l192 464q6 15 20 15h168q8 0 11.5 -4.5t3.5 -10.5v-806q0 -8 -4 -10t-7 -2h-138q-5 0 -8.5 3t-3.5 9v510l10 66z" />
    <glyph glyph-name="cid483" unicode="&#x39d;" horiz-adv-x="806" 
d="M238 505l5 -72v-483q0 -6 -3.5 -9t-8.5 -3h-140q-3 0 -7 2t-4 10v806q0 6 3.5 10.5t11.5 4.5h144q13 0 19 -11l311 -553l-6 68v484q0 8 4 10t7 2h140q5 0 8.5 -3t3.5 -9v-806q0 -6 -3.5 -10.5t-11.5 -4.5h-143q-14 0 -19 11z" />
    <glyph glyph-name="cid484" unicode="&#x39e;" horiz-adv-x="641" 
d="M50 631q-3 0 -6.5 2t-3.5 10v118q0 3 2.5 6.5t8.5 3.5h539q6 0 8.5 -3.5t2.5 -6.5v-118q0 -8 -3.5 -10t-6.5 -2h-541zM561 433q6 0 8.5 -3.5t2.5 -6.5v-117q0 -8 -3.5 -10t-6.5 -2h-483q-3 0 -6.5 2t-3.5 10v117q0 3 2.5 6.5t8.5 3.5h481zM50 -62q-3 0 -6.5 2t-3.5 10
v118q0 3 2.5 6.5t8.5 3.5h539q6 0 8.5 -3.5t2.5 -6.5v-118q0 -8 -3.5 -10t-6.5 -2h-541z" />
    <glyph glyph-name="cid485" unicode="&#x39f;" horiz-adv-x="802" 
d="M385 -69q-67 0 -124.5 19.5t-100 60t-66.5 102t-24 144.5v220q0 69 22.5 125t63.5 95t98.5 60.5t128.5 21.5h36q71 0 128.5 -23t98.5 -64t63.5 -98.5t22.5 -126.5v-210q0 -83 -24 -144.5t-66.5 -102t-100 -60t-124.5 -19.5h-32zM411 72q27 0 54 9.5t48.5 30t34.5 51.5
t13 75v228q0 43 -13 75.5t-34 54t-48 32t-56 10.5h-18q-29 0 -56 -10.5t-48 -32t-34 -54t-13 -75.5v-228q0 -44 13 -75t34.5 -51.5t48.5 -30t54 -9.5h20z" />
    <glyph glyph-name="cid486" unicode="&#x3a0;" horiz-adv-x="740" 
d="M502 -62q-5 0 -8.5 3t-3.5 9v681h-240v-681q0 -6 -3.5 -9t-8.5 -3h-147q-3 0 -7 2t-4 10v806q0 5 3 10t11 5h552q8 0 11 -5t3 -10v-806q0 -8 -4 -10t-7 -2h-147z" />
    <glyph glyph-name="cid487" unicode="&#x3a1;" horiz-adv-x="683" 
d="M250 230v-280q0 -6 -3.5 -9t-8.5 -3h-147q-3 0 -7 2t-4 10v806q0 6 3.5 10.5t11.5 4.5h274q78 0 132 -15t87.5 -47.5t49 -83.5t15.5 -123q0 -76 -16 -128t-51 -84t-89.5 -46t-131.5 -14h-115zM357 367q33 0 56.5 5.5t39.5 19.5t23.5 39.5t7.5 64.5t-5.5 65.5t-20 42.5
t-38.5 23t-60 7h-110v-267h107z" />
    <glyph glyph-name="cid488" unicode="&#x3a3;" horiz-adv-x="605" 
d="M50 -62v139l263 290l-261 283v121h502q6 0 8.5 -3.5t2.5 -6.5v-118q0 -8 -3.5 -10t-6.5 -2h-278l230 -263l-257 -290h304q6 0 8.5 -3.5t2.5 -6.5v-118q0 -8 -3.5 -10t-6.5 -2h-505z" />
    <glyph glyph-name="cid489" unicode="&#x3a4;" horiz-adv-x="640" 
d="M410 -50q0 -6 -3.5 -9t-8.5 -3h-147q-3 0 -7 2t-4 10v681h-210q-3 0 -6.5 2t-3.5 10v118q0 3 2.5 6.5t8.5 3.5h578q6 0 8.5 -3.5t2.5 -6.5v-118q0 -8 -3.5 -10t-6.5 -2h-200v-681z" />
    <glyph glyph-name="cid490" unicode="&#x3a5;" horiz-adv-x="720" 
d="M536 760q2 5 6 8t12 3h144q9 0 11 -6t0 -10l-264 -472v-333q0 -6 -3.5 -9t-8.5 -3h-147q-3 0 -7 2t-4 10v333l-264 472q-2 4 0 10t11 6h144q8 0 12 -3t6 -8l176 -331z" />
    <glyph glyph-name="cid491" unicode="&#x3a6;" horiz-adv-x="912" 
d="M541 639q68 -2 123.5 -22t95 -55.5t61 -85t21.5 -109.5v-10q0 -74 -23 -127.5t-63 -88t-95.5 -52t-119.5 -18.5v-121q0 -6 -3.5 -9t-8.5 -3h-148q-3 0 -7 2t-4 10v121q-65 1 -119.5 18.5t-95 52t-63 88t-22.5 127.5v20q0 60 21.5 107.5t60.5 81.5t94.5 52.5t123.5 20.5
v120q0 8 4 10t7 2h148q5 0 8.5 -3t3.5 -9v-120zM239 338q0 -33 11 -56t29.5 -38t42 -23t48.5 -10v288q-26 -3 -49.5 -11.5t-41.5 -25t-29 -40t-11 -56.5v-28zM673 366q0 33 -11 56.5t-29 40t-42 25t-50 11.5v-288q25 2 48.5 9.5t42 22.5t30 38.5t11.5 56.5v28z" />
    <glyph glyph-name="cid492" unicode="&#x3a7;" horiz-adv-x="676" 
d="M192 -51q-3 -5 -6.5 -8t-11.5 -3h-150q-9 0 -11 6t0 10l238 414l-229 387q-2 4 0 10t11 6h144q8 0 12 -3t6 -8l143 -261l143 261q2 5 6 8t12 3h144q9 0 11 -6t0 -10l-229 -387l238 -414q2 -4 0 -10t-11 -6h-150q-8 0 -11.5 3t-6.5 8l-146 269z" />
    <glyph glyph-name="cid493" unicode="&#x3a8;" horiz-adv-x="859" 
d="M620 759q0 8 4 10t7 2h146q5 0 8.5 -3t3.5 -9v-339q0 -127 -67 -197.5t-207 -87.5v-185q0 -6 -3.5 -9t-8.5 -3h-148q-3 0 -7 2t-4 10v185q-141 17 -207.5 88t-66.5 197v339q0 8 4 10t7 2h146q5 0 8.5 -3t3.5 -9v-343q0 -58 27.5 -90.5t77.5 -46.5v480q0 8 4 10t7 2h148
q5 0 8.5 -3t3.5 -9v-480q49 14 77 46.5t28 90.5v343z" />
    <glyph glyph-name="cid494" unicode="&#x3a9;" horiz-adv-x="850" 
d="M425 779q80 0 145.5 -24.5t112 -71.5t72 -114.5t25.5 -154.5q0 -104 -36 -181.5t-121 -132.5v-22h143q6 0 8.5 -3.5t2.5 -6.5v-118q0 -8 -3.5 -10t-6.5 -2h-292q-12 0 -12 12v200q0 13 16 20q43 18 69 44.5t40 58.5t18.5 68t4.5 73q0 102 -49 159.5t-137 57.5t-137 -57.5
t-49 -159.5q0 -37 4.5 -73t18.5 -68t40 -58.5t69 -44.5q16 -7 16 -20v-200q0 -12 -12 -12h-292q-3 0 -6.5 2t-3.5 10v118q0 3 2.5 6.5t8.5 3.5h143v22q-85 55 -121 132.5t-36 181.5q0 87 25.5 154.5t72 114.5t112 71.5t145.5 24.5z" />
    <glyph glyph-name="cid495" unicode="&#x3b1;" horiz-adv-x="641" 
d="M83 455q48 50 112 72t130 22q80 0 130 -22.5t78 -58.5t38 -80.5t10 -89.5v-350q0 -10 -10 -10h-141q-10 0 -10 10v46q-26 -27 -67 -45t-93 -18q-33 0 -70 9t-68 31t-51.5 57t-20.5 88q0 65 31.5 104.5t83 61.5t116.5 29.5t132 8.5v9q0 45 -26.5 65.5t-72.5 20.5
q-39 0 -74.5 -18.5t-66.5 -44.5q-8 -6 -16 2l-73 87q-5 9 -1 14zM413 201h-10q-31 0 -64 -2t-60 -10t-44.5 -24.5t-17.5 -46.5q0 -33 22.5 -42.5t54.5 -9.5q65 0 92 33t27 86v16z" />
    <glyph glyph-name="cid496" unicode="&#x3b2;" horiz-adv-x="707" 
d="M319 -62q-3 0 -6.5 2t-3.5 10v121q0 3 2.5 6.5t8.5 3.5h54q33 0 58.5 5t43.5 18.5t27.5 36.5t9.5 58q0 39 -12 62.5t-31 36t-43 16t-47 3.5h-50q-3 0 -6.5 2t-3.5 10v115q0 3 2.5 6.5t8.5 3.5h49q37 0 60.5 20t23.5 73q0 48 -27 68.5t-84 20.5q-103 0 -103 -96v-843
q0 -6 -3.5 -9t-8.5 -3h-147q-3 0 -7 2t-4 10v863q0 62 22 104t59.5 67.5t87 36.5t104.5 11q56 0 106 -15t87.5 -42.5t59 -66.5t21.5 -87q0 -63 -21 -100.5t-61 -58.5q33 -15 57.5 -33t41 -43t25 -57.5t8.5 -76.5q0 -77 -26 -128t-68.5 -81t-97.5 -41.5t-113 -10.5h-53z" />
    <glyph glyph-name="cid497" unicode="&#x3b3;" horiz-adv-x="713" 
d="M375 221l168 321h165l-278 -463q25 -58 45.5 -119t20.5 -123q0 -32 -14 -62t-39.5 -53t-60.5 -37.5t-76 -14.5q-47 0 -82 12t-58 32.5t-34.5 47.5t-11.5 58q0 29 9 58.5t28 63t49 73.5t72 91l-96 263q-6 23 -12.5 31.5t-17.5 8.5q-13 0 -31 -13.5t-39 -43.5l-85 100
q41 50 80.5 74t90.5 24q36 0 62 -10.5t44 -29.5t29.5 -45.5t20.5 -59.5zM356 -163q2 21 -3 53t-25 74q-11 -14 -23 -31.5t-22 -35.5t-16 -34.5t-6 -29.5q0 -24 13 -34t30 -10t33.5 10.5t18.5 37.5z" />
    <glyph glyph-name="cid498" unicode="&#x3b4;" horiz-adv-x="669" 
d="M619 191q0 -58 -19 -106t-55.5 -82t-89.5 -53t-121 -19q-67 0 -119.5 18.5t-89 52.5t-56 81.5t-19.5 105.5v99q0 69 26.5 123.5t77.5 88.5q-28 23 -41 47.5t-13 63.5q0 40 14.5 73t44 57t74.5 37.5t106 13.5q79 0 138 -24t115 -68q10 -7 3 -17l-66 -86q-8 -10 -16 -2
q-26 21 -47 34.5t-41.5 21.5t-41 11.5t-45.5 3.5q-47 0 -65 -16t-18 -36t16.5 -39.5t60.5 -25.5h2q69 0 122 -18.5t89 -52t55 -81.5t19 -106v-100zM452 274q0 63 -26.5 100.5t-91.5 37.5q-31 0 -53 -10.5t-36.5 -29t-21 -44t-6.5 -56.5v-63q0 -64 26.5 -102t90.5 -38
q65 0 91.5 37.5t26.5 102.5v65z" />
    <glyph glyph-name="cid499" unicode="&#x3b5;" horiz-adv-x="536" 
d="M369 226q-36 0 -65 -5t-49.5 -16.5t-31.5 -30t-10 -44.5q2 -38 22.5 -52t55.5 -14q48 0 78.5 23.5t46.5 51.5q6 10 14 5l79 -87q8 -4 4 -12q-35 -59 -94 -85.5t-134 -26.5q-51 0 -94.5 14t-75 39t-49 60t-17.5 76q0 76 35 120t91 60l-90 111q-5 6 -7 9.5t-2 11.5v101
q0 7 9 7h395q8 0 8 -7v-115q0 -5 -3 -7t-5 -2h-217l106 -122v-63z" />
    <glyph glyph-name="cid500" unicode="&#x3b6;" horiz-adv-x="675" 
d="M65 665q-14 3 -14 16v115q0 7 2.5 10.5t12.5 1.5q28 -5 60 -10t64.5 -9.5t64 -7.5t60.5 -3q52 0 109 6.5t122 20.5q7 2 10 -1.5t3 -8.5v-113q0 -6 -2 -9.5t-10 -5.5q-53 -11 -93 -17t-81 -8q-86 -75 -122 -147t-43 -136q-2 -20 -3.5 -38t-1.5 -33q0 -62 16.5 -98
t46.5 -55t72.5 -25.5t95.5 -9.5q117 -8 165 -62.5t42 -141.5q-2 -22 -6 -46.5t-15.5 -48t-33 -44.5t-58 -37t-91.5 -25.5t-133 -9.5q-10 0 -12 4.5t-2 9.5v124q0 6 2 9.5t10 3.5q47 0 78.5 3t50 9.5t27 17.5t9.5 28q2 28 -8.5 44t-44.5 16q-93 0 -163 17t-117 56.5
t-70.5 103.5t-23.5 158q0 22 1 45t4 47q8 57 40.5 125.5t90.5 140.5q-57 6 -111 18z" />
    <glyph glyph-name="cid501" unicode="&#x3b7;" horiz-adv-x="671" 
d="M70 -62q-10 0 -10 10v584q0 10 10 10h143q10 0 10 -10v-65q34 34 78 58.5t106 23.5q38 -1 74.5 -11.5t70.5 -36.5q21 -16 32.5 -35t17.5 -39.5t7.5 -41.5t1.5 -41v-649q0 -3 -2.5 -6.5t-7.5 -3.5h-147q-10 0 -10 10v618q0 33 -9.5 52.5t-24.5 30t-33.5 13.5t-36.5 3
q-27 0 -48 -11.5t-35.5 -31.5t-22 -46t-7.5 -54v-321q0 -10 -10 -10h-147z" />
    <glyph glyph-name="cid502" unicode="&#x3b8;" horiz-adv-x="669" 
d="M619 191q0 -58 -19 -106t-55.5 -82t-89.5 -53t-121 -19q-67 0 -119.5 18.5t-89 52.5t-56 81.5t-19.5 105.5v329q0 58 19 106t55.5 82.5t89.5 53.5t120 19q69 0 122 -18.5t89 -52t55 -81.5t19 -106v-330zM217 434h235v70q0 63 -26.5 100.5t-91.5 37.5q-31 0 -53 -10.5
t-36.5 -29t-21 -44t-6.5 -56.5v-68zM452 294h-235v-85q0 -64 26.5 -102t90.5 -38q65 0 91.5 37.5t26.5 102.5v85z" />
    <glyph glyph-name="cid503" unicode="&#x3b9;" horiz-adv-x="335" 
d="M252 -50q0 -6 -3.5 -9t-8.5 -3h-146q-3 0 -7 2t-4 10v592h169v-592z" />
    <glyph glyph-name="cid504" unicode="&#x3ba;" horiz-adv-x="633" 
d="M233 312q35 44 68.5 89.5t58.5 80.5q26 37 50 52.5t59 16.5q26 1 61.5 -8.5t67.5 -29.5q10 -6 4 -16l-57 -92q-3 -5 -7 -6.5t-9 3.5q-28 17 -39 17t-22 -18q-15 -25 -34 -52.5t-40 -53.5l231 -341q2 -4 0 -10t-11 -6h-154q-8 0 -12 3t-6 8l-152 233l-57 -61v-173
q0 -10 -10 -10h-143q-10 0 -10 10v584q0 10 10 10h143q10 0 10 -10v-220z" />
    <glyph glyph-name="cid505" unicode="&#x3bb;" horiz-adv-x="743" 
d="M305 304l-131 -355q-2 -5 -6 -8t-12 -3h-134q-9 0 -11 6t0 10l219 534l-39 98q-14 38 -32 52.5t-45 14.5h-55q-14 0 -14 12v114q0 13 14 13h70q33 0 64.5 -6.5t54.5 -23.5q24 -17 45 -44.5t32 -59.5l219 -540q10 -25 19.5 -35t17.5 -10q14 0 30.5 15.5t35.5 42.5
q5 8 11 7.5t10 -5.5l60 -88q10 -15 2 -26q-34 -45 -72.5 -66.5t-92.5 -21.5q-32 0 -55.5 7.5t-42.5 23t-34.5 41t-30.5 61.5z" />
    <glyph glyph-name="cid506" unicode="&#x3bc;" horiz-adv-x="691" 
d="M621 542q10 0 10 -10v-584q0 -10 -10 -10h-143q-10 0 -10 10v65q-10 -35 -44.5 -58.5t-80.5 -23.5q-47 0 -71 16t-39 42v-294q0 -10 -10 -10h-143q-10 0 -10 10v837q0 10 10 10h143q10 0 10 -10v-340q0 -23 4 -45.5t15.5 -40t31 -28t50.5 -10.5q28 0 51.5 10.5t41 29
t27.5 45t10 58.5v321q0 10 10 10h147z" />
    <glyph glyph-name="cid507" unicode="&#x3bd;" horiz-adv-x="566" 
d="M236 -62q-10 0 -13 8l-212 580q-2 4 0 10t11 6h133q8 0 12 -3t6 -8l136 -425h1q47 96 67.5 197t19.5 224q0 15 13 15h125q12 0 13 -17q4 -85 -9.5 -170t-38.5 -161.5t-57.5 -139.5t-67.5 -104q-5 -6 -8 -9t-8 -3h-123z" />
    <glyph glyph-name="cid508" unicode="&#x3be;" horiz-adv-x="647" 
d="M72 795q0 13 14 10q60 -13 112 -20t100 -7q45 0 96.5 7t110.5 18q13 1 13 -11v-109q0 -13 -13 -15q-65 -14 -114 -19t-91 -6q-13 -15 -19.5 -34t-6.5 -36q0 -32 15.5 -51.5t62.5 -19.5h142q11 0 11 -12v-113q0 -10 -11 -10h-121q-29 0 -50.5 -4.5t-41.5 -14.5
q-43 -20 -56.5 -55.5t-11.5 -92.5q1 -39 17.5 -62t42.5 -36t58 -18t64 -8q66 -7 112 -21.5t74.5 -37.5t41 -56t11.5 -77q0 -19 -4.5 -41.5t-17 -44.5t-35 -42.5t-59 -36t-89 -25t-125.5 -9.5q-9 0 -10.5 3t-1.5 8v115q0 8 2 12t12 4q85 0 125 13t40 44q0 26 -24 38t-66 14
q-65 3 -123.5 16.5t-103.5 43t-73 78t-31 122.5q-3 91 28 148.5t86 92.5q-33 23 -44 57.5t-11 73.5q0 22 8 46t18 43q-11 2 -24.5 5.5t-27.5 7.5q-11 3 -11 16v109z" />
    <glyph glyph-name="cid509" unicode="&#x3bf;" horiz-adv-x="669" 
d="M619 191q0 -58 -19 -106t-55.5 -82t-89.5 -53t-121 -19q-67 0 -119.5 18.5t-89 52.5t-56 81.5t-19.5 105.5v99q0 58 19 106t55.5 82.5t89.5 53.5t120 19q69 0 122 -18.5t89 -52t55 -81.5t19 -106v-100zM452 274q0 63 -26.5 100.5t-91.5 37.5q-31 0 -53 -10.5t-36.5 -29
t-21 -44t-6.5 -56.5v-63q0 -64 26.5 -102t90.5 -38q65 0 91.5 37.5t26.5 102.5v65z" />
    <glyph glyph-name="cid510" unicode="&#x3c0;" horiz-adv-x="768" 
d="M576 409v-282q0 -32 11.5 -46.5t24.5 -14.5q14 0 41.5 10.5t56.5 27.5q8 5 11.5 3.5t7.5 -9.5l28 -105q2 -7 1.5 -12t-8.5 -9q-30 -24 -68 -32.5t-74 -8.5t-70 9t-60 30.5t-41.5 57t-15.5 88.5v293h-97q-5 -68 -10.5 -128t-19.5 -115q-18 -68 -55.5 -128t-109.5 -119
q-11 -10 -20 1l-74 98q-5 9 -4 12t6 6q53 37 79 88.5t37 113.5q8 40 10 83t3 88h-128q-3 0 -6.5 2t-3.5 10v111q0 3 2.5 6.5t8.5 3.5h664q6 0 8.5 -3.5t2.5 -6.5v-111q0 -8 -3.5 -10t-6.5 -2h-128z" />
    <glyph glyph-name="cid511" unicode="&#x3c1;" horiz-adv-x="714" 
d="M70 532q0 10 10 10h133q10 0 10 -10v-58q13 16 32.5 30t42.5 24.5t49 16t52 5.5q51 0 97.5 -14.5t81.5 -43t55.5 -71.5t20.5 -100v-152q0 -48 -17.5 -91.5t-50 -76t-79.5 -51.5t-106 -19h-28q-47 0 -82 17.5t-58 40.5v-294q0 -10 -10 -10h-143q-10 0 -10 10v837zM364 68
q35 0 58.5 12t38 31t20.5 42t6 44v97q0 24 -6 46t-20.5 39.5t-39 28t-61.5 10.5q-61 0 -91.5 -37.5t-30.5 -95.5v-83q0 -23 6.5 -47t21.5 -43.5t39 -31.5t59 -12z" />
    <glyph glyph-name="cid512" unicode="&#x3c3;" horiz-adv-x="711" 
d="M581 408q18 -30 28 -64t10 -70v-83q0 -58 -19 -106t-55.5 -82t-89.5 -53t-121 -19q-67 0 -119.5 18.5t-89 52.5t-56 81.5t-19.5 105.5v92q0 58 19 105.5t55 82t88.5 54t118.5 19.5h359q6 0 8.5 -3.5t2.5 -6.5v-112q0 -8 -3.5 -10t-6.5 -2h-110zM452 267q0 63 -26.5 102
t-91.5 39h-4q-30 -1 -51.5 -12t-35 -30t-20 -45t-6.5 -56v-56q0 -64 26.5 -102t90.5 -38q65 0 91.5 37.5t26.5 102.5v58z" />
    <glyph glyph-name="cid513" unicode="&#x3c4;" horiz-adv-x="584" 
d="M376 409v-282q0 -32 11.5 -46.5t24.5 -14.5q14 0 41.5 10.5t56.5 27.5q8 5 11.5 3.5t7.5 -9.5l28 -105q2 -7 1.5 -12t-8.5 -9q-30 -24 -68 -32.5t-74 -8.5t-70 9t-60 30.5t-41.5 57t-15.5 88.5v293h-183q-3 0 -6.5 2t-3.5 10v111q0 3 2.5 6.5t8.5 3.5h504q6 0 8.5 -3.5
t2.5 -6.5v-111q0 -8 -3.5 -10t-6.5 -2h-168z" />
    <glyph glyph-name="cid514" unicode="&#x3c5;" horiz-adv-x="664" 
d="M428 493q-4 7 -1.5 10.5t5.5 5.5l134 64q11 4 17 -6q19 -39 31 -82.5t19 -88.5t10 -89.5t3 -86.5q0 -61 -14.5 -114t-47 -92t-85.5 -61t-129 -22q-85 0 -141 18.5t-89 54.5t-46.5 90t-13.5 126v310q0 8 4 10t7 2h144q5 0 8.5 -3t3.5 -9v-314q0 -40 6 -68t20 -46t37.5 -26
t59.5 -8q57 0 82 38t27 110q2 73 -10 140.5t-41 136.5z" />
    <glyph glyph-name="cid515" unicode="&#x3c6;" horiz-adv-x="855" 
d="M350 -69q-72 6 -126.5 31t-91 65t-54.5 93.5t-17 116.5q1 56 12.5 101t33 83t52 71t69.5 64q11 8 18 0l78 -100q6 -8 2 -13t-8 -8q-20 -16 -37 -35.5t-29.5 -43.5t-19.5 -53.5t-6 -65.5q2 -69 32 -110t92 -52v350q0 39 11.5 63.5t30.5 38t44 18.5t52 5q70 0 127 -23
t97 -65t61.5 -101t21.5 -131q0 -65 -20 -117.5t-56.5 -90.5t-88 -61.5t-114.5 -29.5v-234q0 -6 -3.5 -9t-8.5 -3h-143q-3 0 -7 2t-4 10v234zM516 78q49 16 79.5 57.5t30.5 113.5q0 31 -8.5 58t-23 47t-33 33t-38.5 17q-3 1 -5 -0.5t-2 -9.5v-316z" />
    <glyph glyph-name="cid516" unicode="&#x3c7;" horiz-adv-x="676" 
d="M192 -304q-3 -5 -6.5 -8t-11.5 -3h-150q-9 0 -11 6t0 10l238 427l-229 398q-2 4 0 10t11 6h144q8 0 12 -3t6 -8l143 -272l143 272q2 5 6 8t12 3h144q9 0 11 -6t0 -10l-229 -398l238 -427q2 -4 0 -10t-11 -6h-150q-8 0 -11.5 3t-6.5 8l-146 282z" />
    <glyph glyph-name="cid517" unicode="&#x3c8;" horiz-adv-x="823" 
d="M596 530q0 8 4 10t7 2h144q5 0 8.5 -3t3.5 -9v-299q0 -127 -64 -198t-204 -87v-249q0 -6 -3.5 -9t-8.5 -3h-146q-3 0 -7 2t-4 10v250q-139 16 -202.5 87.5t-63.5 196.5v299q0 8 4 10t7 2h144q5 0 8.5 -3t3.5 -9v-305q0 -57 25.5 -89.5t73.5 -46.5v441q0 8 4 10t7 2h146
q5 0 8.5 -3t3.5 -9v-442q48 13 74.5 45.5t26.5 91.5v305z" />
    <glyph glyph-name="cid518" unicode="&#x3c9;" horiz-adv-x="848" 
d="M347 298q0 15 13 15h131q13 0 13 -15v-125q0 -24 1 -44t6 -34t15.5 -22t30.5 -8q27 0 43 11t24.5 32t11 52.5t2.5 72.5q0 26 -2.5 54t-13.5 52.5t-33 42.5t-61 24q-5 1 -8.5 2.5t-3.5 12.5v116q0 9 4 11t9 2q81 0 133.5 -26t82.5 -69.5t41.5 -101t11.5 -120.5
q0 -71 -11 -127t-39 -95t-74.5 -59.5t-116.5 -20.5q-43 0 -75.5 12t-57.5 35q-23 -23 -55.5 -35t-77.5 -12q-73 0 -120 21t-74 60t-37 95t-10 126q0 64 12 120.5t42.5 99t82.5 68t132 28.5q14 1 14 -10v-120q0 -11 -4.5 -12.5t-9.5 -2.5q-42 -6 -64.5 -23.5t-32 -41.5
t-11 -51.5t-1.5 -54.5q0 -44 3 -75.5t11.5 -52t24.5 -30.5t42 -10q20 0 31.5 8.5t17 23.5t6.5 35t1 43v123z" />
    <glyph glyph-name="cid1026" unicode="&#x401;" horiz-adv-x="641" 
d="M164 958q0 8 2.5 11.5t10.5 3.5h127q11 0 11 -14v-116q0 -6 -3 -10.5t-8 -4.5h-127q-8 0 -10.5 4t-2.5 12v114zM394 958q0 8 2.5 11.5t10.5 3.5h127q11 0 11 -14v-116q0 -6 -3 -10.5t-8 -4.5h-127q-8 0 -10.5 4t-2.5 12v114zM250 294v-216h340q6 0 8.5 -3.5t2.5 -6.5
v-118q0 -8 -3.5 -10t-6.5 -2h-500q-3 0 -7 2t-4 10v806q0 6 3.5 10.5t11.5 4.5h495q6 0 8.5 -3.5t2.5 -6.5v-118q0 -8 -3.5 -10t-6.5 -2h-341v-198h311q6 0 8.5 -3.5t2.5 -6.5v-117q0 -8 -3.5 -10t-6.5 -2h-312z" />
    <glyph glyph-name="cid1020" unicode="&#x410;" horiz-adv-x="769" 
d="M753 -46q2 -4 0 -10t-11 -6h-133q-8 0 -12 3t-6 8l-57 172h-299l-57 -172q-2 -5 -6 -8t-12 -3h-133q-9 0 -11 6t0 10l286 806q3 11 14 11h138q11 0 14 -11zM280 257h209l-104 321z" />
    <glyph glyph-name="cid1021" unicode="&#x411;" horiz-adv-x="714" 
d="M81 -62q-3 0 -7 2t-4 10v806q0 5 3 10t11 5h497q6 0 8.5 -3.5t2.5 -6.5v-118q0 -8 -3.5 -10t-6.5 -2h-350v-168q23 23 58.5 40t82.5 17h28q59 0 106 -19t79.5 -51.5t50 -76t17.5 -91.5v-122q0 -57 -20.5 -100t-55.5 -71.5t-81.5 -43t-97.5 -14.5q-48 0 -93.5 18.5
t-73.5 47.5v-47q0 -6 -3.5 -9t-8.5 -3h-139zM364 383q-35 0 -59 -12t-39 -31.5t-21.5 -43.5t-6.5 -47v-53q0 -58 30.5 -95.5t91.5 -37.5q37 0 61.5 10.5t39 28t20.5 39.5t6 46v67q0 21 -6 44t-20.5 42t-38 31t-58.5 12z" />
    <glyph glyph-name="cid1022" unicode="&#x412;" horiz-adv-x="700" 
d="M428 771q42 0 81 -11.5t69 -37t48 -66t18 -99.5q0 -73 -31 -118t-83 -65v-2q67 -11 103.5 -62.5t36.5 -137.5q0 -69 -20 -114.5t-53.5 -72t-77.5 -37t-91 -10.5h-337q-3 0 -7 2t-4 10v806q0 6 3.5 10.5t11.5 4.5h333zM250 428h146q50 0 68.5 27t18.5 80q0 55 -19 78
t-72 23h-142v-208zM250 73h140q24 0 44.5 4t36 16t24.5 34t9 58q0 31 -4.5 52.5t-16 35t-31.5 19.5t-51 6h-151v-225z" />
    <glyph glyph-name="cid1023" unicode="&#x413;" horiz-adv-x="620" 
d="M91 -62q-3 0 -7 2t-4 10v806q0 5 3 10t11 5h505q6 0 8.5 -3.5t2.5 -6.5v-118q0 -8 -3.5 -10t-6.5 -2h-350v-681q0 -6 -3.5 -9t-8.5 -3h-147z" />
    <glyph glyph-name="cid1024" unicode="&#x414;" horiz-adv-x="830" 
d="M652 -215q-5 0 -8.5 3t-3.5 9v141h-450v-141q0 -6 -3.5 -9t-8.5 -3h-147q-3 0 -7 2t-4 10v266q0 5 3 10t11 5h52q74 0 74 72v606q0 5 3 10t11 5h532q8 0 11 -5t3 -10v-678h76q8 0 11 -5t3 -10v-266q0 -8 -4 -10t-7 -2h-147zM330 178q0 -32 -10.5 -58.5t-31.5 -41.5h262
v553h-220v-453z" />
    <glyph glyph-name="cid1025" unicode="&#x415;" horiz-adv-x="641" 
d="M250 294v-216h340q6 0 8.5 -3.5t2.5 -6.5v-118q0 -8 -3.5 -10t-6.5 -2h-500q-3 0 -7 2t-4 10v806q0 6 3.5 10.5t11.5 4.5h495q6 0 8.5 -3.5t2.5 -6.5v-118q0 -8 -3.5 -10t-6.5 -2h-341v-198h311q6 0 8.5 -3.5t2.5 -6.5v-117q0 -8 -3.5 -10t-6.5 -2h-312z" />
    <glyph glyph-name="cid1027" unicode="&#x416;" 
d="M558 459l199 301q3 5 6.5 8t11.5 3h139q9 0 12 -5t-1 -11l-230 -332l246 -469q2 -4 0 -10t-11 -6h-139q-8 0 -12 3t-6 8l-175 332l-40 -57v-274q0 -6 -3.5 -9t-8.5 -3h-147q-3 0 -7 2t-4 10v278l-38 54l-174 -333q-2 -5 -6 -8t-12 -3h-139q-9 0 -11 6t0 10l245 469
l-229 332q-4 6 -1 11t12 5h139q8 0 11.5 -3t6.5 -8l196 -296v295q0 8 4 10t7 2h147q5 0 8.5 -3t3.5 -9v-300z" />
    <glyph glyph-name="cid1028" unicode="&#x417;" horiz-adv-x="671" 
d="M154 174q10 -19 24 -37.5t32.5 -33t43 -23.5t54.5 -9q62 0 98 33.5t37 89.5q1 49 -22 77.5t-58 43t-76 18t-77 2.5v87l166 210h-306q-3 0 -6.5 2t-3.5 10v117q0 3 2.5 6.5t8.5 3.5h495q6 0 8.5 -3.5t2.5 -6.5v-95q0 -10 -2.5 -15.5t-8.5 -13.5l-156 -196q91 -21 146 -83
t55 -166q0 -57 -22 -105t-62 -82.5t-94.5 -54t-118.5 -19.5q-94 0 -166.5 42.5t-114.5 125.5q-5 11 4 17l100 65q10 6 17 -7z" />
    <glyph glyph-name="cid1029" unicode="&#x418;" horiz-adv-x="806" 
d="M257 -51q-6 -11 -19 -11h-143q-8 0 -11.5 4.5t-3.5 10.5v806q0 6 3.5 9t8.5 3h140q3 0 7 -2t4 -10v-484l-6 -68l311 553q5 11 19 11h144q8 0 11.5 -4.5t3.5 -10.5v-806q0 -8 -4 -10t-7 -2h-140q-5 0 -8.5 3t-3.5 9v483l5 72z" />
    <glyph glyph-name="cid1030" unicode="&#x419;" horiz-adv-x="806" 
d="M580 932q-3 -40 -18.5 -71.5t-39.5 -53.5t-54.5 -33.5t-63.5 -11.5q-39 0 -69.5 13t-53 36t-36 54t-17.5 67q0 8 9 8h107q8 0 9.5 -2t1.5 -7q2 -34 15.5 -53.5t33.5 -19.5t33.5 19.5t15.5 53.5q0 5 1.5 7t9.5 2h107q10 0 9 -8zM257 -51q-6 -11 -19 -11h-143
q-8 0 -11.5 4.5t-3.5 10.5v806q0 6 3.5 9t8.5 3h140q3 0 7 -2t4 -10v-484l-6 -68l311 553q5 11 19 11h144q8 0 11.5 -4.5t3.5 -10.5v-806q0 -8 -4 -10t-7 -2h-140q-5 0 -8.5 3t-3.5 9v483l5 72z" />
    <glyph glyph-name="cid1031" unicode="&#x41a;" horiz-adv-x="719" 
d="M436 424l267 -470q2 -4 0 -10t-11 -6h-149q-8 0 -12 3t-6 8l-194 351l-81 -105v-245q0 -6 -3.5 -9t-8.5 -3h-147q-3 0 -7 2t-4 10v809q0 8 4 10t7 2h147q5 0 8.5 -3t3.5 -9v-350l262 351q3 5 6.5 8t11.5 3h146q9 0 12 -5t-1 -11z" />
    <glyph glyph-name="cid1032" unicode="&#x41b;" horiz-adv-x="786" 
d="M548 -62q-5 0 -8.5 3t-3.5 9v681h-240v-504q0 -48 -11.5 -84.5t-38.5 -61t-71 -37.5t-109 -13q-13 0 -25 1t-22 4q-13 4 -13 19v105q0 15 14 13q9 -1 18 -1.5t14 -0.5q38 0 56 12t18 44v629q0 5 3 10t11 5h552q8 0 11 -5t3 -10v-806q0 -8 -4 -10t-7 -2h-147z" />
    <glyph glyph-name="cid1033" unicode="&#x41c;" horiz-adv-x="949" 
d="M538 65h-127l-180 461l10 -66v-510q0 -6 -3.5 -9t-8.5 -3h-138q-3 0 -7 2t-4 10v806q0 6 3.5 10.5t11.5 4.5h168q14 0 20 -15l191 -464l192 464q6 15 20 15h168q8 0 11.5 -4.5t3.5 -10.5v-806q0 -8 -4 -10t-7 -2h-138q-5 0 -8.5 3t-3.5 9v510l10 66z" />
    <glyph glyph-name="cid1034" unicode="&#x41d;" horiz-adv-x="769" 
d="M689 -50q0 -6 -3.5 -9t-8.5 -3h-147q-3 0 -7 2t-4 10v346h-269v-346q0 -6 -3.5 -9t-8.5 -3h-147q-3 0 -7 2t-4 10v809q0 8 4 10t7 2h147q5 0 8.5 -3t3.5 -9v-323h269v323q0 8 4 10t7 2h147q5 0 8.5 -3t3.5 -9v-809z" />
    <glyph glyph-name="cid1035" unicode="&#x41e;" horiz-adv-x="802" 
d="M385 -69q-67 0 -124.5 19.5t-100 60t-66.5 102t-24 144.5v220q0 69 22.5 125t63.5 95t98.5 60.5t128.5 21.5h36q71 0 128.5 -23t98.5 -64t63.5 -98.5t22.5 -126.5v-210q0 -83 -24 -144.5t-66.5 -102t-100 -60t-124.5 -19.5h-32zM411 72q27 0 54 9.5t48.5 30t34.5 51.5
t13 75v228q0 43 -13 75.5t-34 54t-48 32t-56 10.5h-18q-29 0 -56 -10.5t-48 -32t-34 -54t-13 -75.5v-228q0 -44 13 -75t34.5 -51.5t48.5 -30t54 -9.5h20z" />
    <glyph glyph-name="cid1036" unicode="&#x41f;" horiz-adv-x="740" 
d="M502 -62q-5 0 -8.5 3t-3.5 9v681h-240v-681q0 -6 -3.5 -9t-8.5 -3h-147q-3 0 -7 2t-4 10v806q0 5 3 10t11 5h552q8 0 11 -5t3 -10v-806q0 -8 -4 -10t-7 -2h-147z" />
    <glyph glyph-name="cid1037" unicode="&#x420;" horiz-adv-x="683" 
d="M250 230v-280q0 -6 -3.5 -9t-8.5 -3h-147q-3 0 -7 2t-4 10v806q0 6 3.5 10.5t11.5 4.5h274q78 0 132 -15t87.5 -47.5t49 -83.5t15.5 -123q0 -76 -16 -128t-51 -84t-89.5 -46t-131.5 -14h-115zM357 367q33 0 56.5 5.5t39.5 19.5t23.5 39.5t7.5 64.5t-5.5 65.5t-20 42.5
t-38.5 23t-60 7h-110v-267h107z" />
    <glyph glyph-name="cid1038" unicode="&#x421;" horiz-adv-x="682" 
d="M410 73q20 0 44 5t48.5 12.5t48.5 17t45 19.5q5 2 10 1.5t7 -5.5l38 -105q2 -7 1 -9.5t-8 -7.5q-17 -13 -43 -25.5t-56 -22.5t-62 -16t-61 -6h-67q-62 0 -114 15.5t-90 49t-59.5 86t-21.5 125.5v310q0 59 19.5 107t56.5 82.5t89 53.5t118 19h69q28 0 58 -4.5t58.5 -12.5
t53.5 -18.5t42 -22.5q7 -5 8 -7.5t-1 -9.5l-38 -107q-2 -3 -7 -4.5t-10 0.5q-42 18 -90.5 31t-85.5 13h-28q-29 0 -54.5 -8.5t-44.5 -27t-30 -47t-11 -68.5v-268q0 -40 11.5 -67.5t30.5 -45t44.5 -25t52.5 -7.5h29z" />
    <glyph glyph-name="cid1039" unicode="&#x422;" horiz-adv-x="640" 
d="M410 -50q0 -6 -3.5 -9t-8.5 -3h-147q-3 0 -7 2t-4 10v681h-210q-3 0 -6.5 2t-3.5 10v118q0 3 2.5 6.5t8.5 3.5h578q6 0 8.5 -3.5t2.5 -6.5v-118q0 -8 -3.5 -10t-6.5 -2h-200v-681z" />
    <glyph glyph-name="cid1040" unicode="&#x423;" horiz-adv-x="614" 
d="M245 193l-234 562q-2 4 0 10t11 6h134q8 0 12 -3t6 -8l138 -366h3l124 366q3 11 18 11h135q9 0 11 -6t0 -10l-308 -813q-3 -11 -18 -11h-119q-9 0 -11 6t0 10z" />
    <glyph glyph-name="cid1041" unicode="&#x424;" horiz-adv-x="912" 
d="M541 639q68 -2 123.5 -22t95 -55.5t61 -85t21.5 -109.5v-10q0 -74 -23 -127.5t-63 -88t-95.5 -52t-119.5 -18.5v-121q0 -6 -3.5 -9t-8.5 -3h-148q-3 0 -7 2t-4 10v121q-65 1 -119.5 18.5t-95 52t-63 88t-22.5 127.5v20q0 60 21.5 107.5t60.5 81.5t94.5 52.5t123.5 20.5
v120q0 8 4 10t7 2h148q5 0 8.5 -3t3.5 -9v-120zM239 338q0 -33 11 -56t29.5 -38t42 -23t48.5 -10v288q-26 -3 -49.5 -11.5t-41.5 -25t-29 -40t-11 -56.5v-28zM673 366q0 33 -11 56.5t-29 40t-42 25t-50 11.5v-288q25 2 48.5 9.5t42 22.5t30 38.5t11.5 56.5v28z" />
    <glyph glyph-name="cid1042" unicode="&#x425;" horiz-adv-x="676" 
d="M192 -51q-3 -5 -6.5 -8t-11.5 -3h-150q-9 0 -11 6t0 10l238 414l-229 387q-2 4 0 10t11 6h144q8 0 12 -3t6 -8l143 -261l143 261q2 5 6 8t12 3h144q9 0 11 -6t0 -10l-229 -387l238 -414q2 -4 0 -10t-11 -6h-150q-8 0 -11.5 3t-6.5 8l-146 269z" />
    <glyph glyph-name="cid1043" unicode="&#x426;" horiz-adv-x="770" 
d="M649 771q3 0 7 -2t4 -10v-681h76q8 0 11 -5t3 -10v-266q0 -8 -4 -10t-7 -2h-147q-5 0 -8.5 3t-3.5 9v141h-486q-8 0 -11 5t-3 10v806q0 8 4 10t7 2h147q5 0 8.5 -3t3.5 -9v-681h240v681q0 6 3.5 9t8.5 3h147z" />
    <glyph glyph-name="cid1044" unicode="&#x427;" horiz-adv-x="686" 
d="M233 453q0 -26 2.5 -51.5t12 -46t29 -33t52.5 -12.5q35 0 60 12t41.5 32t24.5 46.5t8 55.5v305q0 10 10 10h143q10 0 10 -10v-820q0 -10 -10 -10h-143q-10 0 -10 10v316h-2q-10 -15 -26 -30t-37 -27t-48 -19.5t-59 -7.5q-59 0 -100.5 20t-68.5 53t-39.5 75.5t-12.5 87.5
v352q0 10 10 10h143q10 0 10 -10v-308z" />
    <glyph glyph-name="cid1045" unicode="&#x428;" horiz-adv-x="922" 
d="M535 771q3 -1 6.5 -3t3.5 -9v-681h129v681q0 6 3.5 9t8.5 3h145q3 0 7 -2t4 -10v-806q0 -5 -3 -10t-11 -5h-734q-8 0 -11 5t-3 10v806q0 8 4 10t7 2h145q5 0 8.5 -3t3.5 -9v-681h129v683q0 5 3.5 7.5t8.5 2.5h146z" />
    <glyph glyph-name="cid1046" unicode="&#x429;" 
d="M535 771q3 -1 6.5 -3t3.5 -9v-681h129v681q0 6 3.5 9t8.5 3h145q3 0 7 -2t4 -10v-681h74q8 0 11 -5t3 -10v-266q0 -8 -4 -10t-7 -2h-145q-5 0 -8.5 3t-3.5 9v141h-668q-8 0 -11 5t-3 10v806q0 8 4 10t7 2h145q5 0 8.5 -3t3.5 -9v-681h129v683q0 5 3.5 7.5t8.5 2.5h146z
" />
    <glyph glyph-name="cid1047" unicode="&#x42a;" horiz-adv-x="795" 
d="M162 -62q-3 0 -7 2t-4 10v681h-136q-3 0 -6.5 2t-3.5 10v118q0 3 2.5 6.5t8.5 3.5h286q6 0 8.5 -3.5t2.5 -6.5v-298q23 23 58.5 40t82.5 17h28q59 0 106 -19t79.5 -51.5t50 -76t17.5 -91.5v-122q0 -57 -20.5 -100t-55.5 -71.5t-81.5 -43t-97.5 -14.5q-48 0 -93.5 18.5
t-73.5 47.5v-47q0 -6 -3.5 -9t-8.5 -3h-139zM445 383q-35 0 -59 -12t-39 -31.5t-21.5 -43.5t-6.5 -47v-53q0 -58 30.5 -95.5t91.5 -37.5q37 0 61.5 10.5t39 28t20.5 39.5t6 46v67q0 21 -6 44t-20.5 42t-38 31t-58.5 12z" />
    <glyph glyph-name="cid1048" unicode="&#x42b;" 
d="M65 782q0 10 10 10h143q10 0 10 -10v-290q23 23 58 40.5t82 17.5h28q59 0 106 -19t79.5 -51.5t50 -76t17.5 -91.5v-152q0 -57 -20.5 -100t-55.5 -71.5t-81.5 -43t-97.5 -14.5q-26 0 -52 5.5t-49 16t-42.5 24t-32.5 30.5v-59q0 -10 -10 -10h-133q-10 0 -10 10v834z
M885 -50q0 -6 -3.5 -9t-8.5 -3h-148q-3 0 -7 2t-4 10v830q0 8 4 10t7 2h148q5 0 8.5 -3t3.5 -9v-830zM359 413q-35 0 -59 -12t-39 -31.5t-21.5 -43.5t-6.5 -47v-83q0 -58 30.5 -95.5t91.5 -37.5q37 0 61.5 10.5t39 28t20.5 39.5t6 46v97q0 21 -6 44t-20.5 42t-38 31
t-58.5 12z" />
    <glyph glyph-name="cid1049" unicode="&#x42c;" horiz-adv-x="714" 
d="M70 782q0 10 10 10h143q10 0 10 -10v-290q23 23 58 40.5t82 17.5h28q59 0 106 -19t79.5 -51.5t50 -76t17.5 -91.5v-152q0 -57 -20.5 -100t-55.5 -71.5t-81.5 -43t-97.5 -14.5q-26 0 -52 5.5t-49 16t-42.5 24t-32.5 30.5v-59q0 -10 -10 -10h-133q-10 0 -10 10v834z
M364 413q-35 0 -59 -12t-39 -31.5t-21.5 -43.5t-6.5 -47v-83q0 -58 30.5 -95.5t91.5 -37.5q37 0 61.5 10.5t39 28t20.5 39.5t6 46v97q0 21 -6 44t-20.5 42t-38 31t-58.5 12z" />
    <glyph glyph-name="cid1050" unicode="&#x42d;" horiz-adv-x="682" 
d="M301 73q27 0 52.5 7.5t44.5 25t30.5 45t11.5 67.5v84h-330q-10 0 -10 10v120q0 10 10 10h330v44q0 40 -11 68.5t-30 47t-44.5 27t-54.5 8.5h-28q-37 0 -85.5 -13t-90.5 -31q-5 -2 -10 -0.5t-7 4.5l-38 107q-2 7 -1 9.5t8 7.5q17 12 42 22.5t53.5 18.5t58.5 12.5t58 4.5
h69q66 0 118 -19t89 -53.5t56.5 -82.5t19.5 -107v-310q0 -73 -21.5 -125.5t-59.5 -86t-90 -49t-114 -15.5h-67q-29 0 -61 6t-62 16t-56 22.5t-43 25.5q-7 5 -8 7.5t1 9.5l38 105q2 5 7 5.5t10 -1.5q21 -10 45 -19.5t48.5 -17t48.5 -12.5t44 -5h29z" />
    <glyph glyph-name="cid1051" unicode="&#x42e;" 
d="M605 -69q-127 0 -191 79.5t-64 246.5v39h-110v-346q0 -6 -3.5 -9t-8.5 -3h-147q-3 0 -7 2t-4 10v809q0 8 4 10t7 2h147q5 0 8.5 -3t3.5 -9v-323h110v41q0 69 14.5 125t45 95t78.5 60.5t115 21.5h36q67 0 115 -23t78.5 -64t45 -98.5t14.5 -126.5v-210q0 -167 -64 -246.5
t-191 -79.5h-32zM631 72q48 0 69 39t21 127v228q0 88 -20 130t-71 42h-18q-51 0 -71 -42t-20 -130v-228q0 -88 21 -127t69 -39h20z" />
    <glyph glyph-name="cid1052" unicode="&#x42f;" horiz-adv-x="714" 
d="M223 -51q-2 -5 -6 -8t-12 -3h-153q-9 0 -11 6t0 10l156 300q-74 22 -107.5 81t-33.5 170q0 73 15 123.5t48 82t85.5 46t128.5 14.5h286q8 0 11.5 -4.5t3.5 -10.5v-806q0 -8 -4 -10t-7 -2h-147q-5 0 -8.5 3t-3.5 9v287h-98zM464 373v261h-115q-36 0 -60 -6.5t-38.5 -22
t-20 -41.5t-5.5 -65t8 -64t24.5 -38.5t41.5 -18.5t58 -5h107z" />
    <glyph glyph-name="cid1053" unicode="&#x430;" horiz-adv-x="641" 
d="M83 455q48 50 112 72t130 22q80 0 130 -22.5t78 -58.5t38 -80.5t10 -89.5v-350q0 -10 -10 -10h-141q-10 0 -10 10v46q-26 -27 -67 -45t-93 -18q-33 0 -70 9t-68 31t-51.5 57t-20.5 88q0 65 31.5 104.5t83 61.5t116.5 29.5t132 8.5v9q0 45 -26.5 65.5t-72.5 20.5
q-39 0 -74.5 -18.5t-66.5 -44.5q-8 -6 -16 2l-73 87q-5 9 -1 14zM413 201h-10q-31 0 -64 -2t-60 -10t-44.5 -24.5t-17.5 -46.5q0 -33 22.5 -42.5t54.5 -9.5q65 0 92 33t27 86v16z" />
    <glyph glyph-name="cid1054" unicode="&#x431;" horiz-adv-x="669" 
d="M619 191q0 -58 -19 -106t-55.5 -82t-89.5 -53t-121 -19q-67 0 -119.5 18.5t-89 52.5t-56 81.5t-19.5 105.5v99q0 8 0.5 17t1.5 17q1 52 6.5 107.5t20 107t39.5 97t66 77.5q35 28 84.5 44t116.5 16h129v-142h-123q-31 0 -53 -5t-37.5 -16t-26.5 -27.5t-21 -39.5q40 8 81 8
q69 0 122 -18.5t89 -52t55 -81.5t19 -106v-100zM452 274q0 63 -26.5 100.5t-91.5 37.5q-31 0 -53 -10.5t-36.5 -29t-21 -44t-6.5 -56.5v-63q0 -64 26.5 -102t90.5 -38q65 0 91.5 37.5t26.5 102.5v65z" />
    <glyph glyph-name="cid1055" unicode="&#x432;" horiz-adv-x="591" 
d="M337 542q41 0 78 -8t64.5 -26.5t44 -48t16.5 -72.5q0 -53 -25 -85.5t-67 -47.5v-1q54 -8 83.5 -45.5t29.5 -99.5q0 -50 -18 -83t-48.5 -52.5t-71.5 -27t-86 -7.5h-268q-3 0 -6 1.5t-3 7.5v584q0 11 12 11h265zM225 301h87q40 0 54.5 13.5t14.5 49.5q0 37 -15 50.5
t-58 13.5h-83v-127zM225 52h82q19 0 35.5 2t29 9t19.5 21t7 39q0 21 -3.5 34t-13 20.5t-25.5 10.5t-40 3h-91v-139z" />
    <glyph glyph-name="cid1056" unicode="&#x433;" horiz-adv-x="509" 
d="M79 -62q-3 0 -6 1.5t-3 7.5v584q0 4 2 7.5t9 3.5h402q9 0 9 -7v-116q0 -8 -7 -8h-250v-464q0 -9 -9 -9h-147z" />
    <glyph glyph-name="cid1057" unicode="&#x434;" horiz-adv-x="700" 
d="M524 -173q-10 0 -10 9v102h-328v-102q0 -5 -3.5 -7t-6.5 -2h-148q-2 0 -5 2t-3 7v223q0 4 2.5 7.5t9.5 3.5h40q60 0 60 52v409q0 4 2 7.5t9 3.5h454q7 0 9 -3.5t2 -7.5v-461h61q6 0 8.5 -3.5t2.5 -7.5v-223q0 -5 -3.5 -7t-5.5 -2h-147zM297 142q0 -23 -8 -42t-25 -30h179
v341h-146v-269z" />
    <glyph glyph-name="cid1058" unicode="&#x435;" horiz-adv-x="665" 
d="M218 186q0 -59 39 -88t103 -29q46 0 88 13t71 39q9 4 14 -1l65 -94q6 -8 -1 -15q-45 -41 -104.5 -61t-138.5 -20q-55 0 -109.5 16t-97.5 49.5t-70 85.5t-26 124v73q0 61 21 111t58.5 85.5t88.5 55t111 19.5q72 0 125.5 -20.5t89 -57.5t53 -87.5t17.5 -111.5v-86h-397z
M447 301q0 23 -6 44t-19.5 36.5t-35 25t-52.5 9.5q-57 0 -86 -33.5t-30 -81.5h229z" />
    <glyph glyph-name="cid1060" unicode="&#x436;" horiz-adv-x="900" 
d="M531 310l174 222q3 5 6.5 8t11.5 3h142q9 0 12 -5t-1 -11l-197 -244l204 -329q2 -4 0 -10t-11 -6h-144q-8 0 -12 3t-6 8l-129 213l-50 -62v-152q0 -10 -10 -10h-143q-10 0 -10 10v152l-50 62l-129 -213q-2 -5 -6 -8t-12 -3h-144q-9 0 -11 6t0 10l204 330l-197 243
q-4 6 -1 11t12 5h142q8 0 11.5 -3t6.5 -8l174 -222v222q0 10 10 10h143q10 0 10 -10v-222z" />
    <glyph glyph-name="cid1061" unicode="&#x437;" horiz-adv-x="536" 
d="M167 289l106 122h-217q-2 0 -5 2t-3 7v115q0 7 8 7h395q9 0 9 -7v-101q0 -8 -2 -11.5t-7 -9.5l-90 -111q56 -16 91 -60t35 -120q0 -41 -18 -76t-49.5 -60t-74.5 -39t-94 -14q-75 0 -134 26.5t-94 85.5q-4 8 4 12l79 87q8 5 14 -5q16 -28 46.5 -51.5t78.5 -23.5
q35 0 55.5 14t22.5 52q1 52 -41.5 74.5t-114.5 21.5v63z" />
    <glyph glyph-name="cid1062" unicode="&#x438;" horiz-adv-x="645" 
d="M201 -54q-5 -8 -15 -8h-114q-12 0 -12 11v584q0 9 10 9h141q2 0 5.5 -1.5t3.5 -7.5v-281l-5 -49l228 331q4 8 15 8h116q11 0 11 -11v-584q0 -6 -3.5 -7.5t-5.5 -1.5h-141q-10 0 -10 9v280l4 52z" />
    <glyph glyph-name="cid1063" unicode="&#x439;" horiz-adv-x="660" 
d="M509 733q-3 -40 -18.5 -71.5t-39.5 -53.5t-54.5 -33.5t-63.5 -11.5q-39 0 -69.5 13t-53 36t-36 54t-17.5 67q0 8 9 8h107q8 0 9.5 -2t1.5 -7q2 -34 15.5 -53.5t33.5 -19.5t33.5 19.5t15.5 53.5q0 5 1.5 7t9.5 2h107q10 0 9 -8zM201 -54q-5 -8 -15 -8h-114q-12 0 -12 11
v584q0 9 10 9h141q2 0 5.5 -1.5t3.5 -7.5v-281l-5 -49l228 331q4 8 15 8h116q11 0 11 -11v-584q0 -6 -3.5 -7.5t-5.5 -1.5h-141q-10 0 -10 9v280l4 52z" />
    <glyph glyph-name="cid1064" unicode="&#x43a;" horiz-adv-x="641" 
d="M233 308l204 224q3 5 6.5 8t11.5 3h152q9 0 12 -5t-1 -11l-217 -241l224 -332q2 -4 0 -10t-11 -6h-154q-8 0 -12 3t-6 8l-144 223l-65 -72v-152q0 -10 -10 -10h-143q-10 0 -10 10v584q0 10 10 10h143q10 0 10 -10v-224z" />
    <glyph glyph-name="cid1065" unicode="&#x43b;" horiz-adv-x="688" 
d="M471 -62q-3 0 -6 2t-3 7v459h-172v-279q0 -48 -10.5 -84.5t-36.5 -61t-69.5 -37.5t-108.5 -13q-13 0 -25 1t-22 4q-13 4 -13 19v100q0 15 14 13q9 -1 18 -1.5t14 -0.5q38 0 56 12t18 44v409q0 4 2 7.5t9 3.5h480q7 0 9.5 -3.5t2.5 -7.5v-584q0 -6 -3.5 -7.5t-5.5 -1.5
h-148z" />
    <glyph glyph-name="cid1066" unicode="&#x43c;" horiz-adv-x="769" 
d="M445 30h-121l-124 304l9 -47v-340q0 -5 -3.5 -7t-6.5 -2h-130q-3 0 -6 1.5t-3 7.5v584q0 11 12 11h164q7 0 10 -3t6 -8l132 -312l133 312q3 5 6 8t10 3h164q12 0 12 -11v-584q0 -6 -3.5 -7.5t-5.5 -1.5h-130q-3 0 -6.5 2t-3.5 7v340l9 47z" />
    <glyph glyph-name="cid1067" unicode="&#x43d;" horiz-adv-x="639" 
d="M579 -53q0 -5 -3.5 -7t-6.5 -2h-148q-2 0 -5 1.5t-3 7.5v236h-188v-236q0 -9 -9 -9h-147q-3 0 -6 1.5t-3 7.5v586q0 6 3 7.5t6 1.5h147q9 0 9 -9v-214h188v214q0 6 3 7.5t5 1.5h148q3 0 6.5 -2t3.5 -7v-586z" />
    <glyph glyph-name="cid1068" unicode="&#x43e;" horiz-adv-x="669" 
d="M619 191q0 -58 -19 -106t-55.5 -82t-89.5 -53t-121 -19q-67 0 -119.5 18.5t-89 52.5t-56 81.5t-19.5 105.5v99q0 58 19 106t55.5 82.5t89.5 53.5t120 19q69 0 122 -18.5t89 -52t55 -81.5t19 -106v-100zM452 274q0 63 -26.5 100.5t-91.5 37.5q-31 0 -53 -10.5t-36.5 -29
t-21 -44t-6.5 -56.5v-63q0 -64 26.5 -102t90.5 -38q65 0 91.5 37.5t26.5 102.5v65z" />
    <glyph glyph-name="cid1069" unicode="&#x43f;" horiz-adv-x="633" 
d="M416 -62q-3 0 -6 2t-3 7v459h-182v-459q0 -9 -9 -9h-147q-3 0 -6 1.5t-3 7.5v584q0 4 2 7.5t9 3.5h490q7 0 9.5 -3.5t2.5 -7.5v-584q0 -6 -3.5 -7.5t-5.5 -1.5h-148z" />
    <glyph glyph-name="cid1070" unicode="&#x440;" horiz-adv-x="714" 
d="M70 532q0 10 10 10h133q10 0 10 -10v-58q13 16 32.5 30t42.5 24.5t49 16t52 5.5q51 0 97.5 -14.5t81.5 -43t55.5 -71.5t20.5 -100v-152q0 -48 -17.5 -91.5t-50 -76t-79.5 -51.5t-106 -19h-28q-47 0 -82 17.5t-58 40.5v-294q0 -10 -10 -10h-143q-10 0 -10 10v837zM364 68
q35 0 58.5 12t38 31t20.5 42t6 44v97q0 24 -6 46t-20.5 39.5t-39 28t-61.5 10.5q-61 0 -91.5 -37.5t-30.5 -95.5v-83q0 -23 6.5 -47t21.5 -43.5t39 -31.5t59 -12z" />
    <glyph glyph-name="cid1071" unicode="&#x441;" horiz-adv-x="573" 
d="M544 491q7 -7 1 -15l-62 -97q-6 -6 -15 -1q-22 15 -48 23.5t-55 8.5q-34 0 -61 -13.5t-46 -37t-29 -54.5t-10 -66q0 -36 9 -67t28 -53.5t46.5 -35.5t65.5 -13q29 0 59.5 10t56.5 24q9 4 14 -1l62 -96q6 -8 -1 -15q-39 -30 -90 -45.5t-110 -15.5q-64 0 -120 20t-98 59
t-66.5 96.5t-24.5 132.5q0 72 24 129.5t66 97.5t99.5 61.5t125.5 21.5q52 0 100.5 -16.5t78.5 -41.5z" />
    <glyph glyph-name="cid1072" unicode="&#x442;" horiz-adv-x="549" 
d="M358 -53q0 -5 -3 -7t-6 -2h-151q-2 0 -5.5 1.5t-3.5 7.5v459h-166q-2 0 -5 1.5t-3 6.5v121q0 7 8 7h502q9 0 9 -7v-121q0 -5 -3 -6.5t-6 -1.5h-167v-459z" />
    <glyph glyph-name="cid1073" unicode="&#x443;" horiz-adv-x="614" 
d="M245 -44l-234 570q-2 4 0 10t11 6h134q8 0 12 -3t6 -8l138 -374h3l124 374q3 11 18 11h135q9 0 11 -6t0 -10l-308 -830q-3 -11 -18 -11h-119q-9 0 -11 6t0 10z" />
    <glyph glyph-name="cid1074" unicode="&#x444;" 
d="M556 -305q0 -10 -10 -10h-143q-10 0 -10 10v294q-15 -23 -43 -40.5t-67 -17.5h-28q-57 0 -98.5 19t-68.5 51.5t-40 76t-13 91.5v152q0 57 17 100t47 71.5t70.5 43t87.5 14.5q50 0 83.5 -19.5t52.5 -52.5v304q0 10 10 10h143q10 0 10 -10v-304q19 33 52.5 52.5t83.5 19.5
q47 0 87.5 -14.5t70.5 -43t47 -71.5t17 -100v-152q0 -48 -13.5 -91.5t-40.5 -76t-68.5 -51.5t-97.5 -19h-28q-39 0 -67 17.5t-43 40.5v-294zM292 68q31 0 49.5 12t29 31.5t14 43.5t3.5 47v83q0 58 -19.5 95.5t-72.5 37.5q-32 0 -51 -10.5t-29 -28t-13.5 -39.5t-3.5 -46v-97
q0 -21 3 -44t13 -42t28.5 -31t48.5 -12zM657 68q30 0 48.5 12t28 31t13 42t3.5 44v97q0 24 -3.5 46t-13.5 39.5t-29.5 28t-50.5 10.5q-53 0 -72.5 -37.5t-19.5 -95.5v-83q0 -23 3.5 -47t14 -43.5t29 -31.5t49.5 -12z" />
    <glyph glyph-name="cid1075" unicode="&#x445;" horiz-adv-x="618" 
d="M309 137l-124 -188q-3 -5 -6.5 -8t-11.5 -3h-144q-9 0 -11 6t0 10l212 304l-185 268q-2 4 0 10t11 6h147q8 0 12 -3t6 -8l94 -145l94 145q2 5 6 8t12 3h147q9 0 11 -6t0 -10l-185 -268l212 -304q2 -4 0 -10t-11 -6h-144q-8 0 -11.5 3t-6.5 8z" />
    <glyph glyph-name="cid1076" unicode="&#x446;" horiz-adv-x="653" 
d="M574 542q2 0 5.5 -1.5t3.5 -7.5v-493h54q7 0 9 -3.5t2 -7.5v-193q0 -5 -3 -7t-5 -2h-148q-3 0 -6 2t-3 7v102h-402q-7 0 -9 3.5t-2 7.5v584q0 6 3 7.5t6 1.5h147q9 0 9 -9v-459h182v459q0 5 3 7t6 2h148z" />
    <glyph glyph-name="cid1077" unicode="&#x447;" horiz-adv-x="563" 
d="M190 321q0 -19 1 -36t7 -29.5t18.5 -20t35.5 -7.5q48 0 70 26.5t22 69.5v211q0 7 7 7h145q7 0 7 -7v-595q0 -7 -7 -7h-145q-7 0 -7 7v219h-3q-16 -22 -43.5 -41.5t-76.5 -19.5q-94 0 -142.5 46.5t-48.5 125.5v265q0 7 8 7h144q8 0 8 -7v-214z" />
    <glyph glyph-name="cid1078" unicode="&#x448;" horiz-adv-x="808" 
d="M478 542l5 -2.5t3 -6.5v-463h98v463q0 9 9 9h146q2 0 5.5 -1.5t3.5 -7.5v-584q0 -4 -2.5 -7.5t-9.5 -3.5h-665q-7 0 -9 3.5t-2 7.5v584q0 6 3 7.5t6 1.5h145q10 0 10 -9v-463h97v465q0 4 3.5 5.5t6.5 1.5h147z" />
    <glyph glyph-name="cid1079" unicode="&#x449;" horiz-adv-x="823" 
d="M478 542l5 -2.5t3 -6.5v-463h98v463q0 9 9 9h146q2 0 5.5 -1.5t3.5 -7.5v-493h49q7 0 9 -3.5t2 -7.5v-193q0 -5 -3 -7t-5 -2h-148q-3 0 -6 2t-3 7v102h-572q-7 0 -9 3.5t-2 7.5v584q0 6 3 7.5t6 1.5h145q10 0 10 -9v-463h97v465q0 4 3.5 5.5t6.5 1.5h147z" />
    <glyph glyph-name="cid1080" unicode="&#x44a;" horiz-adv-x="615" 
d="M110 -62q-2 0 -5.5 1.5t-3.5 7.5v464h-88q-2 0 -5 1.5t-3 6.5v116q0 7 9 7h238q9 0 9 -7v-216q18 20 37.5 30.5t55.5 10.5h22q46 0 84.5 -14t66 -37.5t43 -55t15.5 -66.5v-88q0 -41 -18 -72t-47 -52t-67 -31.5t-78 -10.5q-38 0 -65 13.5t-49 34.5v-34q0 -9 -10 -9h-141z
M347 231q-26 0 -42 -6t-25 -16.5t-12 -24.5t-3 -30v-19q0 -40 16 -58t63 -18q27 0 43 5t23.5 14t9.5 22t2 29v28q0 15 -2 28t-9.5 23.5t-22.5 16.5t-41 6z" />
    <glyph glyph-name="cid1081" unicode="&#x44b;" horiz-adv-x="824" 
d="M60 550q0 7 7 7h145q8 0 8 -7v-210q9 8 17.5 15.5t19 13.5t23.5 9.5t32 3.5h22q51 0 90.5 -14t66.5 -37.5t41 -55t14 -66.5v-110q0 -41 -16.5 -72t-45.5 -52t-67.5 -31.5t-83.5 -10.5q-42 0 -71.5 15.5t-49.5 39.5v-43q0 -7 -8 -7h-137q-7 0 -7 7v605zM764 -53
q0 -9 -10 -9h-147q-3 0 -6 1.5t-3 7.5v602q0 5 3 6.5t6 1.5h147q10 0 10 -8v-602zM304 252q-27 0 -43 -8t-24.5 -21t-10.5 -29.5t-2 -33.5v-10q0 -20 3 -36.5t11.5 -28.5t23.5 -19t39 -7q29 0 45.5 7t24.5 19t9.5 27.5t1.5 31.5v20q0 15 -1.5 31t-9 28.5t-23.5 20.5t-44 8z
" />
    <glyph glyph-name="cid1082" unicode="&#x44c;" horiz-adv-x="576" 
d="M60 550q0 7 7 7h145q8 0 8 -7v-210q9 8 17.5 15.5t19 13.5t23.5 9.5t32 3.5h22q51 0 90.5 -14t66.5 -37.5t41 -55t14 -66.5v-110q0 -41 -16.5 -72t-45.5 -52t-67.5 -31.5t-83.5 -10.5q-42 0 -71.5 15.5t-49.5 39.5v-43q0 -7 -8 -7h-137q-7 0 -7 7v605zM304 252
q-27 0 -43 -8t-24.5 -21t-10.5 -29.5t-2 -33.5v-10q0 -20 3 -36.5t11.5 -28.5t23.5 -19t39 -7q29 0 45.5 7t24.5 19t9.5 27.5t1.5 31.5v20q0 15 -1.5 31t-9 28.5t-23.5 20.5t-44 8z" />
    <glyph glyph-name="cid1083" unicode="&#x44d;" horiz-adv-x="573" 
d="M29 491q30 25 78.5 41.5t100.5 16.5q67 0 125 -21.5t100 -61.5t66 -97.5t24 -129.5q0 -75 -24.5 -132.5t-66.5 -96.5t-98 -59t-120 -20q-59 0 -110 15.5t-90 45.5q-7 7 -1 15l62 96q5 5 14 1q26 -14 56.5 -24t59.5 -10q60 0 95 30t47 81h-268q-10 0 -10 10v112
q0 10 10 10h262q-16 43 -50 70t-83 27q-29 0 -55 -8.5t-48 -23.5q-9 -5 -15 1l-62 97q-6 8 1 15z" />
    <glyph glyph-name="cid1084" unicode="&#x44e;" horiz-adv-x="813" 
d="M524 -67q-102 0 -158 57.5t-56 178.5v13h-85v-235q0 -9 -9 -9h-147q-2 0 -5.5 1.5t-3.5 7.5v586q0 6 3.5 7.5t5.5 1.5h147q9 0 9 -9v-218h85v14q0 100 52.5 159.5t159.5 59.5h28q54 0 94 -16.5t66.5 -46.5t39.5 -71.5t13 -91.5v-153q0 -121 -56.5 -178.5t-157.5 -57.5
h-25zM545 65q29 0 40 23.5t11 87.5v125q0 63 -10 89t-42 26h-15q-32 0 -42 -26t-10 -89v-125q0 -64 10.5 -87.5t40.5 -23.5h17z" />
    <glyph glyph-name="cid1085" unicode="&#x44f;" horiz-adv-x="604" 
d="M308 135l-102 -189q-3 -8 -14 -8h-152q-8 0 -9.5 4.5t0.5 7.5l117 206q-48 18 -76.5 60t-28.5 123q0 53 12 91.5t40.5 63t74 36.5t113.5 12h249q12 0 12 -11v-584q0 -6 -3 -7.5t-6 -1.5h-147q-10 0 -10 9v188h-70zM378 263v150h-82q-29 0 -48 -3t-30.5 -11.5t-16 -23.5
t-4.5 -40t6.5 -39t19.5 -21.5t33 -9.5t47 -2h75z" />
    <glyph glyph-name="cid1059" unicode="&#x451;" horiz-adv-x="665" 
d="M149 725q0 8 2.5 11.5t10.5 3.5h127q11 0 11 -14v-116q0 -6 -3 -10.5t-8 -4.5h-127q-8 0 -10.5 4t-2.5 12v114zM379 725q0 8 2.5 11.5t10.5 3.5h127q11 0 11 -14v-116q0 -6 -3 -10.5t-8 -4.5h-127q-8 0 -10.5 4t-2.5 12v114zM218 186q0 -59 39 -88t103 -29q46 0 88 13
t71 39q9 4 14 -1l65 -94q6 -8 -1 -15q-45 -41 -104.5 -61t-138.5 -20q-55 0 -109.5 16t-97.5 49.5t-70 85.5t-26 124v73q0 61 21 111t58.5 85.5t88.5 55t111 19.5q72 0 125.5 -20.5t89 -57.5t53 -87.5t17.5 -111.5v-86h-397zM447 301q0 23 -6 44t-19.5 36.5t-35 25
t-52.5 9.5q-57 0 -86 -33.5t-30 -81.5h229z" />
    <glyph glyph-name="cid97" unicode="&#x2010;" horiz-adv-x="558" 
d="M84 284q-10 0 -10 10v120q0 10 10 10h381q10 0 10 -10v-120q0 -10 -10 -10h-381z" />
    <glyph glyph-name="cid110" unicode="&#x2014;" horiz-adv-x="928" 
d="M90 284q-10 0 -10 10v120q0 10 10 10h750q10 0 10 -10v-120q0 -10 -10 -10h-750z" />
    <glyph glyph-name="cid110" unicode="&#x2015;" horiz-adv-x="928" 
d="M90 284q-10 0 -10 10v120q0 10 10 10h750q10 0 10 -10v-120q0 -10 -10 -10h-750z" />
    <glyph glyph-name="cid111" unicode="&#x2016;" 
d="M302 791q0 8 4 10t7 2h113q5 0 8.5 -3t3.5 -9v-955q0 -6 -3.5 -9t-8.5 -3h-113q-3 0 -7 2t-4 10v955zM512 791q0 8 4 10t7 2h113q5 0 8.5 -3t3.5 -9v-955q0 -6 -3.5 -9t-8.5 -3h-113q-3 0 -7 2t-4 10v955z" />
    <glyph glyph-name="cid114" unicode="&#x2018;" horiz-adv-x="324" 
d="M269 489q0 -8 -2 -11t-10 -3h-181q-10 0 -10 13v145q0 75 37.5 139.5t97.5 109.5l63 -59q-36 -32 -55.5 -78.5t-21.5 -91.5h70q8 0 10 -3t2 -11v-150z" />
    <glyph glyph-name="cid115" unicode="&#x2019;" horiz-adv-x="324" 
d="M55 838q0 8 2 11t10 3h181q10 0 10 -13v-145q0 -75 -37.5 -139.5t-97.5 -109.5l-63 59q36 32 55.5 78.5t21.5 91.5h-70q-8 0 -10 3t-2 11v150z" />
    <glyph glyph-name="cid116" unicode="&#x201c;" horiz-adv-x="569" 
d="M264 489q0 -8 -2 -11t-10 -3h-176q-10 0 -10 13v145q0 75 37.5 139.5t97.5 109.5l63 -59q-36 -32 -55.5 -78.5t-21.5 -91.5h65q8 0 10 -3t2 -11v-150zM514 489q0 -8 -2 -11t-10 -3h-176q-10 0 -10 13v145q0 75 37.5 139.5t97.5 109.5l63 -59q-36 -32 -55.5 -78.5
t-21.5 -91.5h65q8 0 10 -3t2 -11v-150z" />
    <glyph glyph-name="cid117" unicode="&#x201d;" horiz-adv-x="569" 
d="M55 838q0 8 2 11t10 3h176q10 0 10 -13v-145q0 -75 -37.5 -139.5t-97.5 -109.5l-63 59q36 32 55.5 78.5t21.5 91.5h-65q-8 0 -10 3t-2 11v150zM305 838q0 8 2 11t10 3h176q10 0 10 -13v-145q0 -75 -37.5 -139.5t-97.5 -109.5l-63 59q36 32 55.5 78.5t21.5 91.5h-65
q-8 0 -10 3t-2 11v150z" />
    <glyph glyph-name="cid245" unicode="&#x2020;" horiz-adv-x="1000" 
d="M568 443v-607q0 -6 -3.5 -9t-8.5 -3h-113q-3 0 -7 2t-4 10v607h-172q-10 0 -10 10v110q0 10 10 10h172v218q0 8 4 10t7 2h113q5 0 8.5 -3t3.5 -9v-218h172q10 0 10 -10v-110q0 -10 -10 -10h-172z" />
    <glyph glyph-name="cid246" unicode="&#x2021;" horiz-adv-x="1000" 
d="M568 93v-257q0 -6 -3.5 -9t-8.5 -3h-113q-3 0 -7 2t-4 10v257h-172q-10 0 -10 10v110q0 10 10 10h172v220h-172q-10 0 -10 10v110q0 10 10 10h172v218q0 8 4 10t7 2h113q5 0 8.5 -3t3.5 -9v-218h172q10 0 10 -10v-110q0 -10 -10 -10h-172v-220h172q10 0 10 -10v-110
q0 -10 -10 -10h-172z" />
    <glyph glyph-name="cid105" unicode="&#x2025;" horiz-adv-x="660" 
d="M80 418q0 8 2.5 11.5t10.5 3.5h186q11 0 11 -14v-176q0 -6 -3 -10.5t-8 -4.5h-186q-8 0 -10.5 4t-2.5 12v174zM370 418q0 8 2.5 11.5t10.5 3.5h186q11 0 11 -14v-176q0 -6 -3 -10.5t-8 -4.5h-186q-8 0 -10.5 4t-2.5 12v174z" />
    <glyph glyph-name="cid106" unicode="&#x2026;" 
d="M80 418q0 8 2.5 11.5t10.5 3.5h186q11 0 11 -14v-176q0 -6 -3 -10.5t-8 -4.5h-186q-8 0 -10.5 4t-2.5 12v174zM370 418q0 8 2.5 11.5t10.5 3.5h186q11 0 11 -14v-176q0 -6 -3 -10.5t-8 -4.5h-186q-8 0 -10.5 4t-2.5 12v174zM660 418q0 8 2.5 11.5t10.5 3.5h186
q11 0 11 -14v-176q0 -6 -3 -10.5t-8 -4.5h-186q-8 0 -10.5 4t-2.5 12v174z" />
    <glyph glyph-name="cid106" unicode="&#x22ef;" 
d="M80 418q0 8 2.5 11.5t10.5 3.5h186q11 0 11 -14v-176q0 -6 -3 -10.5t-8 -4.5h-186q-8 0 -10.5 4t-2.5 12v174zM370 418q0 8 2.5 11.5t10.5 3.5h186q11 0 11 -14v-176q0 -6 -3 -10.5t-8 -4.5h-186q-8 0 -10.5 4t-2.5 12v174zM660 418q0 8 2.5 11.5t10.5 3.5h186
q11 0 11 -14v-176q0 -6 -3 -10.5t-8 -4.5h-186q-8 0 -10.5 4t-2.5 12v174z" />
    <glyph glyph-name="cid216" unicode="&#x2030;" 
d="M216 -89q-3 -5 -6.5 -8t-11.5 -3h-98q-9 0 -11 6t0 10l347 876q3 5 6.5 8t11.5 3h100q9 0 11 -6t0 -10zM11 577q0 46 7.5 85.5t24 68t43 45t63.5 16.5t63.5 -16.5t43 -45t24 -68t7.5 -85.5t-7.5 -85.5t-24 -68.5t-43 -45.5t-63.5 -16.5t-63.5 16.5t-43 45.5t-24 68.5
t-7.5 85.5zM178 577v39t-2 30.5t-8.5 19.5t-18.5 7t-18.5 -7t-8.5 -19.5t-2 -30.5v-39v-39t2 -30.5t8.5 -19.5t18.5 -7t18.5 7t8.5 19.5t2 30.5v39zM362 112q0 46 7.5 85.5t24 68t43 45t63.5 16.5t63.5 -16.5t43 -45t24 -68t7.5 -85.5t-7.5 -85.5t-24 -68.5t-43 -45.5
t-63.5 -16.5t-63.5 16.5t-43 45.5t-24 68.5t-7.5 85.5zM663 112q0 46 7.5 85.5t24 68t43 45t63.5 16.5t63.5 -16.5t43 -45t24 -68t7.5 -85.5t-7.5 -85.5t-24 -68.5t-43 -45.5t-63.5 -16.5t-63.5 16.5t-43 45.5t-24 68.5t-7.5 85.5zM529 112v39t-2 30.5t-8.5 19.5t-18.5 7
t-18.5 -7t-8.5 -19.5t-2 -30.5v-39v-39t2 -30.5t8.5 -19.5t18.5 -7t18.5 7t8.5 19.5t2 30.5v39zM830 112v39t-2 30.5t-8.5 19.5t-18.5 7t-18.5 -7t-8.5 -19.5t-2 -30.5v-39v-39t2 -30.5t8.5 -19.5t18.5 -7t18.5 7t8.5 19.5t2 30.5v39z" />
    <glyph glyph-name="cid139" unicode="&#x2032;" horiz-adv-x="286" 
d="M50 538q-11 0 -8 12l56 260q4 13 17 13h140q12 0 5 -14l-108 -260q-3 -6 -7.5 -8.5t-13.5 -2.5h-81z" />
    <glyph glyph-name="cid140" unicode="&#x2033;" horiz-adv-x="446" 
d="M50 538q-11 0 -8 12l56 260q4 13 17 13h120q12 0 5 -14l-98 -260q-3 -6 -7.5 -8.5t-13.5 -2.5h-71zM230 538q-11 0 -8 12l56 260q4 13 17 13h120q12 0 5 -14l-98 -260q-3 -6 -7.5 -8.5t-13.5 -2.5h-71z" />
    <glyph glyph-name="cid156" unicode="&#x203b;" 
d="M555 625h-160v148h160v-148zM558 345l255 -279l-89 -85l-250 274l-249 -274l-90 85l256 279l-256 281l90 84l249 -274l250 274l89 -84zM197 288h-161v146h161v-146zM913 288h-162v146h162v-146zM555 -80h-160v147h160v-147z" />
    <glyph glyph-name="cid357" unicode="&#x203e;" 
d="M40 651q-10 0 -10 10v120q0 10 10 10h870q10 0 10 -10v-120q0 -10 -10 -10h-870z" />
    <glyph glyph-name="cid357" unicode="&#xffe3;" 
d="M40 651q-10 0 -10 10v120q0 10 10 10h870q10 0 10 -10v-120q0 -10 -10 -10h-870z" />
    <glyph glyph-name="cid845" unicode="&#x2074;" horiz-adv-x="450" 
d="M252 628q0 10 3.5 16.5t14.5 6.5h70q7 0 13 -6t6 -14v-121h29q9 0 14.5 -3.5t5.5 -16.5v-60q0 -14 -6 -18t-13 -4h-30v-64q0 -10 -4 -15t-15 -5h-69q-11 0 -15 3.5t-4 16.5v64h-191q-20 0 -20 22v42q0 9 3 18l155 308q4 5 9.5 9.5t13.5 4.5h70q15 0 18 -11.5t0 -19.5
l-131 -271h73v118z" />
    <glyph glyph-name="cid846" unicode="&#x207f;" horiz-adv-x="557" 
d="M79 323q-7 0 -12.5 4.5t-5.5 12.5v444q0 9 5.5 13t12.5 4h113q17 0 17 -17v-27q24 22 53.5 36t71.5 13q76 -2 119.5 -43t45.5 -122v-301q0 -5 -4 -11t-13 -6h-116q-7 0 -12.5 3.5t-5.5 13.5v273q0 22 -5.5 35t-14.5 20t-21 9t-24 2q-35 0 -53 -27.5t-18 -67.5v-244
q0 -17 -17 -17h-116z" />
    <glyph glyph-name="cid847" unicode="&#x2081;" horiz-adv-x="450" 
d="M276 439q21 0 21 -22v-446q0 -20 -20 -20h-80q-6 0 -13 3.5t-7 16.5v341l-81 -41q-11 -5 -17 -1t-6 21v65q0 18 14 23l122 60h67z" />
    <glyph glyph-name="cid848" unicode="&#x2082;" horiz-adv-x="450" 
d="M121 303q-11 -7 -17 -4.5t-12 7.5l-32 52q-5 10 -4.5 19t9.5 14q27 19 63 33.5t77 14.5q40 0 71 -11t52 -30t31.5 -45.5t10.5 -57.5q0 -57 -27 -101t-76 -94l-45 -42h132q9 0 14.5 -3.5t5.5 -17.5v-61q0 -13 -4.5 -17t-14.5 -4h-294v75q0 8 2 13t9 11l102 105
q21 21 36 37.5t24.5 31t13.5 28.5t4 31q1 16 -9 32t-42 17q-16 1 -38 -9.5t-42 -23.5z" />
    <glyph glyph-name="cid849" unicode="&#x2083;" horiz-adv-x="450" 
d="M136 102q9 -17 26 -32.5t46 -15.5q27 0 43 14.5t17 38.5q0 22 -12.5 34.5t-31.5 19t-41.5 8t-41.5 1.5v66l77 96h-140q-5 0 -12 3.5t-7 16.5v64q0 5 4.5 12t15.5 7h270q10 0 14.5 -7t4.5 -12v-51q0 -8 -1.5 -12.5t-6.5 -12.5l-79 -94q48 -14 77 -48t29 -92
q0 -34 -13 -62.5t-36.5 -49t-55.5 -32t-71 -11.5q-55 0 -97.5 24.5t-66.5 72.5q-7 9 -4.5 15.5t8.5 11.5l54 35q11 6 18.5 4.5t12.5 -12.5z" />
    <glyph glyph-name="cid850" unicode="&#x2084;" horiz-adv-x="450" 
d="M242 255q0 10 3.5 16.5t14.5 6.5h70q7 0 13 -6t6 -14v-121h29q9 0 14.5 -3.5t5.5 -16.5v-60q0 -14 -6 -18t-13 -4h-30v-64q0 -10 -4 -15t-15 -5h-69q-11 0 -15 3.5t-4 16.5v64h-191q-20 0 -20 22v42q0 9 3 18l155 308q4 5 9.5 9.5t13.5 4.5h70q15 0 18 -11.5t0 -19.5
l-131 -271h73v118z" />
    <glyph glyph-name="cid96" unicode="&#x20a9;" horiz-adv-x="1048" 
d="M564 771q13 0 16 -14l39 -194h176l38 197q2 5 6 8t12 3h128q9 0 11 -6t0 -10l-41 -192h80q10 0 10 -10v-113q0 -10 -10 -10h-109l-17 -79h126q10 0 10 -10v-113q0 -10 -10 -10h-154l-58 -270q-3 -10 -12 -10h-171q-10 0 -13 9l-54 271h-100l-54 -271q-3 -9 -13 -9h-171
q-9 0 -12 10l-58 270h-141q-10 0 -10 10v113q0 10 10 10h112l-17 79h-95q-10 0 -10 10v113q0 10 10 10h67l-41 192q-2 4 0 10t11 6h128q8 0 12 -3t6 -8l37 -197h177l39 194q3 14 16 14h94zM278 351h94l16 79h-125zM493 351h47l-15 79h-16zM662 351h93l15 79h-124zM324 111
l21 107h-42zM710 111l20 107h-42z" />
    <glyph glyph-name="cid18354" unicode="&#x20ac;" horiz-adv-x="736" 
d="M464 73q20 0 44 5t48.5 12.5t48.5 17t45 19.5q5 2 10 1.5t7 -5.5l38 -105q2 -7 1 -9.5t-8 -7.5q-17 -13 -43 -25.5t-56 -22.5t-62 -16t-61 -6h-67q-58 0 -107.5 13.5t-87 42.5t-60.5 74t-29 108h-87q-10 0 -10 10v116q0 10 10 10h86v80h-86q-10 0 -10 10v116q0 10 10 10
h86q1 58 20.5 105.5t56.5 81.5t89 52.5t117 18.5h69q28 0 58 -4.5t58.5 -12.5t53.5 -18.5t42 -22.5q7 -5 8 -7.5t-1 -9.5l-38 -107q-2 -3 -7 -4.5t-10 0.5q-42 18 -90.5 31t-85.5 13h-28q-51 0 -89.5 -27.5t-48.5 -88.5h201q10 0 10 -10v-116q0 -10 -10 -10h-203v-80h203
q10 0 10 -10v-116q0 -10 -10 -10h-198q14 -52 51 -74t83 -22h29z" />
    <glyph glyph-name="cid141" unicode="&#x2103;" horiz-adv-x="907" 
d="M23 730q0 31 12.5 55.5t33 41.5t45.5 26.5t51 9.5t51.5 -9.5t45.5 -26.5t32.5 -41.5t12.5 -55.5t-12.5 -56t-32.5 -43t-45.5 -27.5t-51.5 -9.5t-51 9.5t-45.5 27.5t-33 43t-12.5 56zM640 73q20 0 44 5t48.5 12.5t48.5 17t45 19.5q5 2 10 1.5t7 -5.5l38 -105q2 -7 1 -9.5
t-8 -7.5q-17 -13 -43 -25.5t-56 -22.5t-62 -16t-61 -6h-67q-62 0 -114 15.5t-90 49t-59.5 86t-21.5 125.5v310q0 59 19.5 107t56.5 82.5t89 53.5t118 19h69q28 0 58 -4.5t58.5 -12.5t53.5 -18.5t42 -22.5q7 -5 8 -7.5t-1 -9.5l-38 -107q-2 -3 -7 -4.5t-10 0.5
q-42 18 -90.5 31t-85.5 13h-28q-29 0 -54.5 -8.5t-44.5 -27t-30 -47t-11 -68.5v-268q0 -40 11.5 -67.5t30.5 -45t44.5 -25t52.5 -7.5h29zM124 730q0 -19 10.5 -32t30.5 -13t31 13.5t11 31.5q0 20 -11 31.5t-31 11.5q-19 0 -30 -12.5t-11 -30.5z" />
    <glyph glyph-name="cid215" unicode="&#x2109;" horiz-adv-x="891" 
d="M23 730q0 31 12.5 55.5t33 41.5t45.5 26.5t51 9.5t51.5 -9.5t45.5 -26.5t32.5 -41.5t12.5 -55.5t-12.5 -56t-32.5 -43t-45.5 -27.5t-51.5 -9.5t-51 9.5t-45.5 27.5t-33 43t-12.5 56zM124 730q0 -19 10.5 -32t30.5 -13t31 13.5t11 31.5q0 20 -11 31.5t-31 11.5
q-19 0 -30 -12.5t-11 -30.5zM359 -62q-3 0 -7 2t-4 10v806q0 5 3 10t11 5h505q6 0 8.5 -3.5t2.5 -6.5v-118q0 -8 -3.5 -10t-6.5 -2h-350v-204h326q6 0 8.5 -4t2.5 -7v-117q0 -3 -2 -7t-9 -4h-326v-338q0 -6 -3.5 -9t-8.5 -3h-147z" />
    <glyph glyph-name="cid590" unicode="&#x2113;" horiz-adv-x="541" 
d="M31 119q35 28 68 54t57 50v292q0 139 43 201.5t123 62.5q39 0 68.5 -14.5t49 -39.5t29.5 -59t10 -73q-1 -66 -17 -125t-43 -111.5t-62.5 -99.5t-74.5 -90v-70q0 -25 14.5 -34t28.5 -9q17 0 40.5 11t51.5 28l46 -109q-30 -20 -69 -33.5t-76 -13.5q-79 0 -118.5 34
t-43.5 93q-12 -11 -23 -21t-28 -21zM281 361q27 43 47 93t22 124q1 42 -8 60.5t-21 18.5q-16 0 -28 -34t-12 -117v-145z" />
    <glyph glyph-name="cid258" unicode="&#x2116;" 
d="M170 431l5 -72v-409q0 -6 -3.5 -9t-8.5 -3h-122q-3 0 -7 2t-4 10v806q0 6 3.5 10.5t11.5 4.5h126q13 0 19 -11l162 -479l-6 68v410q0 8 4 10t7 2h124q5 0 8.5 -3t3.5 -9v-806q0 -6 -3.5 -10.5t-11.5 -4.5h-127q-14 0 -19 11zM936 343q0 -117 -49 -171.5t-156 -54.5
q-104 0 -154 54t-50 170v59q0 117 49.5 172t154.5 55q107 0 156 -53.5t49 -170.5v-60zM779 386q0 31 -1 52t-5.5 33.5t-14 17.5t-27.5 5q-32 0 -39.5 -24.5t-7.5 -85.5v-23q0 -32 1 -53t5.5 -34t14 -18t26.5 -5q18 0 27.5 5t14 17.5t5.5 33.5t1 54v25zM552 -62q-10 0 -10 10
v120q0 10 10 10h381q10 0 10 -10v-120q0 -10 -10 -10h-381z" />
    <glyph glyph-name="cid263" unicode="&#x2121;" 
d="M295 -50q0 -6 -3.5 -9t-8.5 -3h-137q-3 0 -7 2t-4 10v681h-115q-3 0 -6.5 2t-3.5 10v118q0 3 2.5 6.5t8.5 3.5h378q6 0 8.5 -3.5t2.5 -6.5v-118q0 -8 -3.5 -10t-6.5 -2h-105v-681zM514 188v-131h131q5 0 7 -3t2 -5v-101q0 -6 -3 -8t-5 -2h-267q-2 0 -5.5 2t-3.5 8v582
q0 5 2.5 8.5t9.5 3.5h263q5 0 7 -3t2 -5v-101q0 -7 -3 -8.5t-5 -1.5h-132v-116h107q5 0 7 -3t2 -5v-101q0 -6 -3 -8t-5 -2h-108zM698 -62q-2 0 -5.5 2t-3.5 8v584q0 7 3.5 8.5t5.5 1.5h126q10 0 10 -10v-475h102q5 0 7 -3t2 -5v-101q0 -6 -3 -8t-5 -2h-239z" />
    <glyph glyph-name="cid260" unicode="&#x2122;" 
d="M277 314q0 -7 -4 -9.5t-9 -2.5h-121q-2 0 -6.5 2t-4.5 10v357h-110q-4 0 -8 2.5t-4 10.5v96q0 4 2.5 8t9.5 4h354q7 0 9.5 -4t2.5 -8v-96q0 -8 -4 -10.5t-7 -2.5h-100v-357zM807 302q-12 0 -12 12v261l-81 -195h-85l-80 195v-261q0 -7 -4 -9.5t-9 -2.5h-99q-4 0 -8.5 2
t-4.5 10v463q0 5 3.5 10t11.5 5h118q12 0 18 -13l96 -223l99 223v-1q4 14 16 14h118q8 0 11.5 -5t3.5 -10v-463q0 -8 -5 -10t-7 -2h-100z" />
    <glyph glyph-name="cid643" unicode="&#x2126;" horiz-adv-x="850" 
d="M425 779q80 0 145.5 -24.5t112 -71.5t72 -114.5t25.5 -154.5q0 -104 -36 -181.5t-121 -132.5v-22h143q6 0 8.5 -3.5t2.5 -6.5v-118q0 -8 -3.5 -10t-6.5 -2h-292q-12 0 -12 12v200q0 13 16 20q43 18 69 44.5t40 58.5t18.5 68t4.5 73q0 102 -49 159.5t-137 57.5t-137 -57.5
t-49 -159.5q0 -37 4.5 -73t18.5 -68t40 -58.5t69 -44.5q16 -7 16 -20v-200q0 -12 -12 -12h-292q-3 0 -6.5 2t-3.5 10v118q0 3 2.5 6.5t8.5 3.5h143v22q-85 55 -121 132.5t-36 181.5q0 87 25.5 154.5t72 114.5t112 71.5t145.5 24.5z" />
    <glyph glyph-name="cid142" unicode="&#x212b;" horiz-adv-x="769" 
d="M243 872q0 31 12.5 55.5t33 41.5t45.5 26.5t51 9.5t51.5 -9.5t45.5 -26.5t32.5 -41.5t12.5 -55.5t-12.5 -56t-32.5 -43t-45.5 -27.5t-51.5 -9.5t-51 9.5t-45.5 27.5t-33 43t-12.5 56zM344 872q0 -19 10.5 -32t30.5 -13t31 13.5t11 31.5q0 20 -11 31.5t-31 11.5
q-19 0 -30 -12.5t-11 -30.5zM530 121h-291l-61 -172q-2 -5 -6 -8t-12 -3h-133q-9 0 -11 6t0 10l286 742q3 11 14 11h138q11 0 14 -11l285 -742q2 -4 0 -10t-11 -6h-133q-8 0 -12 3t-6 8zM288 257h193l-96 271z" />
    <glyph glyph-name="cid749" unicode="&#x2153;" 
d="M282 -50q-3 -5 -6.5 -8t-11.5 -3h-103q-9 0 -11 6t0 10l482 855q3 5 6.5 8t11.5 3h103q9 0 11 -6t0 -10zM246 812q21 0 21 -22v-446q0 -20 -20 -20h-80q-6 0 -13 3.5t-7 16.5v341l-81 -41q-11 -5 -17 -1t-6 21v65q0 18 14 23l122 60h67zM671 102q9 -17 26 -32.5t46 -15.5
q27 0 43 14.5t17 38.5q0 22 -12.5 34.5t-31.5 19t-41.5 8t-41.5 1.5v66l77 96h-140q-5 0 -12 3.5t-7 16.5v64q0 5 4.5 12t15.5 7h270q10 0 14.5 -7t4.5 -12v-51q0 -8 -1.5 -12.5t-6.5 -12.5l-79 -94q48 -14 77 -48t29 -92q0 -34 -13 -62.5t-36.5 -49t-55.5 -32t-71 -11.5
q-55 0 -97.5 24.5t-66.5 72.5q-7 9 -4.5 15.5t8.5 11.5l54 35q11 6 18.5 4.5t12.5 -12.5z" />
    <glyph glyph-name="cid750" unicode="&#x2154;" 
d="M292 -50q-3 -5 -6.5 -8t-11.5 -3h-103q-9 0 -11 6t0 10l482 855q3 5 6.5 8t11.5 3h103q9 0 11 -6t0 -10zM86 676q-11 -7 -17 -4.5t-12 7.5l-32 52q-5 10 -4.5 19t9.5 14q27 19 63 33.5t77 14.5q40 0 71 -11t52 -30t31.5 -45.5t10.5 -57.5q0 -57 -27 -101t-76 -94l-45 -42
h127q9 0 14.5 -3.5t5.5 -17.5v-61q0 -13 -4.5 -17t-14.5 -4h-289v75q0 8 2 13t9 11l102 105q21 21 36 37.5t24.5 31t13.5 28.5t4 31q1 16 -9 32t-42 17q-16 1 -38 -9.5t-42 -23.5zM675 102q9 -17 26 -32.5t46 -15.5q27 0 43 14.5t17 38.5q0 22 -12.5 34.5t-31.5 19t-41.5 8
t-41.5 1.5v66l77 96h-137q-5 0 -12 3.5t-7 16.5v64q0 5 4.5 12t15.5 7h267q10 0 14.5 -7t4.5 -12v-51q0 -8 -1.5 -12.5t-6.5 -12.5l-79 -94q48 -14 77 -48t29 -92q0 -34 -13 -62.5t-36.5 -49t-55.5 -32t-71 -11.5q-55 0 -97.5 24.5t-66.5 72.5q-7 9 -4.5 15.5t8.5 11.5
l54 35q11 6 18.5 4.5t12.5 -12.5z" />
    <glyph glyph-name="cid753" unicode="&#x215b;" 
d="M282 -50q-3 -5 -6.5 -8t-11.5 -3h-103q-9 0 -11 6t0 10l482 855q3 5 6.5 8t11.5 3h103q9 0 11 -6t0 -10zM246 812q21 0 21 -22v-446q0 -20 -20 -20h-80q-6 0 -13 3.5t-7 16.5v341l-81 -41q-11 -5 -17 -1t-6 21v65q0 18 14 23l122 60h67zM750 -51q-39 0 -72 10t-56.5 29
t-37 47t-13.5 65q0 38 20 64.5t42 43.5q-20 16 -33.5 37.5t-13.5 56.5q0 31 12 56.5t33.5 44t52 28.5t66.5 10t65.5 -10t51 -28.5t33.5 -44t12 -56.5q0 -32 -14 -54.5t-34 -39.5q24 -17 44 -42.5t20 -65.5q0 -37 -13.5 -65t-37 -47t-56 -29t-71.5 -10zM750 253q20 0 33 13.5
t13 33.5t-13.5 34t-32.5 14q-20 0 -33.5 -14t-13.5 -34t13.5 -33.5t33.5 -13.5zM750 44q24 0 42 16t18 41q0 27 -18 43.5t-42 16.5q-25 0 -43 -16.5t-18 -43.5q0 -25 18 -41t43 -16z" />
    <glyph glyph-name="cid754" unicode="&#x215c;" 
d="M296 -50q-3 -5 -6.5 -8t-11.5 -3h-103q-9 0 -11 6t0 10l482 855q3 5 6.5 8t11.5 3h103q9 0 11 -6t0 -10zM116 475q9 -17 26 -32.5t46 -15.5q27 0 43 14.5t17 38.5q0 22 -12.5 34.5t-31.5 19t-41.5 8t-41.5 1.5v66l77 96h-140q-5 0 -12 3.5t-7 16.5v64q0 5 4.5 12t15.5 7
h270q10 0 14.5 -7t4.5 -12v-51q0 -8 -1.5 -12.5t-6.5 -12.5l-79 -94q48 -14 77 -48t29 -92q0 -34 -13 -62.5t-36.5 -49t-55.5 -32t-71 -11.5q-55 0 -97.5 24.5t-66.5 72.5q-7 9 -4.5 15.5t8.5 11.5l54 35q11 6 18.5 4.5t12.5 -12.5zM750 -51q-39 0 -72 10t-56.5 29t-37 47
t-13.5 65q0 38 20 64.5t42 43.5q-20 16 -33.5 37.5t-13.5 56.5q0 31 12 56.5t33.5 44t52 28.5t66.5 10t65.5 -10t51 -28.5t33.5 -44t12 -56.5q0 -32 -14 -54.5t-34 -39.5q24 -17 44 -42.5t20 -65.5q0 -37 -13.5 -65t-37 -47t-56 -29t-71.5 -10zM750 253q20 0 33 13.5
t13 33.5t-13.5 34t-32.5 14q-20 0 -33.5 -14t-13.5 -34t13.5 -33.5t33.5 -13.5zM750 44q24 0 42 16t18 41q0 27 -18 43.5t-42 16.5q-25 0 -43 -16.5t-18 -43.5q0 -25 18 -41t43 -16z" />
    <glyph glyph-name="cid755" unicode="&#x215d;" 
d="M296 -50q-3 -5 -6.5 -8t-11.5 -3h-103q-9 0 -11 6t0 10l482 855q3 5 6.5 8t11.5 3h103q9 0 11 -6t0 -10zM118 471q10 -19 26.5 -33t44.5 -14t43 15.5t15 41.5q0 31 -20 44t-42 14q-18 2 -32 -0.5t-31 -7.5h-79l19 256q2 8 6.5 13t15.5 5h236q12 0 16 -7t4 -12v-64
q0 -13 -7 -16.5t-12 -3.5h-148l-6 -63q7 1 14.5 0.5t15.5 -0.5q34 0 64.5 -10t53.5 -30t36.5 -50t13.5 -70q0 -35 -12.5 -64t-35 -50t-54.5 -32.5t-70 -11.5q-54 0 -97.5 25t-66.5 72q-3 8 -1 15t7 10l56 36q9 8 15.5 5t11.5 -13zM750 -51q-39 0 -72 10t-56.5 29t-37 47
t-13.5 65q0 38 20 64.5t42 43.5q-20 16 -33.5 37.5t-13.5 56.5q0 31 12 56.5t33.5 44t52 28.5t66.5 10t65.5 -10t51 -28.5t33.5 -44t12 -56.5q0 -32 -14 -54.5t-34 -39.5q24 -17 44 -42.5t20 -65.5q0 -37 -13.5 -65t-37 -47t-56 -29t-71.5 -10zM750 253q20 0 33 13.5
t13 33.5t-13.5 34t-32.5 14q-20 0 -33.5 -14t-13.5 -34t13.5 -33.5t33.5 -13.5zM750 44q24 0 42 16t18 41q0 27 -18 43.5t-42 16.5q-25 0 -43 -16.5t-18 -43.5q0 -25 18 -41t43 -16z" />
    <glyph glyph-name="cid756" unicode="&#x215e;" 
d="M266 -50q-3 -5 -6.5 -8t-11.5 -3h-103q-9 0 -11 6t0 10l482 855q3 5 6.5 8t11.5 3h103q9 0 11 -6t0 -10zM209 336q-3 -8 -7.5 -11.5t-15.5 -3.5h-80q-15 0 -18 11t-1 18l155 352h-179q-5 0 -12 3.5t-7 16.5v64q0 5 4.5 12t15.5 7h295q11 0 15 -7t4 -12v-53q0 -14 -5 -25z
M738 -51q-39 0 -72 10t-56.5 29t-37 47t-13.5 65q0 38 20 64.5t42 43.5q-20 16 -33.5 37.5t-13.5 56.5q0 31 12 56.5t33.5 44t52 28.5t66.5 10t65.5 -10t51 -28.5t33.5 -44t12 -56.5q0 -32 -14 -54.5t-34 -39.5q24 -17 44 -42.5t20 -65.5q0 -37 -13.5 -65t-37 -47t-56 -29
t-71.5 -10zM738 253q20 0 33 13.5t13 33.5t-13.5 34t-32.5 14q-20 0 -33.5 -14t-13.5 -34t13.5 -33.5t33.5 -13.5zM738 44q24 0 42 16t18 41q0 27 -18 43.5t-42 16.5q-25 0 -43 -16.5t-18 -43.5q0 -25 18 -41t43 -16z" />
    <glyph glyph-name="cid461" unicode="&#x2160;" horiz-adv-x="1000" 
d="M585 -50q0 -6 -3.5 -9t-8.5 -3h-148q-3 0 -7 2t-4 10v809q0 8 4 10t7 2h148q5 0 8.5 -3t3.5 -9v-809z" />
    <glyph glyph-name="cid462" unicode="&#x2161;" horiz-adv-x="1000" 
d="M450 -50q0 -6 -3.5 -9t-8.5 -3h-148q-3 0 -7 2t-4 10v809q0 8 4 10t7 2h148q5 0 8.5 -3t3.5 -9v-809zM720 -50q0 -6 -3.5 -9t-8.5 -3h-148q-3 0 -7 2t-4 10v809q0 8 4 10t7 2h148q5 0 8.5 -3t3.5 -9v-809z" />
    <glyph glyph-name="cid463" unicode="&#x2162;" horiz-adv-x="1000" 
d="M315 -50q0 -6 -3.5 -9t-8.5 -3h-148q-3 0 -7 2t-4 10v809q0 8 4 10t7 2h148q5 0 8.5 -3t3.5 -9v-809zM585 -50q0 -6 -3.5 -9t-8.5 -3h-148q-3 0 -7 2t-4 10v809q0 8 4 10t7 2h148q5 0 8.5 -3t3.5 -9v-809zM855 -50q0 -6 -3.5 -9t-8.5 -3h-148q-3 0 -7 2t-4 10v809
q0 8 4 10t7 2h148q5 0 8.5 -3t3.5 -9v-809z" />
    <glyph glyph-name="cid464" unicode="&#x2163;" horiz-adv-x="1000" 
d="M246 -50q0 -6 -3.5 -9t-8.5 -3h-148q-3 0 -7 2t-4 10v809q0 8 4 10t7 2h148q5 0 8.5 -3t3.5 -9v-809zM761 760q2 5 6 8t12 3h134q9 0 11 -6t0 -10l-227 -804q-3 -13 -15 -13h-154q-12 0 -15 13l-227 804q-2 4 0 10t11 6h134q8 0 12 -3t6 -8l159 -614z" />
    <glyph glyph-name="cid465" unicode="&#x2164;" horiz-adv-x="1000" 
d="M676 760q2 5 6 8t12 3h139q9 0 11 -6t0 -10l-252 -804q-3 -13 -15 -13h-154q-12 0 -15 13l-252 804q-2 4 0 10t11 6h139q8 0 12 -3t6 -8l179 -614z" />
    <glyph glyph-name="cid466" unicode="&#x2165;" horiz-adv-x="1000" 
d="M551 760q2 5 6 8t12 3h134q9 0 11 -6t0 -10l-227 -804q-3 -13 -15 -13h-154q-12 0 -15 13l-227 804q-2 4 0 10t11 6h134q8 0 12 -3t6 -8l159 -614zM925 759q0 6 -3.5 9t-8.5 3h-148q-3 0 -7 -2t-4 -10v-809q0 -8 4 -10t7 -2h148q5 0 8.5 3t3.5 9v809z" />
    <glyph glyph-name="cid467" unicode="&#x2166;" horiz-adv-x="1000" 
d="M401 760q2 5 6 8t12 3h124q9 0 11 -6t0 -10l-157 -804q-3 -13 -15 -13h-154q-12 0 -15 13l-157 804q-2 4 0 10t11 6h124q8 0 12 -3t6 -8l99 -614zM733 759q0 6 -3.5 9t-8.5 3h-126q-3 0 -7 -2t-4 -10v-809q0 -8 4 -10t7 -2h126q5 0 8.5 3t3.5 9v809zM945 759q0 6 -3.5 9
t-8.5 3h-126q-3 0 -7 -2t-4 -10v-809q0 -8 4 -10t7 -2h126q5 0 8.5 3t3.5 9v809z" />
    <glyph glyph-name="cid468" unicode="&#x2167;" horiz-adv-x="1000" 
d="M311 760q2 5 6 8t12 3h94q9 0 11 -6t0 -10l-97 -804q-3 -13 -15 -13h-154q-12 0 -15 13l-97 804q-2 4 0 10t11 6h94q8 0 12 -3t6 -8l69 -644zM591 759q0 6 -3.5 9t-8.5 3h-101q-3 0 -7 -2t-4 -10v-809q0 -8 4 -10t7 -2h101q5 0 8.5 3t3.5 9v809zM768 759q0 6 -3.5 9
t-8.5 3h-101q-3 0 -7 -2t-4 -10v-809q0 -8 4 -10t7 -2h101q5 0 8.5 3t3.5 9v809zM945 759q0 6 -3.5 9t-8.5 3h-101q-3 0 -7 -2t-4 -10v-809q0 -8 4 -10t7 -2h101q5 0 8.5 3t3.5 9v809z" />
    <glyph glyph-name="cid469" unicode="&#x2168;" horiz-adv-x="1000" 
d="M243 -50q0 -6 -3.5 -9t-8.5 -3h-148q-3 0 -7 2t-4 10v809q0 8 4 10t7 2h148q5 0 8.5 -3t3.5 -9v-809zM454 -51q-3 -5 -6.5 -8t-11.5 -3h-150q-9 0 -11 6t0 10l238 414l-229 387q-2 4 0 10t11 6h144q8 0 12 -3t6 -8l143 -261l143 261q2 5 6 8t12 3h144q9 0 11 -6t0 -10
l-229 -387l238 -414q2 -4 0 -10t-11 -6h-150q-8 0 -11.5 3t-6.5 8l-146 269z" />
    <glyph glyph-name="cid470" unicode="&#x2169;" horiz-adv-x="1000" 
d="M354 -51q-3 -5 -6.5 -8t-11.5 -3h-150q-9 0 -11 6t0 10l238 414l-229 387q-2 4 0 10t11 6h144q8 0 12 -3t6 -8l143 -261l143 261q2 5 6 8t12 3h144q9 0 11 -6t0 -10l-229 -387l238 -414q2 -4 0 -10t-11 -6h-150q-8 0 -11.5 3t-6.5 8l-146 269z" />
    <glyph glyph-name="cid451" unicode="&#x2170;" horiz-adv-x="1000" 
d="M402 652v190h195v-125q0 -10 -1 -18t-5 -16q-16 -18 -33 -24.5t-31 -6.5h-125zM584 -50q0 -6 -3.5 -9t-8.5 -3h-146q-3 0 -7 2t-4 10v592h169v-592z" />
    <glyph glyph-name="cid452" unicode="&#x2171;" horiz-adv-x="1000" 
d="M266 652v190h195v-125q0 -10 -1 -18t-5 -16q-16 -18 -33 -24.5t-31 -6.5h-125zM538 652v190h195v-125q0 -10 -1 -18t-5 -16q-16 -18 -33 -24.5t-31 -6.5h-125zM448 -50q0 -6 -3.5 -9t-8.5 -3h-146q-3 0 -7 2t-4 10v592h169v-592zM720 -50q0 -6 -3.5 -9t-8.5 -3h-146
q-3 0 -7 2t-4 10v592h169v-592z" />
    <glyph glyph-name="cid453" unicode="&#x2172;" horiz-adv-x="1000" 
d="M131 652v190h195v-125q0 -10 -1 -18t-5 -16q-16 -18 -33 -24.5t-31 -6.5h-125zM402 652v190h195v-125q0 -10 -1 -18t-5 -16q-16 -18 -33 -24.5t-31 -6.5h-125zM674 652v190h195v-125q0 -10 -1 -18t-5 -16q-16 -18 -33 -24.5t-31 -6.5h-125zM313 -50q0 -6 -3.5 -9t-8.5 -3
h-146q-3 0 -7 2t-4 10v592h169v-592zM585 -50q0 -6 -3.5 -9t-8.5 -3h-146q-3 0 -7 2t-4 10v592h169v-592zM856 -50q0 -6 -3.5 -9t-8.5 -3h-146q-3 0 -7 2t-4 10v592h169v-592z" />
    <glyph glyph-name="cid454" unicode="&#x2173;" horiz-adv-x="1000" 
d="M88 652v190h195v-125q0 -10 -1 -18t-5 -16q-16 -18 -33 -24.5t-31 -6.5h-125zM270 -50q0 -6 -3.5 -9t-8.5 -3h-146q-3 0 -7 2t-4 10v592h169v-592zM543 -62q-10 0 -13 8l-212 580q-2 4 0 10t11 6h133q8 0 12 -3t6 -8l133 -412h3l133 412q2 5 6 8t12 3h133q9 0 11 -6
t0 -10l-212 -580q-3 -8 -13 -8h-143z" />
    <glyph glyph-name="cid455" unicode="&#x2174;" horiz-adv-x="1000" 
d="M428 -62q-10 0 -13 8l-212 580q-2 4 0 10t11 6h133q8 0 12 -3t6 -8l133 -412h3l133 412q2 5 6 8t12 3h133q9 0 11 -6t0 -10l-212 -580q-3 -8 -13 -8h-143z" />
    <glyph glyph-name="cid456" unicode="&#x2175;" horiz-adv-x="1000" 
d="M717 652v190h195v-125q0 -10 -1 -18t-5 -16q-16 -18 -33 -24.5t-31 -6.5h-125zM314 -62q-10 0 -13 8l-212 580q-2 4 0 10t11 6h133q8 0 12 -3t6 -8l133 -412h3l133 412q2 5 6 8t12 3h133q9 0 11 -6t0 -10l-212 -580q-3 -8 -13 -8h-143zM899 -50q0 -6 -3.5 -9t-8.5 -3
h-146q-3 0 -7 2t-4 10v592h169v-592z" />
    <glyph glyph-name="cid457" unicode="&#x2176;" horiz-adv-x="1000" 
d="M529 652v190h185v-125q0 -10 -1 -18t-5 -16q-16 -18 -33 -24.5t-31 -6.5h-115zM765 652v190h185v-125q0 -10 -1 -18t-5 -16q-16 -18 -33 -24.5t-31 -6.5h-115zM206 -62q-10 0 -13 8l-142 580q-2 4 0 10t11 6h118q8 0 12 -3t6 -8l78 -410h3l78 410q2 5 6 8t12 3h118
q9 0 11 -6t0 -10l-142 -580q-3 -8 -13 -8h-143zM701 -50q0 -6 -3.5 -9t-8.5 -3h-136q-3 0 -7 2t-4 10v592h159v-592zM937 -50q0 -6 -3.5 -9t-8.5 -3h-136q-3 0 -7 2t-4 10v592h159v-592z" />
    <glyph glyph-name="cid458" unicode="&#x2177;" horiz-adv-x="1000" 
d="M401 652v190h160v-125q0 -10 -1 -18t-5 -16q-16 -18 -33 -24.5t-31 -6.5h-90zM599 652v190h160v-125q0 -10 -1 -18t-5 -16q-16 -18 -33 -24.5t-31 -6.5h-90zM797 652v190h160v-125q0 -10 -1 -18t-5 -16q-16 -18 -33 -24.5t-31 -6.5h-90zM143 -62q-10 0 -13 8l-87 580
q-2 4 0 10t11 6h88q8 0 12 -3t6 -8l53 -410h3l53 410q2 5 6 8t12 3h88q9 0 11 -6t0 -10l-87 -580q-3 -8 -13 -8h-143zM548 -50q0 -6 -3.5 -9t-8.5 -3h-111q-3 0 -7 2t-4 10v592h134v-592zM746 -50q0 -6 -3.5 -9t-8.5 -3h-111q-3 0 -7 2t-4 10v592h134v-592zM944 -50
q0 -6 -3.5 -9t-8.5 -3h-111q-3 0 -7 2t-4 10v592h134v-592z" />
    <glyph glyph-name="cid459" unicode="&#x2178;" horiz-adv-x="1000" 
d="M86 652v190h195v-125q0 -10 -1 -18t-5 -16q-16 -18 -33 -24.5t-31 -6.5h-125zM268 -50q0 -6 -3.5 -9t-8.5 -3h-146q-3 0 -7 2t-4 10v592h169v-592zM614 137l-124 -188q-3 -5 -6.5 -8t-11.5 -3h-144q-9 0 -11 6t0 10l212 304l-185 268q-2 4 0 10t11 6h147q8 0 12 -3t6 -8
l94 -145l94 145q2 5 6 8t12 3h147q9 0 11 -6t0 -10l-185 -268l212 -304q2 -4 0 -10t-11 -6h-144q-8 0 -11.5 3t-6.5 8z" />
    <glyph glyph-name="cid460" unicode="&#x2179;" horiz-adv-x="1000" 
d="M500 137l-124 -188q-3 -5 -6.5 -8t-11.5 -3h-144q-9 0 -11 6t0 10l212 304l-185 268q-2 4 0 10t11 6h147q8 0 12 -3t6 -8l94 -145l94 145q2 5 6 8t12 3h147q9 0 11 -6t0 -10l-185 -268l212 -304q2 -4 0 -10t-11 -6h-144q-8 0 -11.5 3t-6.5 8z" />
    <glyph glyph-name="cid171" unicode="&#x2190;" 
d="M275 292l160 -106l-69 -99l-356 268l356 266l69 -98l-162 -106h647v-125h-645z" />
    <glyph glyph-name="cid172" unicode="&#x2191;" 
d="M413 552l-106 -155l-99 69l268 346l266 -346l-98 -69l-106 154v-658h-125v659z" />
    <glyph glyph-name="cid170" unicode="&#x2192;" 
d="M29 292v125h651l-155 106l68 98l347 -266l-347 -268l-68 99l154 106h-650z" />
    <glyph glyph-name="cid173" unicode="&#x2193;" 
d="M413 771h125v-659l106 155l98 -70l-266 -345l-268 345l98 70l107 -154v658z" />
    <glyph glyph-name="cid174" unicode="&#x2194;" 
d="M246 292l155 -106l-69 -99l-346 268l346 266l69 -97l-154 -107h456l-155 106l68 98l347 -266l-347 -268l-68 99l154 106h-456z" />
    <glyph glyph-name="cid247" unicode="&#x2195;" 
d="M413 565l-108 -156l-97 68l267 347l267 -347l-99 -68l-105 155v-455l105 153l99 -69l-267 -346l-267 346l97 69l108 -156v459z" />
    <glyph glyph-name="cid250" unicode="&#x2196;" 
d="M222 550l10 -163l-117 -21l-28 430l418 -79l-30 -117l-154 27l552 -617l-90 -85z" />
    <glyph glyph-name="cid248" unicode="&#x2197;" 
d="M167 -65l-90 85l553 616l-156 -26l-30 116l419 80l-28 -430l-117 20l8 162z" />
    <glyph glyph-name="cid251" unicode="&#x2198;" 
d="M726 182l-8 162l117 20l28 -430l-419 80l30 116l157 -27l-554 617l90 85z" />
    <glyph glyph-name="cid249" unicode="&#x2199;" 
d="M783 815l90 -85l-554 -618l156 28l30 -117l-418 -79l28 430l117 -21l-10 -163z" />
    <glyph glyph-name="cid195" unicode="&#x21d2;" 
d="M603 46l-81 87l76 71h-571v118h699l45 43l-45 44h-699v118h573l-78 70l81 88l343 -320z" />
    <glyph glyph-name="cid196" unicode="&#x21d4;" 
d="M0 365l335 318l82 -86l-78 -70h271l-78 70l82 86l336 -318l-336 -318l-82 86l76 71h-269l78 -71l-82 -86zM736 409h-524l-44 -44l44 -43h524l46 44z" />
    <glyph glyph-name="cid197" unicode="&#x2200;" horiz-adv-x="769" 
d="M468 -51q-3 -11 -14 -11h-138q-11 0 -14 11l-286 806q-2 4 0 10t11 6h133q8 0 12 -3t6 -8l57 -172h299l57 172q2 5 6 8t12 3h133q9 0 11 -6t0 -10zM385 131l104 321h-209z" />
    <glyph glyph-name="cid151" unicode="&#x2202;" horiz-adv-x="695" 
d="M475 416q0 59 -12.5 101t-33.5 68.5t-49 39t-60 12.5q-23 0 -47.5 -4.5t-48 -13.5t-43.5 -22.5t-35 -31.5q-9 -4 -14 1l-65 97q-6 8 1 15q45 54 112 77.5t146 23.5q55 0 111.5 -22t103 -68.5t75.5 -119.5t28 -175v-73q0 -98 -23.5 -171.5t-64 -122.5t-93.5 -73t-113 -24
q-72 0 -127.5 26.5t-94 77.5t-58.5 124.5t-20 168.5v89h425zM220 295q0 -229 126 -229q57 0 92.5 56.5t36.5 172.5h-255z" />
    <glyph glyph-name="cid198" unicode="&#x2203;" horiz-adv-x="641" 
d="M391 415v216h-340q-6 0 -8.5 3.5t-2.5 6.5v118q0 8 3.5 10t6.5 2h500q3 0 7 -2t4 -10v-806q0 -6 -3.5 -10.5t-11.5 -4.5h-495q-6 0 -8.5 3.5t-2.5 6.5v118q0 8 3.5 10t6.5 2h341v198h-311q-6 0 -8.5 3.5t-2.5 6.5v117q0 8 3.5 10t6.5 2h312z" />
    <glyph glyph-name="cid152" unicode="&#x2207;" 
d="M471 -50l-462 767h931zM246 630l252 -422l261 422h-513z" />
    <glyph glyph-name="cid184" unicode="&#x2208;" 
d="M869 424v-136h-630q10 -33 28 -55.5t42 -36.5t51 -20t55 -6h456v-134h-462q-72 0 -132.5 21t-104.5 61.5t-69 100t-25 137.5q0 75 22 135t63.5 101t101.5 63t136 22h465v-134h-448q-29 0 -57 -6t-52 -20t-42 -37t-28 -56h630z" />
    <glyph glyph-name="cid185" unicode="&#x220b;" 
d="M80 425h629q-9 35 -27 58t-42 36.5t-52 18.5t-57 5h-448v134h465q76 0 136 -22t101.5 -63t63.5 -101t22 -135q0 -78 -24.5 -137.5t-68.5 -100t-104.5 -61.5t-133.5 -21h-462v134h456q28 0 56 5t51 18.5t41 36.5t27 58h-629v137z" />
    <glyph glyph-name="cid213" unicode="&#x220f;" 
d="M693 648v-708h-147v708h-142v-708h-148v708h-134v123h706v-123h-135z" />
    <glyph glyph-name="cid212" unicode="&#x2211;" 
d="M165 -62v49l311 363l-309 340v81h602v-93h-389l272 -304l-264 -304h396v-132h-619z" />
    <glyph glyph-name="cid178" unicode="&#x221a;" 
d="M451 -167h-127l-165 349h-131v96h273l116 -249l396 786h127z" />
    <glyph glyph-name="cid180" unicode="&#x221d;" 
d="M865 153q-38 -30 -79 -41t-79 -11q-65 0 -112 28.5t-82 79.5q-35 -51 -81 -79.5t-110 -28.5q-50 0 -94.5 16t-78 46t-53 73t-19.5 97t19.5 97t53 73.5t78 47t94.5 16.5q62 0 110 -29.5t81 -77.5q35 48 83.5 77.5t110.5 29.5q50 0 92 -17t78 -45l-54 -102q-29 20 -60 33
t-56 13q-45 0 -78.5 -33.5t-50.5 -82.5q8 -21 21.5 -41t31 -36t37 -26t39.5 -10t50.5 9t61.5 32zM211 333q0 -58 33 -85.5t78 -27.5q19 0 38.5 10t37 26t31.5 36t22 41q-17 49 -50.5 82.5t-78.5 33.5q-47 0 -79 -29t-32 -87z" />
    <glyph glyph-name="cid136" unicode="&#x221e;" 
d="M668 103q-65 0 -112 28.5t-82 79.5q-35 -51 -82 -79.5t-111 -28.5q-50 0 -94.5 16t-77.5 46t-52.5 73t-19.5 97q0 53 19.5 96.5t52.5 74t77.5 47t94.5 16.5q62 0 110 -29.5t83 -77.5q35 48 83.5 77.5t110.5 29.5q50 0 94.5 -16.5t77.5 -47t52.5 -74t19.5 -96.5
q0 -54 -19.5 -97t-52.5 -73t-77.5 -46t-94.5 -16zM170 335q0 -29 9 -50t24.5 -35t35.5 -21t42 -7q19 0 39 10t37.5 25.5t31.5 35.5t22 41q-17 48 -50.5 82.5t-79.5 34.5t-78.5 -29t-32.5 -87zM779 335q0 58 -32 87t-79 29q-46 0 -79 -34.5t-50 -82.5q8 -21 21.5 -41
t31 -35.5t37 -25.5t39.5 -10q45 0 78 27.5t33 85.5z" />
    <glyph glyph-name="cid148" unicode="&#x2220;" horiz-adv-x="992" 
d="M386 139h552v-147h-907l755 769l98 -108z" />
    <glyph glyph-name="cid192" unicode="&#x2227;" 
d="M476 815l406 -777l-146 -74l-260 534l-263 -534l-146 74z" />
    <glyph glyph-name="cid193" unicode="&#x2228;" 
d="M67 684l146 74l263 -536l260 536l146 -74l-406 -778z" />
    <glyph glyph-name="cid191" unicode="&#x2229;" 
d="M475 645q-91 0 -137 -51.5t-46 -154.5v-480h-158v492q0 71 23 133t66.5 107.5t107 72t144.5 26.5q82 0 145 -26.5t106.5 -72t66 -107.5t22.5 -133v-492h-157v480q0 206 -183 206z" />
    <glyph glyph-name="cid190" unicode="&#x222a;" 
d="M475 60q183 0 183 208v480h157v-492q0 -71 -22.5 -133t-66 -108t-106.5 -72t-145 -26q-81 0 -144.5 26t-107 72t-66.5 108t-23 133v492h158v-480q0 -103 46 -155.5t137 -52.5z" />
    <glyph glyph-name="cid182" unicode="&#x222b;" 
d="M512 -61q-4 -35 -22 -71.5t-53 -65t-88.5 -45t-128.5 -11.5l20 119q56 3 91 32t42 65l93 738q4 42 20 81.5t47 69.5t79 46t117 12l-17 -120q-21 1 -39.5 -7.5t-32.5 -23.5t-23.5 -34.5t-12.5 -40.5z" />
    <glyph glyph-name="cid183" unicode="&#x222c;" 
d="M369 -61q-5 -35 -23 -71.5t-53 -65t-88 -45t-127 -11.5l18 119q29 1 52 10t40 22.5t27.5 30t13.5 34.5l93 739q5 42 21 81t47 69t79 46t117 12l-17 -120q-21 1 -40 -7t-33 -22.5t-23 -34.5t-11 -42zM653 -61q-5 -35 -23.5 -71t-53.5 -64.5t-88 -45.5t-126 -12l18 119
q28 1 51.5 9.5t41 22t28.5 30.5t14 35l92 739q5 41 21.5 80.5t47.5 69.5t79 46t116 12l-19 -120q-20 1 -38 -7.5t-32 -23.5t-23.5 -34.5t-12.5 -40.5z" />
    <glyph glyph-name="cid211" unicode="&#x222e;" 
d="M578 621q43 -15 78.5 -41t60.5 -60.5t38.5 -75.5t13.5 -87q0 -53 -19 -100.5t-52.5 -85t-80 -62.5t-101.5 -32l-20 -138q-5 -35 -22.5 -71.5t-52 -65t-88 -45t-129.5 -11.5l19 119q28 1 51.5 9.5t40.5 22t28 30.5t14 35l18 130q-45 15 -80.5 41t-61 60.5t-39 76
t-13.5 87.5q0 55 19 103.5t53.5 86.5t81.5 62.5t104 30.5q3 23 4 35.5t5 35.5q5 41 21 79t47.5 66t79.5 42.5t116 10.5l-19 -120q-41 2 -70.5 -25.5t-36.5 -70.5zM306 357q0 -47 22 -84t60 -60l37 306q-26 -8 -48 -24t-38 -37t-24.5 -47t-8.5 -54zM643 357q0 47 -21.5 83.5
t-58.5 59.5l-33 -302q51 17 82 60.5t31 98.5z" />
    <glyph glyph-name="cid137" unicode="&#x2234;" 
d="M370 648q0 8 2.5 11.5t10.5 3.5h187q11 0 11 -14v-176q0 -6 -3 -10.5t-8 -4.5h-187q-8 0 -10.5 4t-2.5 12v174zM100 238q0 8 2.5 11.5t10.5 3.5h187q11 0 11 -14v-176q0 -6 -3 -10.5t-8 -4.5h-187q-8 0 -10.5 4t-2.5 12v174zM639 238q0 8 2.5 11.5t10.5 3.5h187
q11 0 11 -14v-176q0 -6 -3 -10.5t-8 -4.5h-187q-8 0 -10.5 4t-2.5 12v174z" />
    <glyph glyph-name="cid181" unicode="&#x2235;" 
d="M100 647q0 8 2.5 12t10.5 4h187q5 0 8 -4.5t3 -10.5v-176q0 -14 -11 -14h-187q-8 0 -10.5 3.5t-2.5 11.5v174zM639 647q0 8 2.5 12t10.5 4h187q5 0 8 -4.5t3 -10.5v-176q0 -14 -11 -14h-187q-8 0 -10.5 3.5t-2.5 11.5v174zM370 237q0 8 2.5 12t10.5 4h187q5 0 8 -4.5
t3 -10.5v-176q0 -14 -11 -14h-187q-8 0 -10.5 3.5t-2.5 11.5v174z" />
    <glyph glyph-name="cid18355" unicode="&#x223c;" horiz-adv-x="864" 
d="M209 213q-5 -10 -14 -3l-101 74q-6 4 -3 9q23 40 48.5 65.5t51.5 40.5t52 21t51 6q46 0 79.5 -12.5t71.5 -37.5q22 -14 38 -23t28.5 -14t24 -7t24.5 -2q23 0 45 20.5t40 55.5q5 10 14 3l111 -81q6 -4 3 -9q-21 -38 -46.5 -63.5t-52.5 -40.5t-54.5 -21.5t-52.5 -6.5
q-42 0 -76.5 12t-76.5 38q-26 16 -43 25.5t-30 14t-23 6t-20 1.5q-25 0 -45 -17t-44 -54z" />
    <glyph glyph-name="cid179" unicode="&#x223d;" horiz-adv-x="864" 
d="M209 400q24 -37 44 -54t45 -17q10 0 20 1.5t23 6t30 14t43 25.5q42 26 76.5 38t76.5 12q25 0 52.5 -6.5t54.5 -21.5t52.5 -40.5t46.5 -63.5q3 -5 -3 -9l-111 -81q-9 -7 -14 3q-18 35 -40 55.5t-45 20.5q-13 0 -24.5 -2t-24 -7t-28.5 -14t-38 -23q-38 -25 -71.5 -37.5
t-79.5 -12.5q-25 0 -51 6t-52 21t-51.5 40.5t-48.5 65.5q-3 5 3 9l101 74q9 7 14 -3z" />
    <glyph glyph-name="cid154" unicode="&#x2252;" horiz-adv-x="821" 
d="M150 788q0 8 2.5 11.5t10.5 3.5h187q11 0 11 -14v-176q0 -6 -3 -10.5t-8 -4.5h-187q-8 0 -10.5 4t-2.5 12v174zM100 377q-10 0 -10 10v116q0 10 10 10h621q10 0 10 -10v-116q0 -10 -10 -10h-621zM100 147q-10 0 -10 10v116q0 10 10 10h621q10 0 10 -10v-116
q0 -10 -10 -10h-621zM450 48q0 8 2.5 11.5t10.5 3.5h187q11 0 11 -14v-176q0 -6 -3 -10.5t-8 -4.5h-187q-8 0 -10.5 4t-2.5 12v174z" />
    <glyph glyph-name="cid133" unicode="&#x2260;" horiz-adv-x="781" 
d="M537 523h144q10 0 10 -10v-116q0 -10 -10 -10h-199l-46 -114h245q10 0 10 -10v-116q0 -10 -10 -10h-300l-105 -260q-3 -5 -6.5 -8t-11.5 -3h-120q-9 0 -11 6t0 10l103 255h-130q-10 0 -10 10v116q0 10 10 10h185l46 114h-231q-10 0 -10 10v116q0 10 10 10h286l82 204
q3 5 6.5 8t11.5 3h120q9 0 11 -6t0 -10z" />
    <glyph glyph-name="cid153" unicode="&#x2261;" horiz-adv-x="781" 
d="M100 477q-10 0 -10 10v116q0 10 10 10h581q10 0 10 -10v-116q0 -10 -10 -10h-581zM100 257q-10 0 -10 10v116q0 10 10 10h581q10 0 10 -10v-116q0 -10 -10 -10h-581zM100 37q-10 0 -10 10v116q0 10 10 10h581q10 0 10 -10v-116q0 -10 -10 -10h-581z" />
    <glyph glyph-name="cid134" unicode="&#x2264;" 
d="M778 757l57 -129l-434 -177l434 -177l-57 -130l-718 307zM82 -38v126h788v-126h-788z" />
    <glyph glyph-name="cid135" unicode="&#x2265;" 
d="M890 451l-718 -307l-57 130l433 177l-433 177l57 129zM80 -38v126h788v-126h-788z" />
    <glyph glyph-name="cid188" unicode="&#x2282;" 
d="M234 356q0 -54 15.5 -90t41 -57t58 -29.5t65.5 -8.5h460v-137h-466q-72 0 -133 23t-105.5 65t-69 101.5t-24.5 132.5q0 71 22 130.5t64 102t102.5 66.5t136.5 24h467v-138h-450q-35 0 -68 -8.5t-59 -29.5t-41.5 -57t-15.5 -90z" />
    <glyph glyph-name="cid189" unicode="&#x2283;" 
d="M715 356q0 54 -16 90t-42 57t-59 29.5t-68 8.5h-449v138h467q76 0 136.5 -24t102.5 -66.5t64.5 -102t22.5 -130.5q0 -73 -25 -132.5t-69 -101.5t-105.5 -65t-134.5 -23h-464v137h458q34 0 66.5 8.5t58 29.5t41 57t15.5 90z" />
    <glyph glyph-name="cid186" unicode="&#x2286;" 
d="M406 609q-36 0 -66.5 -7t-53 -24t-35.5 -44.5t-13 -68.5t13 -68t35.5 -44t53 -24t66.5 -7h444v-136h-452q-68 0 -124.5 18.5t-97 54t-63 87.5t-22.5 119t22.5 119t63 88t97 54.5t124.5 18.5h452v-136h-444zM859 101v-135h-754v135h754z" />
    <glyph glyph-name="cid187" unicode="&#x2287;" 
d="M102 609v136h452q68 0 124 -18.5t95.5 -54.5t61.5 -88t22 -119t-22 -119t-61.5 -87.5t-95.5 -54t-124 -18.5h-452v136h443q36 0 66.5 7t53 24t35.5 44t13 68t-13 68.5t-35.5 44.5t-53 24t-66.5 7h-443zM846 101v-135h-754v135h754z" />
    <glyph glyph-name="cid227" unicode="&#x2299;" 
d="M931 319q0 -95 -36 -178.5t-98 -145.5t-145 -98t-177 -36q-93 0 -176.5 36t-145.5 98t-98.5 145.5t-36.5 178.5q0 94 36.5 176.5t98.5 144.5t145.5 98t176.5 36q94 0 177 -36t145 -98t98 -144.5t36 -176.5zM97 319q0 -78 30 -148t81 -122.5t120 -83t147 -30.5t147.5 30.5
t121 83t82 122.5t30.5 148t-30.5 147.5t-82 122t-121 83t-147.5 30.5t-147 -30.5t-120 -83t-81 -122t-30 -147.5zM476 245q-37 0 -65 22.5t-28 62.5q0 38 25.5 62t67.5 24q19 0 35.5 -6.5t29 -17.5t20 -27t7.5 -35q0 -36 -27 -60.5t-65 -24.5z" />
    <glyph glyph-name="cid227" unicode="&#x25c9;" 
d="M931 319q0 -95 -36 -178.5t-98 -145.5t-145 -98t-177 -36q-93 0 -176.5 36t-145.5 98t-98.5 145.5t-36.5 178.5q0 94 36.5 176.5t98.5 144.5t145.5 98t176.5 36q94 0 177 -36t145 -98t98 -144.5t36 -176.5zM97 319q0 -78 30 -148t81 -122.5t120 -83t147 -30.5t147.5 30.5
t121 83t82 122.5t30.5 148t-30.5 147.5t-82 122t-121 83t-147.5 30.5t-147 -30.5t-120 -83t-81 -122t-30 -147.5zM476 245q-37 0 -65 22.5t-28 62.5q0 38 25.5 62t67.5 24q19 0 35.5 -6.5t29 -17.5t20 -27t7.5 -35q0 -36 -27 -60.5t-65 -24.5z" />
    <glyph glyph-name="cid149" unicode="&#x22a5;" 
d="M105 126h306v549h131v-549h302v-123h-739v123z" />
    <glyph glyph-name="cid149" unicode="&#x27c2;" 
d="M105 126h306v549h131v-549h302v-123h-739v123z" />
    <glyph glyph-name="cid150" unicode="&#x2312;" 
d="M52 -59q15 86 51 160t90.5 128t125.5 85t156 31q90 0 163 -33.5t127 -89.5t87.5 -129t45.5 -152h-166q-13 61 -34 110.5t-51.5 84t-73 53t-98.5 18.5t-99.5 -19t-75.5 -54t-52.5 -84t-29.5 -109h-166z" />
    <glyph glyph-name="cid733" unicode="&#x2460;" 
d="M475 -146q-96 0 -181 36t-148.5 101t-100.5 156t-37 201t37 201t100.5 156t148.5 101t181 36t181 -36t148.5 -101t100.5 -156t37 -201t-37 -201t-100.5 -156t-148.5 -101t-181 -36zM475 -53q76 0 142 28.5t114.5 81t76 126.5t27.5 165q0 90 -27.5 163.5t-75.5 126
t-114 81.5t-143 29t-143 -29t-114 -81.5t-75.5 -126t-27.5 -163.5q0 -91 27.5 -165t76 -126.5t114 -81t142.5 -28.5zM548 628q11 0 14.5 -6t3.5 -14v-518q0 -8 -5.5 -12.5t-11.5 -4.5h-94q-6 0 -11 3.5t-5 13.5v407l-99 -50q-10 -6 -16 -3.5t-6 17.5v75q0 10 2.5 14t7.5 7
l141 71h79z" />
    <glyph glyph-name="cid734" unicode="&#x2461;" 
d="M475 -146q-96 0 -181 36t-148.5 101t-100.5 156t-37 201t37 201t100.5 156t148.5 101t181 36t181 -36t148.5 -101t100.5 -156t37 -201t-37 -201t-100.5 -156t-148.5 -101t-181 -36zM475 -53q76 0 142 28.5t114.5 81t76 126.5t27.5 165q0 90 -27.5 163.5t-75.5 126
t-114 81.5t-143 29t-143 -29t-114 -81.5t-75.5 -126t-27.5 -163.5q0 -91 27.5 -165t76 -126.5t114 -81t142.5 -28.5zM365 493q-9 -6 -15.5 -3t-9.5 9l-38 61q-9 16 6 24q32 22 73 39.5t85 17.5q46 0 81 -12t58.5 -33.5t35.5 -51.5t12 -65q0 -33 -8 -61t-23 -54t-37 -52
t-50 -55l-64 -59h169q8 0 12 -3t4 -14v-72q0 -11 -3.5 -15t-11.5 -4h-334v82q0 8 2 12.5t7 10.5l120 122q25 25 42.5 44.5t28.5 37t16 34.5t5 38q0 10 -2.5 21t-10 20t-20 15t-33.5 6q-20 0 -47 -13t-50 -27z" />
    <glyph glyph-name="cid735" unicode="&#x2462;" 
d="M475 -146q-96 0 -181 36t-148.5 101t-100.5 156t-37 201t37 201t100.5 156t148.5 101t181 36t181 -36t148.5 -101t100.5 -156t37 -201t-37 -201t-100.5 -156t-148.5 -101t-181 -36zM475 -53q76 0 142 28.5t114.5 81t76 126.5t27.5 165q0 90 -27.5 163.5t-75.5 126
t-114 81.5t-143 29t-143 -29t-114 -81.5t-75.5 -126t-27.5 -163.5q0 -91 27.5 -165t76 -126.5t114 -81t142.5 -28.5zM371 237q11 -22 32.5 -41t55.5 -19q35 0 55 19t21 49q0 28 -14.5 44t-36.5 24t-48 10t-48 2v67l94 120h-172q-5 0 -11 3t-6 14v73q0 17 17 17h312
q9 0 13 -6t4 -11v-59q0 -9 -2 -13t-7 -11l-89 -113q54 -16 86.5 -56t32.5 -106q0 -38 -14.5 -70t-41 -55t-62.5 -36t-79 -13q-61 0 -109 28t-76 82q-8 16 5 24l63 40q6 5 13 3.5t12 -10.5z" />
    <glyph glyph-name="cid736" unicode="&#x2463;" 
d="M475 -146q-96 0 -181 36t-148.5 101t-100.5 156t-37 201t37 201t100.5 156t148.5 101t181 36t181 -36t148.5 -101t100.5 -156t37 -201t-37 -201t-100.5 -156t-148.5 -101t-181 -36zM475 -53q76 0 142 28.5t114.5 81t76 126.5t27.5 165q0 90 -27.5 163.5t-75.5 126
t-114 81.5t-143 29t-143 -29t-114 -81.5t-75.5 -126t-27.5 -163.5q0 -91 27.5 -165t76 -126.5t114 -81t142.5 -28.5zM499 77q-9 0 -13 3.5t-4 14.5v81h-222q-8 0 -12.5 3.5t-4.5 14.5v49q0 9 4 18l180 357q2 5 6.5 9.5t13.5 4.5h86q13 0 16 -9t0 -18l-158 -324h91v145
q0 18 17 18h86q8 0 12 -5t4 -12v-146h40q8 0 12.5 -3t4.5 -15v-69q0 -11 -4.5 -14.5t-12.5 -3.5h-40v-81q0 -8 -2.5 -13t-13.5 -5h-86z" />
    <glyph glyph-name="cid737" unicode="&#x2464;" 
d="M475 -146q-96 0 -181 36t-148.5 101t-100.5 156t-37 201t37 201t100.5 156t148.5 101t181 36t181 -36t148.5 -101t100.5 -156t37 -201t-37 -201t-100.5 -156t-148.5 -101t-181 -36zM475 -53q76 0 142 28.5t114.5 81t76 126.5t27.5 165q0 90 -27.5 163.5t-75.5 126
t-114 81.5t-143 29t-143 -29t-114 -81.5t-75.5 -126t-27.5 -163.5q0 -91 27.5 -165t76 -126.5t114 -81t142.5 -28.5zM377 231q11 -23 32 -40.5t54 -17.5q35 0 54 20t19 52q0 20 -7 34t-18.5 23t-25.5 13t-27 5q-23 1 -38.5 -2t-35.5 -10h-84l22 288q2 19 19 19h274
q11 0 14 -6t3 -11v-73q0 -12 -5 -15t-11 -3h-176l-9 -85q10 2 20.5 1.5t21.5 -0.5q38 0 72.5 -11t60 -33.5t40.5 -56t15 -78.5q0 -39 -14 -72t-39.5 -56.5t-61.5 -36.5t-79 -13q-61 0 -109.5 27.5t-74.5 81.5q-6 14 6 23l63 40q15 8 25 -7z" />
    <glyph glyph-name="cid738" unicode="&#x2465;" 
d="M475 -146q-96 0 -181 36t-148.5 101t-100.5 156t-37 201t37 201t100.5 156t148.5 101t181 36t181 -36t148.5 -101t100.5 -156t37 -201t-37 -201t-100.5 -156t-148.5 -101t-181 -36zM475 -53q76 0 142 28.5t114.5 81t76 126.5t27.5 165q0 90 -27.5 163.5t-75.5 126
t-114 81.5t-143 29t-143 -29t-114 -81.5t-75.5 -126t-27.5 -163.5q0 -91 27.5 -165t76 -126.5t114 -81t142.5 -28.5zM475 450h25q33 -2 64 -15t56 -36t40 -55t15 -71q0 -44 -15.5 -79.5t-43 -61t-64.5 -39t-80 -13.5q-44 0 -81.5 14.5t-65 40t-43 60t-15.5 74.5
q0 47 14.5 83t41.5 77l126 192q4 7 7 10t12 3h98q12 0 15.5 -8t-0.5 -18zM390 268q0 -34 21.5 -57t59.5 -23q36 0 58.5 21.5t22.5 59.5q0 37 -22.5 59t-57.5 22q-36 0 -59 -22t-23 -60z" />
    <glyph glyph-name="cid739" unicode="&#x2466;" 
d="M475 -146q-96 0 -181 36t-148.5 101t-100.5 156t-37 201t37 201t100.5 156t148.5 101t181 36t181 -36t148.5 -101t100.5 -156t37 -201t-37 -201t-100.5 -156t-148.5 -101t-181 -36zM475 -53q76 0 142 28.5t114.5 81t76 126.5t27.5 165q0 90 -27.5 163.5t-75.5 126
t-114 81.5t-143 29t-143 -29t-114 -81.5t-75.5 -126t-27.5 -163.5q0 -91 27.5 -165t76 -126.5t114 -81t142.5 -28.5zM469 68q-3 -5 -7.5 -8.5t-12.5 -3.5h-93q-14 0 -16.5 9.5t1.5 15.5l183 416h-218q-4 0 -9.5 3t-5.5 15v73q0 5 4 11t12 6h342q8 0 12 -6t4 -11v-61
q0 -8 -1.5 -13t-4.5 -13z" />
    <glyph glyph-name="cid740" unicode="&#x2467;" 
d="M475 -146q-96 0 -181 36t-148.5 101t-100.5 156t-37 201t37 201t100.5 156t148.5 101t181 36t181 -36t148.5 -101t100.5 -156t37 -201t-37 -201t-100.5 -156t-148.5 -101t-181 -36zM475 -53q76 0 142 28.5t114.5 81t76 126.5t27.5 165q0 90 -27.5 163.5t-75.5 126
t-114 81.5t-143 29t-143 -29t-114 -81.5t-75.5 -126t-27.5 -163.5q0 -91 27.5 -165t76 -126.5t114 -81t142.5 -28.5zM475 75q-44 0 -80.5 11.5t-63 33t-41.5 53t-15 71.5q0 48 22 77.5t51 49.5q-23 17 -39 43t-16 64q0 34 13 63t37 49.5t57.5 32t74.5 11.5q40 0 73.5 -11.5
t57.5 -32t37.5 -49.5t13.5 -63q0 -40 -15.5 -65t-39.5 -44q29 -19 51 -48t22 -77q0 -40 -15 -71.5t-42 -53t-63.5 -33t-79.5 -11.5zM475 415q26 0 42 17.5t16 43.5t-17 42.5t-41 16.5t-41 -16.5t-17 -42.5t16 -43.5t42 -17.5zM475 176q31 0 52.5 18.5t21.5 49.5
q0 35 -21.5 55.5t-52.5 20.5t-52.5 -20.5t-21.5 -55.5q0 -31 21.5 -49.5t52.5 -18.5z" />
    <glyph glyph-name="cid741" unicode="&#x2468;" 
d="M475 -146q-96 0 -181 36t-148.5 101t-100.5 156t-37 201t37 201t100.5 156t148.5 101t181 36t181 -36t148.5 -101t100.5 -156t37 -201t-37 -201t-100.5 -156t-148.5 -101t-181 -36zM475 -53q76 0 142 28.5t114.5 81t76 126.5t27.5 165q0 90 -27.5 163.5t-75.5 126
t-114 81.5t-143 29t-143 -29t-114 -81.5t-75.5 -126t-27.5 -163.5q0 -91 27.5 -165t76 -126.5t114 -81t142.5 -28.5zM484 260h-12.5t-12.5 1q-33 1 -64.5 14.5t-56 36.5t-39.5 55t-15 71q0 43 15.5 79t42.5 61t64 39t81 14t81.5 -14.5t65 -40t43 -60.5t15.5 -75
q0 -47 -14.5 -82.5t-42.5 -77.5l-126 -193q-2 -5 -5.5 -8t-12.5 -3h-98q-14 0 -16.5 9t1.5 17zM568 442q0 34 -21 57.5t-59 23.5q-37 0 -59.5 -21.5t-22.5 -60.5q0 -36 23 -58t58 -22t58 22t23 59z" />
    <glyph glyph-name="cid742" unicode="&#x2469;" 
d="M475 -146q-96 0 -181 36t-148.5 101t-100.5 156t-37 201t37 201t100.5 156t148.5 101t181 36t181 -36t148.5 -101t100.5 -156t37 -201t-37 -201t-100.5 -156t-148.5 -101t-181 -36zM475 -53q76 0 142 28.5t114.5 81t76 126.5t27.5 165q0 90 -27.5 163.5t-75.5 126
t-114 81.5t-143 29t-143 -29t-114 -81.5t-75.5 -126t-27.5 -163.5q0 -91 27.5 -165t76 -126.5t114 -81t142.5 -28.5zM780 354q0 -133 -46 -195t-133 -62q-88 0 -133.5 62t-45.5 195q0 134 45.5 196t133.5 62t133.5 -62t45.5 -196zM363 608q11 0 14.5 -6t3.5 -14v-478
q0 -8 -5.5 -12.5t-11.5 -4.5h-86q-6 0 -11 3.5t-5 13.5v361l-69 -44q-10 -6 -16 -3.5t-6 17.5v75q0 10 2.5 14t7.5 7l111 71h71zM662 354q0 26 -2 52.5t-8 48.5t-18 35.5t-33 13.5t-33.5 -13.5t-19 -35.5t-8.5 -48.5t-2 -52.5t2 -52.5t8.5 -48.5t19 -35.5t33.5 -13.5
t33 13.5t18 35.5t8 48.5t2 52.5z" />
    <glyph glyph-name="cid743" unicode="&#x246a;" 
d="M475 -146q-96 0 -181 36t-148.5 101t-100.5 156t-37 201t37 201t100.5 156t148.5 101t181 36t181 -36t148.5 -101t100.5 -156t37 -201t-37 -201t-100.5 -156t-148.5 -101t-181 -36zM475 -53q76 0 142 28.5t114.5 81t76 126.5t27.5 165q0 90 -27.5 163.5t-75.5 126
t-114 81.5t-143 29t-143 -29t-114 -81.5t-75.5 -126t-27.5 -163.5q0 -91 27.5 -165t76 -126.5t114 -81t142.5 -28.5zM408 618q11 0 14.5 -6t3.5 -14v-498q0 -8 -5.5 -12.5t-11.5 -4.5h-94q-6 0 -11 3.5t-5 13.5v387l-89 -50q-10 -6 -16 -3.5t-6 17.5v75q0 10 2.5 14t7.5 7
l131 71h79zM698 618q11 0 14.5 -6t3.5 -14v-498q0 -8 -5.5 -12.5t-11.5 -4.5h-94q-6 0 -11 3.5t-5 13.5v387l-99 -50q-10 -6 -16 -3.5t-6 17.5v75q0 10 2.5 14t7.5 7l141 71h79z" />
    <glyph glyph-name="cid744" unicode="&#x246b;" 
d="M475 -146q-96 0 -181 36t-148.5 101t-100.5 156t-37 201t37 201t100.5 156t148.5 101t181 36t181 -36t148.5 -101t100.5 -156t37 -201t-37 -201t-100.5 -156t-148.5 -101t-181 -36zM475 -53q76 0 142 28.5t114.5 81t76 126.5t27.5 165q0 90 -27.5 163.5t-75.5 126
t-114 81.5t-143 29t-143 -29t-114 -81.5t-75.5 -126t-27.5 -163.5q0 -91 27.5 -165t76 -126.5t114 -81t142.5 -28.5zM475 486q-9 -6 -15.5 -3t-9.5 9l-38 58q-9 16 6 24q32 22 73 39.5t85 17.5q87 0 130.5 -43t43.5 -114q0 -33 -6 -59t-19.5 -50t-34.5 -47.5t-51 -50.5
l-63 -62h163q8 0 12 -3t4 -14v-69q0 -11 -3.5 -15t-11.5 -4h-319v81q0 8 2 12.5t7 10.5l112 113q25 25 42.5 44t28.5 36.5t16.5 34t5.5 37.5q0 20 -14 38t-49 19q-20 1 -47 -12.5t-50 -27.5zM363 608q11 0 14.5 -6t3.5 -14v-478q0 -8 -5.5 -12.5t-11.5 -4.5h-86
q-6 0 -11 3.5t-5 13.5v361l-69 -44q-10 -6 -16 -3.5t-6 17.5v75q0 10 2.5 14t7.5 7l111 71h71z" />
    <glyph glyph-name="cid745" unicode="&#x246c;" 
d="M475 -146q-96 0 -181 36t-148.5 101t-100.5 156t-37 201t37 201t100.5 156t148.5 101t181 36t181 -36t148.5 -101t100.5 -156t37 -201t-37 -201t-100.5 -156t-148.5 -101t-181 -36zM475 -53q76 0 142 28.5t114.5 81t76 126.5t27.5 165q0 90 -27.5 163.5t-75.5 126
t-114 81.5t-143 29t-143 -29t-114 -81.5t-75.5 -126t-27.5 -163.5q0 -91 27.5 -165t76 -126.5t114 -81t142.5 -28.5zM363 608q11 0 14.5 -6t3.5 -14v-478q0 -8 -5.5 -12.5t-11.5 -4.5h-86q-6 0 -11 3.5t-5 13.5v361l-72 -44q-10 -6 -16 -3.5t-6 17.5v75q0 10 2.5 14t7.5 7
l111 71h74zM498 245q6 -11 13.5 -22t17 -20t22 -14.5t28.5 -5.5q35 0 51.5 18t17.5 47q1 27 -11 42.5t-31 23.5t-42.5 10t-45.5 2v64l86 113h-164q-5 0 -11 3t-6 14v70q0 17 17 17h285q9 0 13 -6t4 -11v-56q0 -9 -2 -13t-7 -11l-82 -106q51 -16 83 -54t32 -103
q0 -37 -13 -68t-37 -53.5t-57.5 -35t-75.5 -12.5q-61 0 -104 28t-71 82q-8 16 5 24l60 40q6 5 13 3.5t12 -10.5z" />
    <glyph glyph-name="cid746" unicode="&#x246d;" 
d="M475 -146q-96 0 -181 36t-148.5 101t-100.5 156t-37 201t37 201t100.5 156t148.5 101t181 36t181 -36t148.5 -101t100.5 -156t37 -201t-37 -201t-100.5 -156t-148.5 -101t-181 -36zM475 -53q76 0 142 28.5t114.5 81t76 126.5t27.5 165q0 90 -27.5 163.5t-75.5 126
t-114 81.5t-143 29t-143 -29t-114 -81.5t-75.5 -126t-27.5 -163.5q0 -91 27.5 -165t76 -126.5t114 -81t142.5 -28.5zM640 87q-9 0 -13 3.5t-4 14.5v71h-198q-8 0 -12.5 3.5t-4.5 14.5v49q0 9 4 18l155 337q2 5 6.5 9.5t13.5 4.5h75q13 0 16 -9t0 -18l-135 -308h80v129
q0 18 17 18h76q8 0 12 -5t4 -12v-130h35q8 0 12.5 -3t4.5 -15v-65q0 -11 -4.5 -14.5t-12.5 -3.5h-35v-71q0 -8 -2.5 -13t-13.5 -5h-76zM363 608q11 0 14.5 -6t3.5 -14v-478q0 -8 -5.5 -12.5t-11.5 -4.5h-86q-6 0 -11 3.5t-5 13.5v361l-72 -44q-10 -6 -16 -3.5t-6 17.5v75
q0 10 2.5 14t7.5 7l114 71h71z" />
    <glyph glyph-name="cid747" unicode="&#x246e;" 
d="M475 -146q-96 0 -181 36t-148.5 101t-100.5 156t-37 201t37 201t100.5 156t148.5 101t181 36t181 -36t148.5 -101t100.5 -156t37 -201t-37 -201t-100.5 -156t-148.5 -101t-181 -36zM475 -53q76 0 142 28.5t114.5 81t76 126.5t27.5 165q0 90 -27.5 163.5t-75.5 126
t-114 81.5t-143 29t-143 -29t-114 -81.5t-75.5 -126t-27.5 -163.5q0 -91 27.5 -165t76 -126.5t114 -81t142.5 -28.5zM363 608q11 0 14.5 -6t3.5 -14v-478q0 -8 -5.5 -12.5t-11.5 -4.5h-86q-6 0 -11 3.5t-5 13.5v361l-72 -44q-10 -6 -16 -3.5t-6 17.5v75q0 10 2.5 14t7.5 7
l111 71h74zM500 234q11 -23 30.5 -40.5t52.5 -17.5q31 0 50 20t19 52q0 20 -6.5 34t-17 23t-24 13t-26.5 5q-23 1 -36 -2t-33 -10h-79l22 275q2 19 19 19h249q11 0 14 -6t3 -11v-70q0 -12 -5 -15t-11 -3h-159l-9 -82q10 2 19.5 1.5t20.5 -0.5q38 0 70 -10t55 -31t35.5 -53.5
t12.5 -77.5q0 -79 -48.5 -127t-130.5 -48q-122 0 -174 106q-6 14 6 23l57 40q14 8 24 -7z" />
    <glyph glyph-name="cid827" unicode="&#x2474;" 
d="M8 352q0 132 38 237t104 197q8 9 14 3l69 -44q6 -6 4 -11q-1 -3 -2 -5q-57 -78 -86 -173.5t-29 -203.5t28.5 -203.5t86.5 -173.5q1 -2 2 -5q2 -5 -4 -11l-69 -44q-6 -6 -14 3q-66 87 -104 194.5t-38 239.5zM942 352q0 -132 -38 -239.5t-104 -194.5q-8 -9 -14 -3l-69 44
q-6 5 -4 11q1 3 2 5q58 78 86.5 173.5t28.5 203.5t-29 203.5t-86 173.5q-1 2 -2 5q-2 6 4 11l69 44q6 6 14 -3q66 -92 104 -197t38 -237zM548 628q11 0 14.5 -6t3.5 -14v-518q0 -8 -5.5 -12.5t-11.5 -4.5h-94q-6 0 -11 3.5t-5 13.5v407l-99 -50q-10 -6 -16 -3.5t-6 17.5v75
q0 10 2.5 14t7.5 7l141 71h79z" />
    <glyph glyph-name="cid828" unicode="&#x2475;" 
d="M8 352q0 132 38 237t104 197q8 9 14 3l69 -44q6 -6 4 -11q-1 -3 -2 -5q-57 -78 -86 -173.5t-29 -203.5t28.5 -203.5t86.5 -173.5q1 -2 2 -5q2 -5 -4 -11l-69 -44q-6 -6 -14 3q-66 87 -104 194.5t-38 239.5zM942 352q0 -132 -38 -239.5t-104 -194.5q-8 -9 -14 -3l-69 44
q-6 5 -4 11q1 3 2 5q58 78 86.5 173.5t28.5 203.5t-29 203.5t-86 173.5q-1 2 -2 5q-2 6 4 11l69 44q6 6 14 -3q66 -92 104 -197t38 -237zM365 493q-9 -6 -15.5 -3t-9.5 9l-38 61q-9 16 6 24q32 22 73 39.5t85 17.5q46 0 81 -12t58.5 -33.5t35.5 -51.5t12 -65q0 -33 -8 -61
t-23 -54t-37 -52t-50 -55l-64 -59h169q8 0 12 -3t4 -14v-72q0 -11 -3.5 -15t-11.5 -4h-334v82q0 8 2 12.5t7 10.5l120 122q25 25 42.5 44.5t28.5 37t16 34.5t5 38q0 10 -2.5 21t-10 20t-20 15t-33.5 6q-20 0 -47 -13t-50 -27z" />
    <glyph glyph-name="cid829" unicode="&#x2476;" 
d="M8 352q0 132 38 237t104 197q8 9 14 3l69 -44q6 -6 4 -11q-1 -3 -2 -5q-57 -78 -86 -173.5t-29 -203.5t28.5 -203.5t86.5 -173.5q1 -2 2 -5q2 -5 -4 -11l-69 -44q-6 -6 -14 3q-66 87 -104 194.5t-38 239.5zM942 352q0 -132 -38 -239.5t-104 -194.5q-8 -9 -14 -3l-69 44
q-6 5 -4 11q1 3 2 5q58 78 86.5 173.5t28.5 203.5t-29 203.5t-86 173.5q-1 2 -2 5q-2 6 4 11l69 44q6 6 14 -3q66 -92 104 -197t38 -237zM371 237q11 -22 32.5 -41t55.5 -19q35 0 55 19t21 49q0 28 -14.5 44t-36.5 24t-48 10t-48 2v67l94 120h-172q-5 0 -11 3t-6 14v73
q0 17 17 17h312q9 0 13 -6t4 -11v-59q0 -9 -2 -13t-7 -11l-89 -113q54 -16 86.5 -56t32.5 -106q0 -38 -14.5 -70t-41 -55t-62.5 -36t-79 -13q-61 0 -109 28t-76 82q-8 16 5 24l63 40q6 5 13 3.5t12 -10.5z" />
    <glyph glyph-name="cid830" unicode="&#x2477;" 
d="M8 352q0 132 38 237t104 197q8 9 14 3l69 -44q6 -6 4 -11q-1 -3 -2 -5q-57 -78 -86 -173.5t-29 -203.5t28.5 -203.5t86.5 -173.5q1 -2 2 -5q2 -5 -4 -11l-69 -44q-6 -6 -14 3q-66 87 -104 194.5t-38 239.5zM942 352q0 -132 -38 -239.5t-104 -194.5q-8 -9 -14 -3l-69 44
q-6 5 -4 11q1 3 2 5q58 78 86.5 173.5t28.5 203.5t-29 203.5t-86 173.5q-1 2 -2 5q-2 6 4 11l69 44q6 6 14 -3q66 -92 104 -197t38 -237zM499 77q-9 0 -13 3.5t-4 14.5v81h-222q-8 0 -12.5 3.5t-4.5 14.5v49q0 9 4 18l180 357q2 5 6.5 9.5t13.5 4.5h86q13 0 16 -9t0 -18
l-158 -324h91v145q0 18 17 18h86q8 0 12 -5t4 -12v-146h40q8 0 12.5 -3t4.5 -15v-69q0 -11 -4.5 -14.5t-12.5 -3.5h-40v-81q0 -8 -2.5 -13t-13.5 -5h-86z" />
    <glyph glyph-name="cid831" unicode="&#x2478;" 
d="M8 352q0 132 38 237t104 197q8 9 14 3l69 -44q6 -6 4 -11q-1 -3 -2 -5q-57 -78 -86 -173.5t-29 -203.5t28.5 -203.5t86.5 -173.5q1 -2 2 -5q2 -5 -4 -11l-69 -44q-6 -6 -14 3q-66 87 -104 194.5t-38 239.5zM942 352q0 -132 -38 -239.5t-104 -194.5q-8 -9 -14 -3l-69 44
q-6 5 -4 11q1 3 2 5q58 78 86.5 173.5t28.5 203.5t-29 203.5t-86 173.5q-1 2 -2 5q-2 6 4 11l69 44q6 6 14 -3q66 -92 104 -197t38 -237zM377 231q11 -23 32 -40.5t54 -17.5q35 0 54 20t19 52q0 20 -7 34t-18.5 23t-25.5 13t-27 5q-23 1 -38.5 -2t-35.5 -10h-84l22 288
q2 19 19 19h274q11 0 14 -6t3 -11v-73q0 -12 -5 -15t-11 -3h-176l-9 -85q10 2 20.5 1.5t21.5 -0.5q38 0 72.5 -11t60 -33.5t40.5 -56t15 -78.5q0 -39 -14 -72t-39.5 -56.5t-61.5 -36.5t-79 -13q-61 0 -109.5 27.5t-74.5 81.5q-6 14 6 23l63 40q15 8 25 -7z" />
    <glyph glyph-name="cid832" unicode="&#x2479;" 
d="M8 352q0 132 38 237t104 197q8 9 14 3l69 -44q6 -6 4 -11q-1 -3 -2 -5q-57 -78 -86 -173.5t-29 -203.5t28.5 -203.5t86.5 -173.5q1 -2 2 -5q2 -5 -4 -11l-69 -44q-6 -6 -14 3q-66 87 -104 194.5t-38 239.5zM942 352q0 -132 -38 -239.5t-104 -194.5q-8 -9 -14 -3l-69 44
q-6 5 -4 11q1 3 2 5q58 78 86.5 173.5t28.5 203.5t-29 203.5t-86 173.5q-1 2 -2 5q-2 6 4 11l69 44q6 6 14 -3q66 -92 104 -197t38 -237zM475 450h25q33 -2 64 -15t56 -36t40 -55t15 -71q0 -44 -15.5 -79.5t-43 -61t-64.5 -39t-80 -13.5q-44 0 -81.5 14.5t-65 40t-43 60
t-15.5 74.5q0 47 14.5 83t41.5 77l126 192q4 7 7 10t12 3h98q12 0 15.5 -8t-0.5 -18zM390 268q0 -34 21.5 -57t59.5 -23q36 0 58.5 21.5t22.5 59.5q0 37 -22.5 59t-57.5 22q-36 0 -59 -22t-23 -60z" />
    <glyph glyph-name="cid833" unicode="&#x247a;" 
d="M8 352q0 132 38 237t104 197q8 9 14 3l69 -44q6 -6 4 -11q-1 -3 -2 -5q-57 -78 -86 -173.5t-29 -203.5t28.5 -203.5t86.5 -173.5q1 -2 2 -5q2 -5 -4 -11l-69 -44q-6 -6 -14 3q-66 87 -104 194.5t-38 239.5zM942 352q0 -132 -38 -239.5t-104 -194.5q-8 -9 -14 -3l-69 44
q-6 5 -4 11q1 3 2 5q58 78 86.5 173.5t28.5 203.5t-29 203.5t-86 173.5q-1 2 -2 5q-2 6 4 11l69 44q6 6 14 -3q66 -92 104 -197t38 -237zM469 68q-3 -5 -7.5 -8.5t-12.5 -3.5h-93q-14 0 -16.5 9.5t1.5 15.5l183 416h-218q-4 0 -9.5 3t-5.5 15v73q0 5 4 11t12 6h342
q8 0 12 -6t4 -11v-61q0 -8 -1.5 -13t-4.5 -13z" />
    <glyph glyph-name="cid834" unicode="&#x247b;" 
d="M8 352q0 132 38 237t104 197q8 9 14 3l69 -44q6 -6 4 -11q-1 -3 -2 -5q-57 -78 -86 -173.5t-29 -203.5t28.5 -203.5t86.5 -173.5q1 -2 2 -5q2 -5 -4 -11l-69 -44q-6 -6 -14 3q-66 87 -104 194.5t-38 239.5zM942 352q0 -132 -38 -239.5t-104 -194.5q-8 -9 -14 -3l-69 44
q-6 5 -4 11q1 3 2 5q58 78 86.5 173.5t28.5 203.5t-29 203.5t-86 173.5q-1 2 -2 5q-2 6 4 11l69 44q6 6 14 -3q66 -92 104 -197t38 -237zM475 75q-44 0 -80.5 11.5t-63 33t-41.5 53t-15 71.5q0 48 22 77.5t51 49.5q-23 17 -39 43t-16 64q0 34 13 63t37 49.5t57.5 32
t74.5 11.5q40 0 73.5 -11.5t57.5 -32t37.5 -49.5t13.5 -63q0 -40 -15.5 -65t-39.5 -44q29 -19 51 -48t22 -77q0 -40 -15 -71.5t-42 -53t-63.5 -33t-79.5 -11.5zM475 415q26 0 42 17.5t16 43.5t-17 42.5t-41 16.5t-41 -16.5t-17 -42.5t16 -43.5t42 -17.5zM475 176
q31 0 52.5 18.5t21.5 49.5q0 35 -21.5 55.5t-52.5 20.5t-52.5 -20.5t-21.5 -55.5q0 -31 21.5 -49.5t52.5 -18.5z" />
    <glyph glyph-name="cid835" unicode="&#x247c;" 
d="M8 352q0 132 38 237t104 197q8 9 14 3l69 -44q6 -6 4 -11q-1 -3 -2 -5q-57 -78 -86 -173.5t-29 -203.5t28.5 -203.5t86.5 -173.5q1 -2 2 -5q2 -5 -4 -11l-69 -44q-6 -6 -14 3q-66 87 -104 194.5t-38 239.5zM942 352q0 -132 -38 -239.5t-104 -194.5q-8 -9 -14 -3l-69 44
q-6 5 -4 11q1 3 2 5q58 78 86.5 173.5t28.5 203.5t-29 203.5t-86 173.5q-1 2 -2 5q-2 6 4 11l69 44q6 6 14 -3q66 -92 104 -197t38 -237zM484 260h-12.5t-12.5 1q-33 1 -64.5 14.5t-56 36.5t-39.5 55t-15 71q0 43 15.5 79t42.5 61t64 39t81 14t81.5 -14.5t65 -40t43 -60.5
t15.5 -75q0 -47 -14.5 -82.5t-42.5 -77.5l-126 -193q-2 -5 -5.5 -8t-12.5 -3h-98q-14 0 -16.5 9t1.5 17zM568 442q0 34 -21 57.5t-59 23.5q-37 0 -59.5 -21.5t-22.5 -60.5q0 -36 23 -58t58 -22t58 22t23 59z" />
    <glyph glyph-name="cid836" unicode="&#x247d;" 
d="M8 352q0 132 38 237t104 197q8 9 14 3l69 -44q6 -6 4 -11q-1 -3 -2 -5q-57 -78 -86 -173.5t-29 -203.5t28.5 -203.5t86.5 -173.5q1 -2 2 -5q2 -5 -4 -11l-69 -44q-6 -6 -14 3q-66 87 -104 194.5t-38 239.5zM942 352q0 -132 -38 -239.5t-104 -194.5q-8 -9 -14 -3l-69 44
q-6 5 -4 11q1 3 2 5q58 78 86.5 173.5t28.5 203.5t-29 203.5t-86 173.5q-1 2 -2 5q-2 6 4 11l69 44q6 6 14 -3q66 -92 104 -197t38 -237zM780 354q0 -133 -46 -195t-133 -62q-88 0 -133.5 62t-45.5 195q0 134 45.5 196t133.5 62t133.5 -62t45.5 -196zM363 608q11 0 14.5 -6
t3.5 -14v-478q0 -8 -5.5 -12.5t-11.5 -4.5h-86q-6 0 -11 3.5t-5 13.5v361l-69 -44q-10 -6 -16 -3.5t-6 17.5v75q0 10 2.5 14t7.5 7l111 71h71zM662 354q0 26 -2 52.5t-8 48.5t-18 35.5t-33 13.5t-33.5 -13.5t-19 -35.5t-8.5 -48.5t-2 -52.5t2 -52.5t8.5 -48.5t19 -35.5
t33.5 -13.5t33 13.5t18 35.5t8 48.5t2 52.5z" />
    <glyph glyph-name="cid837" unicode="&#x247e;" 
d="M8 352q0 132 38 237t104 197q8 9 14 3l69 -44q6 -6 4 -11q-1 -3 -2 -5q-57 -78 -86 -173.5t-29 -203.5t28.5 -203.5t86.5 -173.5q1 -2 2 -5q2 -5 -4 -11l-69 -44q-6 -6 -14 3q-66 87 -104 194.5t-38 239.5zM942 352q0 -132 -38 -239.5t-104 -194.5q-8 -9 -14 -3l-69 44
q-6 5 -4 11q1 3 2 5q58 78 86.5 173.5t28.5 203.5t-29 203.5t-86 173.5q-1 2 -2 5q-2 6 4 11l69 44q6 6 14 -3q66 -92 104 -197t38 -237zM408 618q11 0 14.5 -6t3.5 -14v-498q0 -8 -5.5 -12.5t-11.5 -4.5h-94q-6 0 -11 3.5t-5 13.5v387l-89 -50q-10 -6 -16 -3.5t-6 17.5v75
q0 10 2.5 14t7.5 7l131 71h79zM698 618q11 0 14.5 -6t3.5 -14v-498q0 -8 -5.5 -12.5t-11.5 -4.5h-94q-6 0 -11 3.5t-5 13.5v387l-99 -50q-10 -6 -16 -3.5t-6 17.5v75q0 10 2.5 14t7.5 7l141 71h79z" />
    <glyph glyph-name="cid838" unicode="&#x247f;" 
d="M8 352q0 132 38 237t104 197q8 9 14 3l69 -44q6 -6 4 -11q-1 -3 -2 -5q-57 -78 -86 -173.5t-29 -203.5t28.5 -203.5t86.5 -173.5q1 -2 2 -5q2 -5 -4 -11l-69 -44q-6 -6 -14 3q-66 87 -104 194.5t-38 239.5zM942 352q0 -132 -38 -239.5t-104 -194.5q-8 -9 -14 -3l-69 44
q-6 5 -4 11q1 3 2 5q58 78 86.5 173.5t28.5 203.5t-29 203.5t-86 173.5q-1 2 -2 5q-2 6 4 11l69 44q6 6 14 -3q66 -92 104 -197t38 -237zM475 486q-9 -6 -15.5 -3t-9.5 9l-38 58q-9 16 6 24q32 22 73 39.5t85 17.5q87 0 130.5 -43t43.5 -114q0 -33 -6 -59t-19.5 -50
t-34.5 -47.5t-51 -50.5l-63 -62h163q8 0 12 -3t4 -14v-69q0 -11 -3.5 -15t-11.5 -4h-319v81q0 8 2 12.5t7 10.5l112 113q25 25 42.5 44t28.5 36.5t16.5 34t5.5 37.5q0 20 -14 38t-49 19q-20 1 -47 -12.5t-50 -27.5zM363 608q11 0 14.5 -6t3.5 -14v-478q0 -8 -5.5 -12.5
t-11.5 -4.5h-86q-6 0 -11 3.5t-5 13.5v361l-69 -44q-10 -6 -16 -3.5t-6 17.5v75q0 10 2.5 14t7.5 7l111 71h71z" />
    <glyph glyph-name="cid839" unicode="&#x2480;" 
d="M8 352q0 132 38 237t104 197q8 9 14 3l69 -44q6 -6 4 -11q-1 -3 -2 -5q-57 -78 -86 -173.5t-29 -203.5t28.5 -203.5t86.5 -173.5q1 -2 2 -5q2 -5 -4 -11l-69 -44q-6 -6 -14 3q-66 87 -104 194.5t-38 239.5zM942 352q0 -132 -38 -239.5t-104 -194.5q-8 -9 -14 -3l-69 44
q-6 5 -4 11q1 3 2 5q58 78 86.5 173.5t28.5 203.5t-29 203.5t-86 173.5q-1 2 -2 5q-2 6 4 11l69 44q6 6 14 -3q66 -92 104 -197t38 -237zM363 608q11 0 14.5 -6t3.5 -14v-478q0 -8 -5.5 -12.5t-11.5 -4.5h-86q-6 0 -11 3.5t-5 13.5v361l-72 -44q-10 -6 -16 -3.5t-6 17.5v75
q0 10 2.5 14t7.5 7l111 71h74zM498 245q6 -11 13.5 -22t17 -20t22 -14.5t28.5 -5.5q35 0 51.5 18t17.5 47q1 27 -11 42.5t-31 23.5t-42.5 10t-45.5 2v64l86 113h-164q-5 0 -11 3t-6 14v70q0 17 17 17h285q9 0 13 -6t4 -11v-56q0 -9 -2 -13t-7 -11l-82 -106q51 -16 83 -54
t32 -103q0 -37 -13 -68t-37 -53.5t-57.5 -35t-75.5 -12.5q-61 0 -104 28t-71 82q-8 16 5 24l60 40q6 5 13 3.5t12 -10.5z" />
    <glyph glyph-name="cid840" unicode="&#x2481;" 
d="M8 352q0 132 38 237t104 197q8 9 14 3l69 -44q6 -6 4 -11q-1 -3 -2 -5q-57 -78 -86 -173.5t-29 -203.5t28.5 -203.5t86.5 -173.5q1 -2 2 -5q2 -5 -4 -11l-69 -44q-6 -6 -14 3q-66 87 -104 194.5t-38 239.5zM942 352q0 -132 -38 -239.5t-104 -194.5q-8 -9 -14 -3l-69 44
q-6 5 -4 11q1 3 2 5q58 78 86.5 173.5t28.5 203.5t-29 203.5t-86 173.5q-1 2 -2 5q-2 6 4 11l69 44q6 6 14 -3q66 -92 104 -197t38 -237zM640 87q-9 0 -13 3.5t-4 14.5v71h-198q-8 0 -12.5 3.5t-4.5 14.5v49q0 9 4 18l155 337q2 5 6.5 9.5t13.5 4.5h75q13 0 16 -9t0 -18
l-135 -308h80v129q0 18 17 18h76q8 0 12 -5t4 -12v-130h35q8 0 12.5 -3t4.5 -15v-65q0 -11 -4.5 -14.5t-12.5 -3.5h-35v-71q0 -8 -2.5 -13t-13.5 -5h-76zM363 608q11 0 14.5 -6t3.5 -14v-478q0 -8 -5.5 -12.5t-11.5 -4.5h-86q-6 0 -11 3.5t-5 13.5v361l-72 -44
q-10 -6 -16 -3.5t-6 17.5v75q0 10 2.5 14t7.5 7l114 71h71z" />
    <glyph glyph-name="cid841" unicode="&#x2482;" 
d="M8 352q0 132 38 237t104 197q8 9 14 3l69 -44q6 -6 4 -11q-1 -3 -2 -5q-57 -78 -86 -173.5t-29 -203.5t28.5 -203.5t86.5 -173.5q1 -2 2 -5q2 -5 -4 -11l-69 -44q-6 -6 -14 3q-66 87 -104 194.5t-38 239.5zM942 352q0 -132 -38 -239.5t-104 -194.5q-8 -9 -14 -3l-69 44
q-6 5 -4 11q1 3 2 5q58 78 86.5 173.5t28.5 203.5t-29 203.5t-86 173.5q-1 2 -2 5q-2 6 4 11l69 44q6 6 14 -3q66 -92 104 -197t38 -237zM363 608q11 0 14.5 -6t3.5 -14v-478q0 -8 -5.5 -12.5t-11.5 -4.5h-86q-6 0 -11 3.5t-5 13.5v361l-72 -44q-10 -6 -16 -3.5t-6 17.5v75
q0 10 2.5 14t7.5 7l111 71h74zM500 234q11 -23 30.5 -40.5t52.5 -17.5q31 0 50 20t19 52q0 20 -6.5 34t-17 23t-24 13t-26.5 5q-23 1 -36 -2t-33 -10h-79l22 275q2 19 19 19h249q11 0 14 -6t3 -11v-70q0 -12 -5 -15t-11 -3h-159l-9 -82q10 2 19.5 1.5t20.5 -0.5q38 0 70 -10
t55 -31t35.5 -53.5t12.5 -77.5q0 -79 -48.5 -127t-130.5 -48q-122 0 -174 106q-6 14 6 23l57 40q14 8 24 -7z" />
    <glyph glyph-name="cid801" unicode="&#x249c;" 
d="M8 352q0 132 38 237t104 197q8 9 14 3l69 -44q6 -6 4 -11q-1 -3 -2 -5q-57 -78 -86 -173.5t-29 -203.5t28.5 -203.5t86.5 -173.5q1 -2 2 -5q2 -5 -4 -11l-69 -44q-6 -6 -14 3q-66 87 -104 194.5t-38 239.5zM942 352q0 -132 -38 -239.5t-104 -194.5q-8 -9 -14 -3l-69 44
q-6 5 -4 11q1 3 2 5q58 78 86.5 173.5t28.5 203.5t-29 203.5t-86 173.5q-1 2 -2 5q-2 6 4 11l69 44q6 6 14 -3q66 -92 104 -197t38 -237zM310 506q34 35 79.5 51t91.5 16q58 0 94 -16t56 -42t27 -58t7 -64v-238q0 -11 -4 -14t-12 -3h-96q-16 0 -16 17v9q-18 -13 -44 -22
t-55 -9q-24 0 -51 6.5t-49.5 22.5t-37.5 41.5t-15 64.5q0 46 21 74t56 43.5t79 21t91 6.5q-1 26 -16.5 38.5t-41.5 12.5q-24 0 -47 -12.5t-41 -27.5q-8 -5 -15.5 -5.5t-12.5 6.5l-49 59q-4 5 -3.5 11.5t4.5 10.5zM532 322q-22 0 -42.5 -1.5t-36.5 -7t-25.5 -16t-9.5 -27.5
t12.5 -22.5t29.5 -5.5q40 0 56 19t16 51v10z" />
    <glyph glyph-name="cid802" unicode="&#x249d;" 
d="M8 352q0 132 38 237t104 197q8 9 14 3l69 -44q6 -6 4 -11q-1 -3 -2 -5q-57 -78 -86 -173.5t-29 -203.5t28.5 -203.5t86.5 -173.5q1 -2 2 -5q2 -5 -4 -11l-69 -44q-6 -6 -14 3q-66 87 -104 194.5t-38 239.5zM942 352q0 -132 -38 -239.5t-104 -194.5q-8 -9 -14 -3l-69 44
q-6 5 -4 11q1 3 2 5q58 78 86.5 173.5t28.5 203.5t-29 203.5t-86 173.5q-1 2 -2 5q-2 6 4 11l69 44q6 6 14 -3q66 -92 104 -197t38 -237zM297 647q0 17 16 17h98q16 0 16 -17v-175q17 12 38 19.5t48 7.5h18q42 0 76 -14t57.5 -37t36 -54.5t12.5 -65.5v-104q0 -41 -15 -72
t-40 -52t-58 -31.5t-70 -10.5q-29 0 -58.5 10.5t-51.5 27.5v-16q0 -11 -4 -14t-12 -3h-91q-16 0 -16 17v567zM506 387q-21 0 -35.5 -7.5t-23.5 -19.5t-13 -26.5t-4 -28.5v-56q0 -35 18.5 -58t55.5 -23q43 0 59.5 22.5t16.5 51.5v66q0 13 -3.5 27t-12.5 25.5t-23 19t-35 7.5z
" />
    <glyph glyph-name="cid803" unicode="&#x249e;" 
d="M8 352q0 132 38 237t104 197q8 9 14 3l69 -44q6 -6 4 -11q-1 -3 -2 -5q-57 -78 -86 -173.5t-29 -203.5t28.5 -203.5t86.5 -173.5q1 -2 2 -5q2 -5 -4 -11l-69 -44q-6 -6 -14 3q-66 87 -104 194.5t-38 239.5zM942 352q0 -132 -38 -239.5t-104 -194.5q-8 -9 -14 -3l-69 44
q-6 5 -4 11q1 3 2 5q58 78 86.5 173.5t28.5 203.5t-29 203.5t-86 173.5q-1 2 -2 5q-2 6 4 11l69 44q6 6 14 -3q66 -92 104 -197t38 -237zM614 531q11 -11 1 -23l-44 -68q-7 -7 -21 0q-14 8 -30.5 13.5t-34.5 5.5q-42 0 -66 -31t-24 -76t23 -75t70 -30q18 0 37 6.5t36 15.5
q13 6 21 -2l44 -67q7 -12 -3 -24q-57 -43 -142 -43q-46 0 -86 14.5t-70 42t-47 68.5t-17 94q0 51 17 92t47 69.5t71 44t89 15.5q38 0 72.5 -12t56.5 -30z" />
    <glyph glyph-name="cid804" unicode="&#x249f;" 
d="M8 352q0 132 38 237t104 197q8 9 14 3l69 -44q6 -6 4 -11q-1 -3 -2 -5q-57 -78 -86 -173.5t-29 -203.5t28.5 -203.5t86.5 -173.5q1 -2 2 -5q2 -5 -4 -11l-69 -44q-6 -6 -14 3q-66 87 -104 194.5t-38 239.5zM942 352q0 -132 -38 -239.5t-104 -194.5q-8 -9 -14 -3l-69 44
q-6 5 -4 11q1 3 2 5q58 78 86.5 173.5t28.5 203.5t-29 203.5t-86 173.5q-1 2 -2 5q-2 6 4 11l69 44q6 6 14 -3q66 -92 104 -197t38 -237zM653 80q0 -17 -16 -17h-91q-8 0 -12 3t-4 14v16q-22 -17 -51.5 -27.5t-58.5 -10.5q-37 0 -70 10.5t-58 31.5t-40 52t-15 72v104
q0 34 12.5 65.5t36 54.5t57.5 37t76 14h18q27 0 48 -7.5t38 -19.5v175q0 17 16 17h98q16 0 16 -17v-567zM444 387q-21 0 -35.5 -7.5t-23 -19t-12.5 -25.5t-4 -27v-66q0 -14 4 -27.5t13 -24t23.5 -16.5t36.5 -6q37 0 55.5 23t18.5 58v56q0 14 -4 28.5t-13 26.5t-23.5 19.5
t-35.5 7.5z" />
    <glyph glyph-name="cid805" unicode="&#x24a0;" 
d="M8 352q0 132 38 237t104 197q8 9 14 3l69 -44q6 -6 4 -11q-1 -3 -2 -5q-57 -78 -86 -173.5t-29 -203.5t28.5 -203.5t86.5 -173.5q1 -2 2 -5q2 -5 -4 -11l-69 -44q-6 -6 -14 3q-66 87 -104 194.5t-38 239.5zM942 352q0 -132 -38 -239.5t-104 -194.5q-8 -9 -14 -3l-69 44
q-6 5 -4 11q1 3 2 5q58 78 86.5 173.5t28.5 203.5t-29 203.5t-86 173.5q-1 2 -2 5q-2 6 4 11l69 44q6 6 14 -3q66 -92 104 -197t38 -237zM404 309q3 -32 27.5 -47.5t62.5 -15.5q29 0 56.5 8.5t45.5 25.5q7 4 13 2.5t10 -5.5l44 -64q5 -5 3.5 -12t-4.5 -10q-32 -29 -74 -44
t-98 -15q-39 0 -78 11.5t-70 35.5t-50 61t-19 89v49q0 44 15 80t42 61.5t63.5 39.5t79.5 14q51 0 89.5 -14.5t64 -41t38 -63t12.5 -80.5v-65h-273zM546 400q-2 28 -17.5 46.5t-52.5 18.5q-34 0 -52 -18t-21 -47h143z" />
    <glyph glyph-name="cid806" unicode="&#x24a1;" 
d="M8 352q0 132 38 237t104 197q8 9 14 3l69 -44q6 -6 4 -11q-1 -3 -2 -5q-57 -78 -86 -173.5t-29 -203.5t28.5 -203.5t86.5 -173.5q1 -2 2 -5q2 -5 -4 -11l-69 -44q-6 -6 -14 3q-66 87 -104 194.5t-38 239.5zM942 352q0 -132 -38 -239.5t-104 -194.5q-8 -9 -14 -3l-69 44
q-6 5 -4 11q1 3 2 5q58 78 86.5 173.5t28.5 203.5t-29 203.5t-86 173.5q-1 2 -2 5q-2 6 4 11l69 44q6 6 14 -3q66 -92 104 -197t38 -237zM605 529q-10 1 -17.5 1.5t-17.5 0.5q-31 0 -43.5 -11.5t-12.5 -34.5v-33h73q10 0 14 -5.5t4 -10.5v-77q0 -11 -6 -14t-11 -3h-74v-280
q0 -8 -5.5 -13t-12.5 -5h-97q-5 0 -11 3t-6 15v280h-56q-4 0 -10.5 3t-6.5 14v77q0 5 3.5 10.5t14.5 5.5h55v31q0 83 42.5 122.5t139.5 39.5q29 0 42 -4q9 -2 12 -6.5t3 -9.5v-79q0 -12 -6 -14.5t-10 -2.5z" />
    <glyph glyph-name="cid807" unicode="&#x24a2;" 
d="M8 352q0 132 38 237t104 197q8 9 14 3l69 -44q6 -6 4 -11q-1 -3 -2 -5q-57 -78 -86 -173.5t-29 -203.5t28.5 -203.5t86.5 -173.5q1 -2 2 -5q2 -5 -4 -11l-69 -44q-6 -6 -14 3q-66 87 -104 194.5t-38 239.5zM942 352q0 -132 -38 -239.5t-104 -194.5q-8 -9 -14 -3l-69 44
q-6 5 -4 11q1 3 2 5q58 78 86.5 173.5t28.5 203.5t-29 203.5t-86 173.5q-1 2 -2 5q-2 6 4 11l69 44q6 6 14 -3q66 -92 104 -197t38 -237zM296 79q-8 5 -10.5 13t4.5 16l34 61q9 11 16.5 9t15.5 -5q26 -14 55.5 -21t52.5 -7h11q73 0 73 57v38q-17 -14 -38.5 -19t-44.5 -5h-20
q-37 0 -70 10.5t-58 31t-40 51.5t-15 72v87q0 35 12.5 66t36 54.5t57.5 37t76 13.5h18q27 0 48.5 -7.5t37.5 -19.5v5q0 11 4.5 14t12.5 3h97q16 0 16 -17v-423q0 -38 -13.5 -68t-38 -51t-58.5 -32t-74 -11h-36q-50 0 -90 13.5t-72 33.5zM469 526q-21 0 -35.5 -7t-23 -18.5
t-12.5 -25t-4 -26.5v-49q0 -14 4 -27.5t13 -24t23.5 -17t36.5 -6.5q37 0 55.5 22.5t18.5 57.5v40q0 14 -4 28.5t-13 26t-23.5 19t-35.5 7.5z" />
    <glyph glyph-name="cid808" unicode="&#x24a3;" 
d="M8 352q0 132 38 237t104 197q8 9 14 3l69 -44q6 -6 4 -11q-1 -3 -2 -5q-57 -78 -86 -173.5t-29 -203.5t28.5 -203.5t86.5 -173.5q1 -2 2 -5q2 -5 -4 -11l-69 -44q-6 -6 -14 3q-66 87 -104 194.5t-38 239.5zM942 352q0 -132 -38 -239.5t-104 -194.5q-8 -9 -14 -3l-69 44
q-6 5 -4 11q1 3 2 5q58 78 86.5 173.5t28.5 203.5t-29 203.5t-86 173.5q-1 2 -2 5q-2 6 4 11l69 44q6 6 14 -3q66 -92 104 -197t38 -237zM563 279q0 16 -1.5 32t-6.5 28.5t-16.5 20.5t-30.5 8q-43 0 -62.5 -27t-19.5 -64v-216q0 -11 -4 -14t-12 -3h-98q-16 0 -16 17v567
q0 17 16 17h100q16 0 16 -17v-188q17 15 44 27.5t62 12.5q42 0 72.5 -14.5t50 -38.5t28.5 -54.5t9 -62.5v-249q0 -11 -4 -14t-12 -3h-98q-17 0 -17 17v218z" />
    <glyph glyph-name="cid809" unicode="&#x24a4;" 
d="M8 352q0 132 38 237t104 197q8 9 14 3l69 -44q6 -6 4 -11q-1 -3 -2 -5q-57 -78 -86 -173.5t-29 -203.5t28.5 -203.5t86.5 -173.5q1 -2 2 -5q2 -5 -4 -11l-69 -44q-6 -6 -14 3q-66 87 -104 194.5t-38 239.5zM942 352q0 -132 -38 -239.5t-104 -194.5q-8 -9 -14 -3l-69 44
q-6 5 -4 11q1 3 2 5q58 78 86.5 173.5t28.5 203.5t-29 203.5t-86 173.5q-1 2 -2 5q-2 6 4 11l69 44q6 6 14 -3q66 -92 104 -197t38 -237zM399 517v149h152v-94q0 -8 -0.5 -15t-3.5 -14q-14 -15 -28 -20.5t-25 -5.5h-95zM543 49q0 -10 -6.5 -13.5t-12.5 -3.5h-99q-5 0 -11 3
t-6 14v413h135v-413z" />
    <glyph glyph-name="cid810" unicode="&#x24a5;" 
d="M8 352q0 132 38 237t104 197q8 9 14 3l69 -44q6 -6 4 -11q-1 -3 -2 -5q-57 -78 -86 -173.5t-29 -203.5t28.5 -203.5t86.5 -173.5q1 -2 2 -5q2 -5 -4 -11l-69 -44q-6 -6 -14 3q-66 87 -104 194.5t-38 239.5zM942 352q0 -132 -38 -239.5t-104 -194.5q-8 -9 -14 -3l-69 44
q-6 5 -4 11q1 3 2 5q58 78 86.5 173.5t28.5 203.5t-29 203.5t-86 173.5q-1 2 -2 5q-2 6 4 11l69 44q6 6 14 -3q66 -92 104 -197t38 -237zM426 530v149h152v-94q0 -8 -1 -15t-6 -15q-11 -14 -25.5 -19.5t-24.5 -5.5h-95zM568 475v-326q0 -36 -8 -63.5t-27 -45.5t-51 -27.5
t-80 -9.5q-8 0 -16.5 0.5t-17.5 2.5q-16 4 -16 22v72q0 8 6 13.5t14 5.5q5 -1 12 -1h9q25 0 33 8.5t8 31.5v317h134z" />
    <glyph glyph-name="cid811" unicode="&#x24a6;" 
d="M8 352q0 132 38 237t104 197q8 9 14 3l69 -44q6 -6 4 -11q-1 -3 -2 -5q-57 -78 -86 -173.5t-29 -203.5t28.5 -203.5t86.5 -173.5q1 -2 2 -5q2 -5 -4 -11l-69 -44q-6 -6 -14 3q-66 87 -104 194.5t-38 239.5zM942 352q0 -132 -38 -239.5t-104 -194.5q-8 -9 -14 -3l-69 44
q-6 5 -4 11q1 3 2 5q58 78 86.5 173.5t28.5 203.5t-29 203.5t-86 173.5q-1 2 -2 5q-2 6 4 11l69 44q6 6 14 -3q66 -92 104 -197t38 -237zM426 350l123 135q3 5 6.5 8t12.5 3h103q14 0 17.5 -8.5t-1.5 -18.5l-144 -160l149 -219q1 -5 -1 -15.5t-15 -10.5h-105q-9 0 -13.5 3.5
t-6.5 10.5l-91 139l-34 -38v-98q0 -11 -4 -14t-12 -3h-98q-16 0 -16 17v567q0 17 16 17h98q16 0 16 -17v-298z" />
    <glyph glyph-name="cid812" unicode="&#x24a7;" 
d="M8 352q0 132 38 237t104 197q8 9 14 3l69 -44q6 -6 4 -11q-1 -3 -2 -5q-57 -78 -86 -173.5t-29 -203.5t28.5 -203.5t86.5 -173.5q1 -2 2 -5q2 -5 -4 -11l-69 -44q-6 -6 -14 3q-66 87 -104 194.5t-38 239.5zM942 352q0 -132 -38 -239.5t-104 -194.5q-8 -9 -14 -3l-69 44
q-6 5 -4 11q1 3 2 5q58 78 86.5 173.5t28.5 203.5t-29 203.5t-86 173.5q-1 2 -2 5q-2 6 4 11l69 44q6 6 14 -3q66 -92 104 -197t38 -237zM542 72q0 -8 -5.5 -13t-12.5 -5h-101q-4 0 -10 3t-6 15v565q0 11 6 14.5t10 3.5h101q7 0 12.5 -4.5t5.5 -13.5v-565z" />
    <glyph glyph-name="cid813" unicode="&#x24a8;" 
d="M8 352q0 132 38 237t104 197q8 9 14 3l69 -44q6 -6 4 -11q-1 -3 -2 -5q-57 -78 -86 -173.5t-29 -203.5t28.5 -203.5t86.5 -173.5q1 -2 2 -5q2 -5 -4 -11l-69 -44q-6 -6 -14 3q-66 87 -104 194.5t-38 239.5zM942 352q0 -132 -38 -239.5t-104 -194.5q-8 -9 -14 -3l-69 44
q-6 5 -4 11q1 3 2 5q58 78 86.5 173.5t28.5 203.5t-29 203.5t-86 173.5q-1 2 -2 5q-2 6 4 11l69 44q6 6 14 -3q66 -92 104 -197t38 -237zM767 156q0 -17 -16 -17h-94q-16 0 -16 17v234q0 42 -10.5 57t-36.5 15q-27 0 -37.5 -13.5t-10.5 -51.5v-241q0 -17 -17 -17h-92
q-17 0 -17 17v234q0 42 -10 57t-37 15t-37.5 -13.5t-10.5 -51.5v-241q0 -17 -17 -17h-93q-5 0 -10.5 4.5t-5.5 12.5v397q0 17 16 17h88q16 0 16 -17v-8q32 30 91 30q41 0 66.5 -13t42.5 -39q15 25 44 38.5t67 13.5q76 0 106.5 -41t30.5 -120v-258z" />
    <glyph glyph-name="cid814" unicode="&#x24a9;" 
d="M8 352q0 132 38 237t104 197q8 9 14 3l69 -44q6 -6 4 -11q-1 -3 -2 -5q-57 -78 -86 -173.5t-29 -203.5t28.5 -203.5t86.5 -173.5q1 -2 2 -5q2 -5 -4 -11l-69 -44q-6 -6 -14 3q-66 87 -104 194.5t-38 239.5zM942 352q0 -132 -38 -239.5t-104 -194.5q-8 -9 -14 -3l-69 44
q-6 5 -4 11q1 3 2 5q58 78 86.5 173.5t28.5 203.5t-29 203.5t-86 173.5q-1 2 -2 5q-2 6 4 11l69 44q6 6 14 -3q66 -92 104 -197t38 -237zM304 139q-16 0 -16 17v397q0 17 16 17h98q16 0 16 -17v-21q22 19 50 31t66 11q27 0 53.5 -8.5t50.5 -25.5q30 -24 37 -55t7 -60v-269
q0 -5 -4 -11t-13 -6h-100q-5 0 -10.5 4t-5.5 13v248q0 19 -5.5 30.5t-14.5 17.5t-20 8t-21 2q-32 0 -49.5 -26.5t-17.5 -62.5v-217q0 -17 -16 -17h-101z" />
    <glyph glyph-name="cid815" unicode="&#x24aa;" 
d="M8 352q0 132 38 237t104 197q8 9 14 3l69 -44q6 -6 4 -11q-1 -3 -2 -5q-57 -78 -86 -173.5t-29 -203.5t28.5 -203.5t86.5 -173.5q1 -2 2 -5q2 -5 -4 -11l-69 -44q-6 -6 -14 3q-66 87 -104 194.5t-38 239.5zM942 352q0 -132 -38 -239.5t-104 -194.5q-8 -9 -14 -3l-69 44
q-6 5 -4 11q1 3 2 5q58 78 86.5 173.5t28.5 203.5t-29 203.5t-86 173.5q-1 2 -2 5q-2 6 4 11l69 44q6 6 14 -3q66 -92 104 -197t38 -237zM679 320q0 -84 -53.5 -135.5t-151.5 -51.5q-47 0 -85 13.5t-64 37.5t-40 58t-14 76v68q0 42 14 76t40 59t63.5 38.5t85.5 13.5
q99 0 152 -50t53 -135v-68zM545 376q0 39 -15.5 61.5t-55.5 22.5q-37 0 -53.5 -24t-16.5 -62v-42q0 -39 16 -62.5t54 -23.5q40 0 55.5 22.5t15.5 63.5v44z" />
    <glyph glyph-name="cid816" unicode="&#x24ab;" 
d="M8 352q0 132 38 237t104 197q8 9 14 3l69 -44q6 -6 4 -11q-1 -3 -2 -5q-57 -78 -86 -173.5t-29 -203.5t28.5 -203.5t86.5 -173.5q1 -2 2 -5q2 -5 -4 -11l-69 -44q-6 -6 -14 3q-66 87 -104 194.5t-38 239.5zM942 352q0 -132 -38 -239.5t-104 -194.5q-8 -9 -14 -3l-69 44
q-6 5 -4 11q1 3 2 5q58 78 86.5 173.5t28.5 203.5t-29 203.5t-86 173.5q-1 2 -2 5q-2 6 4 11l69 44q6 6 14 -3q66 -92 104 -197t38 -237zM297 596q0 17 16 17h91q16 0 16 -17v-16q22 17 51.5 27.5t58.5 10.5q37 0 70 -10.5t58 -31.5t40 -52t15 -72v-103q0 -35 -12.5 -66
t-36 -54.5t-57.5 -37.5t-76 -14h-18q-27 0 -48 8t-38 21v-179q0 -11 -4.5 -14t-11.5 -3h-98q-16 0 -16 17v569zM506 290q21 0 35 7.5t23 18.5t12.5 25t3.5 27v66q0 14 -3.5 27.5t-12.5 24t-23.5 17t-36.5 6.5q-37 0 -55.5 -23t-18.5 -58v-56q0 -14 4 -28.5t13 -26.5
t23.5 -19.5t35.5 -7.5z" />
    <glyph glyph-name="cid817" unicode="&#x24ac;" 
d="M8 352q0 132 38 237t104 197q8 9 14 3l69 -44q6 -6 4 -11q-1 -3 -2 -5q-57 -78 -86 -173.5t-29 -203.5t28.5 -203.5t86.5 -173.5q1 -2 2 -5q2 -5 -4 -11l-69 -44q-6 -6 -14 3q-66 87 -104 194.5t-38 239.5zM942 352q0 -132 -38 -239.5t-104 -194.5q-8 -9 -14 -3l-69 44
q-6 5 -4 11q1 3 2 5q58 78 86.5 173.5t28.5 203.5t-29 203.5t-86 173.5q-1 2 -2 5q-2 6 4 11l69 44q6 6 14 -3q66 -92 104 -197t38 -237zM663 37q0 -17 -16 -17h-98q-7 0 -11.5 3t-4.5 14v178q-17 -12 -38.5 -20t-47.5 -8h-18q-42 0 -76 14t-57.5 37.5t-36 54.5t-12.5 66
v103q0 41 15 72t40 52t58 31.5t70 10.5q29 0 58.5 -10.5t51.5 -27.5v16q0 17 16 17h91q16 0 16 -17v-569zM454 300q21 0 35.5 7.5t23.5 19.5t13 26.5t4 28.5v56q0 35 -18.5 58t-55.5 23q-22 0 -36.5 -6.5t-23.5 -17t-13 -24t-4 -27.5v-66q0 -13 4 -27t12.5 -25t23 -18.5
t35.5 -7.5z" />
    <glyph glyph-name="cid818" unicode="&#x24ad;" 
d="M8 352q0 132 38 237t104 197q8 9 14 3l69 -44q6 -6 4 -11q-1 -3 -2 -5q-57 -78 -86 -173.5t-29 -203.5t28.5 -203.5t86.5 -173.5q1 -2 2 -5q2 -5 -4 -11l-69 -44q-6 -6 -14 3q-66 87 -104 194.5t-38 239.5zM942 352q0 -132 -38 -239.5t-104 -194.5q-8 -9 -14 -3l-69 44
q-6 5 -4 11q1 3 2 5q58 78 86.5 173.5t28.5 203.5t-29 203.5t-86 173.5q-1 2 -2 5q-2 6 4 11l69 44q6 6 14 -3q66 -92 104 -197t38 -237zM612 435q-15 3 -21 3q-30 0 -50 -10t-31 -24t-15.5 -30.5t-4.5 -28.5v-226h-134v414q0 17 17 17h95q17 0 17 -17l1 -33q20 23 50 39
t62 16h13q22 -7 22 -25v-76q0 -22 -21 -19z" />
    <glyph glyph-name="cid819" unicode="&#x24ae;" 
d="M8 352q0 132 38 237t104 197q8 9 14 3l69 -44q6 -6 4 -11q-1 -3 -2 -5q-57 -78 -86 -173.5t-29 -203.5t28.5 -203.5t86.5 -173.5q1 -2 2 -5q2 -5 -4 -11l-69 -44q-6 -6 -14 3q-66 87 -104 194.5t-38 239.5zM942 352q0 -132 -38 -239.5t-104 -194.5q-8 -9 -14 -3l-69 44
q-6 5 -4 11q1 3 2 5q58 78 86.5 173.5t28.5 203.5t-29 203.5t-86 173.5q-1 2 -2 5q-2 6 4 11l69 44q6 6 14 -3q66 -92 104 -197t38 -237zM655 263q-2 -34 -17.5 -58.5t-40 -40.5t-56 -23.5t-66.5 -7.5q-50 0 -91.5 16.5t-83.5 46.5q-5 5 -6 11.5t3 11.5l38 59q12 15 26 8
q22 -17 52.5 -30.5t57.5 -15.5q23 -1 39 4t18 22q2 12 -6 22t-24 14q-20 3 -41 7t-55 13q-47 13 -71.5 45t-20.5 83q3 30 16 53.5t34 39t48.5 23.5t59.5 8q50 0 90 -13.5t81 -42.5q7 -10 1 -22l-40 -55q-9 -12 -24 -5q-20 15 -45.5 24t-52.5 9q-20 0 -28.5 -7t-9.5 -18
q-1 -10 8 -17.5t24 -10.5q12 -2 21.5 -4t19.5 -4.5t21.5 -5t25.5 -6.5q45 -11 72 -43.5t23 -89.5z" />
    <glyph glyph-name="cid820" unicode="&#x24af;" 
d="M8 352q0 132 38 237t104 197q8 9 14 3l69 -44q6 -6 4 -11q-1 -3 -2 -5q-57 -78 -86 -173.5t-29 -203.5t28.5 -203.5t86.5 -173.5q1 -2 2 -5q2 -5 -4 -11l-69 -44q-6 -6 -14 3q-66 87 -104 194.5t-38 239.5zM942 352q0 -132 -38 -239.5t-104 -194.5q-8 -9 -14 -3l-69 44
q-6 5 -4 11q1 3 2 5q58 78 86.5 173.5t28.5 203.5t-29 203.5t-86 173.5q-1 2 -2 5q-2 6 4 11l69 44q6 6 14 -3q66 -92 104 -197t38 -237zM507 518h81q9 0 13 -6t4 -11v-77q0 -5 -4 -11t-13 -6h-81v-168q0 -28 9.5 -36t33.5 -8h37q8 0 12 -6.5t4 -11.5v-77q0 -5 -2.5 -11
t-13.5 -6h-61q-81 0 -116 34.5t-35 117.5v172h-32q-11 0 -14.5 6t-3.5 11v77q0 5 3.5 11t14.5 6h32v82q0 17 16 17h99q5 0 11 -4.5t6 -12.5v-82z" />
    <glyph glyph-name="cid821" unicode="&#x24b0;" 
d="M8 352q0 132 38 237t104 197q8 9 14 3l69 -44q6 -6 4 -11q-1 -3 -2 -5q-57 -78 -86 -173.5t-29 -203.5t28.5 -203.5t86.5 -173.5q1 -2 2 -5q2 -5 -4 -11l-69 -44q-6 -6 -14 3q-66 87 -104 194.5t-38 239.5zM942 352q0 -132 -38 -239.5t-104 -194.5q-8 -9 -14 -3l-69 44
q-6 5 -4 11q1 3 2 5q58 78 86.5 173.5t28.5 203.5t-29 203.5t-86 173.5q-1 2 -2 5q-2 6 4 11l69 44q6 6 14 -3q66 -92 104 -197t38 -237zM655 555q17 0 17 -17v-397q0 -17 -17 -17h-97q-17 0 -17 17v21q-22 -19 -50 -31t-65 -12q-69 2 -107.5 39.5t-40.5 110.5v269q0 5 4 11
t12 6h101q5 0 10.5 -4t5.5 -13v-248q0 -19 5.5 -30.5t14 -17.5t19 -8t21.5 -2q32 0 50 26.5t18 61.5v218q0 17 16 17h100z" />
    <glyph glyph-name="cid822" unicode="&#x24b1;" 
d="M8 352q0 132 38 237t104 197q8 9 14 3l69 -44q6 -6 4 -11q-1 -3 -2 -5q-57 -78 -86 -173.5t-29 -203.5t28.5 -203.5t86.5 -173.5q1 -2 2 -5q2 -5 -4 -11l-69 -44q-6 -6 -14 3q-66 87 -104 194.5t-38 239.5zM942 352q0 -132 -38 -239.5t-104 -194.5q-8 -9 -14 -3l-69 44
q-6 5 -4 11q1 3 2 5q58 78 86.5 173.5t28.5 203.5t-29 203.5t-86 173.5q-1 2 -2 5q-2 6 4 11l69 44q6 6 14 -3q66 -92 104 -197t38 -237zM425 118q-5 0 -9.5 1.5t-6.5 6.5l-147 405q-1 5 1.5 11t16.5 6h91q14 0 20 -14l84 -253l81 253q6 14 22 14h90q14 0 17 -6t2 -11
l-147 -405q-4 -8 -17 -8h-98z" />
    <glyph glyph-name="cid823" unicode="&#x24b2;" 
d="M8 352q0 132 38 237t104 197q8 9 14 3l69 -44q6 -6 4 -11q-1 -3 -2 -5q-57 -78 -86 -173.5t-29 -203.5t28.5 -203.5t86.5 -173.5q1 -2 2 -5q2 -5 -4 -11l-69 -44q-6 -6 -14 3q-66 87 -104 194.5t-38 239.5zM942 352q0 -132 -38 -239.5t-104 -194.5q-8 -9 -14 -3l-69 44
q-6 5 -4 11q1 3 2 5q58 78 86.5 173.5t28.5 203.5t-29 203.5t-86 173.5q-1 2 -2 5q-2 6 4 11l69 44q6 6 14 -3q66 -92 104 -197t38 -237zM666 112q-2 -7 -5.5 -10.5t-12.5 -3.5h-87q-8 0 -12 3.5t-7 11.5l-69 236l-69 -237q-2 -7 -5 -10.5t-12 -3.5h-87q-15 0 -18 13
l-117 394q-2 6 0.5 14.5t16.5 8.5h81q9 0 13.5 -4.5t9.5 -14.5l62 -240l67 245q3 14 18 14h82q8 0 12 -3.5t8 -11.5l65 -242l62 239q4 10 8.5 14t14.5 4h81q14 0 16.5 -8.5t0.5 -14.5z" />
    <glyph glyph-name="cid824" unicode="&#x24b3;" 
d="M8 352q0 132 38 237t104 197q8 9 14 3l69 -44q6 -6 4 -11q-1 -3 -2 -5q-57 -78 -86 -173.5t-29 -203.5t28.5 -203.5t86.5 -173.5q1 -2 2 -5q2 -5 -4 -11l-69 -44q-6 -6 -14 3q-66 87 -104 194.5t-38 239.5zM942 352q0 -132 -38 -239.5t-104 -194.5q-8 -9 -14 -3l-69 44
q-6 5 -4 11q1 3 2 5q58 78 86.5 173.5t28.5 203.5t-29 203.5t-86 173.5q-1 2 -2 5q-2 6 4 11l69 44q6 6 14 -3q66 -92 104 -197t38 -237zM475 264l-76 -119q-4 -7 -8 -9.5t-13 -2.5h-98q-14 0 -16.5 9.5t1.5 16.5l140 202l-124 178q-2 6 0.5 15t17.5 9h100q9 0 13 -3t6 -9
l57 -89l56 89q4 12 20 12h100q14 0 16.5 -9t0.5 -15l-124 -178l141 -202q4 -7 1.5 -16.5t-17.5 -9.5h-98q-9 0 -13 2.5t-7 9.5z" />
    <glyph glyph-name="cid825" unicode="&#x24b4;" 
d="M8 352q0 132 38 237t104 197q8 9 14 3l69 -44q6 -6 4 -11q-1 -3 -2 -5q-57 -78 -86 -173.5t-29 -203.5t28.5 -203.5t86.5 -173.5q1 -2 2 -5q2 -5 -4 -11l-69 -44q-6 -6 -14 3q-66 87 -104 194.5t-38 239.5zM942 352q0 -132 -38 -239.5t-104 -194.5q-8 -9 -14 -3l-69 44
q-6 5 -4 11q1 3 2 5q58 78 86.5 173.5t28.5 203.5t-29 203.5t-86 173.5q-1 2 -2 5q-2 6 4 11l69 44q6 6 14 -3q66 -92 104 -197t38 -237zM432 213l-157 384q-3 6 -0.5 15t15.5 9h92q10 0 14 -3t7 -10l87 -228l74 227q3 8 7.5 11t15.5 3h91q15 0 17.5 -9t-0.5 -14l-209 -566
q-3 -7 -7 -10t-15 -3h-80q-14 0 -17 7.5t-1 13.5z" />
    <glyph glyph-name="cid826" unicode="&#x24b5;" 
d="M8 352q0 132 38 237t104 197q8 9 14 3l69 -44q6 -6 4 -11q-1 -3 -2 -5q-57 -78 -86 -173.5t-29 -203.5t28.5 -203.5t86.5 -173.5q1 -2 2 -5q2 -5 -4 -11l-69 -44q-6 -6 -14 3q-66 87 -104 194.5t-38 239.5zM942 352q0 -132 -38 -239.5t-104 -194.5q-8 -9 -14 -3l-69 44
q-6 5 -4 11q1 3 2 5q58 78 86.5 173.5t28.5 203.5t-29 203.5t-86 173.5q-1 2 -2 5q-2 6 4 11l69 44q6 6 14 -3q66 -92 104 -197t38 -237zM479 248h138q5 0 10.5 -3.5t5.5 -14.5v-75q0 -5 -4 -11t-12 -6h-282q-19 0 -19 19v45q0 15 6 24l154 233h-143q-5 0 -11 3t-6 15v74
q0 5 4 11t13 6h282q18 0 18 -19v-59q0 -12 -7 -24z" />
    <glyph glyph-name="cid707" unicode="&#x24d0;" 
d="M475 -146q-96 0 -181 36t-148.5 101t-100.5 156t-37 201t37 201t100.5 156t148.5 101t181 36t181 -36t148.5 -101t100.5 -156t37 -201t-37 -201t-100.5 -156t-148.5 -101t-181 -36zM475 -53q76 0 142 28.5t114.5 81t76 126.5t27.5 165q0 90 -27.5 163.5t-75.5 126
t-114 81.5t-143 29t-143 -29t-114 -81.5t-75.5 -126t-27.5 -163.5q0 -91 27.5 -165t76 -126.5t114 -81t142.5 -28.5zM310 506q34 35 79.5 51t91.5 16q58 0 94 -16t56 -42t27 -58t7 -64v-238q0 -11 -4 -14t-12 -3h-96q-16 0 -16 17v9q-18 -13 -44 -22t-55 -9q-24 0 -51 6.5
t-49.5 22.5t-37.5 41.5t-15 64.5q0 46 21 74t56 43.5t79 21t91 6.5q-1 26 -16.5 38.5t-41.5 12.5q-24 0 -47 -12.5t-41 -27.5q-8 -5 -15.5 -5.5t-12.5 6.5l-49 59q-4 5 -3.5 11.5t4.5 10.5zM532 322q-22 0 -42.5 -1.5t-36.5 -7t-25.5 -16t-9.5 -27.5t12.5 -22.5t29.5 -5.5
q40 0 56 19t16 51v10z" />
    <glyph glyph-name="cid708" unicode="&#x24d1;" 
d="M475 -146q-96 0 -181 36t-148.5 101t-100.5 156t-37 201t37 201t100.5 156t148.5 101t181 36t181 -36t148.5 -101t100.5 -156t37 -201t-37 -201t-100.5 -156t-148.5 -101t-181 -36zM475 -53q76 0 142 28.5t114.5 81t76 126.5t27.5 165q0 90 -27.5 163.5t-75.5 126
t-114 81.5t-143 29t-143 -29t-114 -81.5t-75.5 -126t-27.5 -163.5q0 -91 27.5 -165t76 -126.5t114 -81t142.5 -28.5zM297 647q0 17 16 17h98q16 0 16 -17v-175q17 12 38 19.5t48 7.5h18q42 0 76 -14t57.5 -37t36 -54.5t12.5 -65.5v-104q0 -41 -15 -72t-40 -52t-58 -31.5
t-70 -10.5q-29 0 -58.5 10.5t-51.5 27.5v-16q0 -11 -4 -14t-12 -3h-91q-16 0 -16 17v567zM506 387q-21 0 -35.5 -7.5t-23.5 -19.5t-13 -26.5t-4 -28.5v-56q0 -35 18.5 -58t55.5 -23q43 0 59.5 22.5t16.5 51.5v66q0 13 -3.5 27t-12.5 25.5t-23 19t-35 7.5z" />
    <glyph glyph-name="cid709" unicode="&#x24d2;" 
d="M475 -146q-96 0 -181 36t-148.5 101t-100.5 156t-37 201t37 201t100.5 156t148.5 101t181 36t181 -36t148.5 -101t100.5 -156t37 -201t-37 -201t-100.5 -156t-148.5 -101t-181 -36zM475 -53q76 0 142 28.5t114.5 81t76 126.5t27.5 165q0 90 -27.5 163.5t-75.5 126
t-114 81.5t-143 29t-143 -29t-114 -81.5t-75.5 -126t-27.5 -163.5q0 -91 27.5 -165t76 -126.5t114 -81t142.5 -28.5zM614 531q11 -11 1 -23l-44 -68q-7 -7 -21 0q-14 8 -30.5 13.5t-34.5 5.5q-42 0 -66 -31t-24 -76t23 -75t70 -30q18 0 37 6.5t36 15.5q13 6 21 -2l44 -67
q7 -12 -3 -24q-57 -43 -142 -43q-46 0 -86 14.5t-70 42t-47 68.5t-17 94q0 51 17 92t47 69.5t71 44t89 15.5q38 0 72.5 -12t56.5 -30z" />
    <glyph glyph-name="cid710" unicode="&#x24d3;" 
d="M475 -146q-96 0 -181 36t-148.5 101t-100.5 156t-37 201t37 201t100.5 156t148.5 101t181 36t181 -36t148.5 -101t100.5 -156t37 -201t-37 -201t-100.5 -156t-148.5 -101t-181 -36zM475 -53q76 0 142 28.5t114.5 81t76 126.5t27.5 165q0 90 -27.5 163.5t-75.5 126
t-114 81.5t-143 29t-143 -29t-114 -81.5t-75.5 -126t-27.5 -163.5q0 -91 27.5 -165t76 -126.5t114 -81t142.5 -28.5zM653 80q0 -17 -16 -17h-91q-8 0 -12 3t-4 14v16q-22 -17 -51.5 -27.5t-58.5 -10.5q-37 0 -70 10.5t-58 31.5t-40 52t-15 72v104q0 34 12.5 65.5t36 54.5
t57.5 37t76 14h18q27 0 48 -7.5t38 -19.5v175q0 17 16 17h98q16 0 16 -17v-567zM444 387q-21 0 -35.5 -7.5t-23 -19t-12.5 -25.5t-4 -27v-66q0 -14 4 -27.5t13 -24t23.5 -16.5t36.5 -6q37 0 55.5 23t18.5 58v56q0 14 -4 28.5t-13 26.5t-23.5 19.5t-35.5 7.5z" />
    <glyph glyph-name="cid711" unicode="&#x24d4;" 
d="M475 -146q-96 0 -181 36t-148.5 101t-100.5 156t-37 201t37 201t100.5 156t148.5 101t181 36t181 -36t148.5 -101t100.5 -156t37 -201t-37 -201t-100.5 -156t-148.5 -101t-181 -36zM475 -53q76 0 142 28.5t114.5 81t76 126.5t27.5 165q0 90 -27.5 163.5t-75.5 126
t-114 81.5t-143 29t-143 -29t-114 -81.5t-75.5 -126t-27.5 -163.5q0 -91 27.5 -165t76 -126.5t114 -81t142.5 -28.5zM404 309q3 -32 27.5 -47.5t62.5 -15.5q29 0 56.5 8.5t45.5 25.5q7 4 13 2.5t10 -5.5l44 -64q5 -5 3.5 -12t-4.5 -10q-32 -29 -74 -44t-98 -15
q-39 0 -78 11.5t-70 35.5t-50 61t-19 89v49q0 44 15 80t42 61.5t63.5 39.5t79.5 14q51 0 89.5 -14.5t64 -41t38 -63t12.5 -80.5v-65h-273zM546 400q-2 28 -17.5 46.5t-52.5 18.5q-34 0 -52 -18t-21 -47h143z" />
    <glyph glyph-name="cid712" unicode="&#x24d5;" 
d="M475 -146q-96 0 -181 36t-148.5 101t-100.5 156t-37 201t37 201t100.5 156t148.5 101t181 36t181 -36t148.5 -101t100.5 -156t37 -201t-37 -201t-100.5 -156t-148.5 -101t-181 -36zM475 -53q76 0 142 28.5t114.5 81t76 126.5t27.5 165q0 90 -27.5 163.5t-75.5 126
t-114 81.5t-143 29t-143 -29t-114 -81.5t-75.5 -126t-27.5 -163.5q0 -91 27.5 -165t76 -126.5t114 -81t142.5 -28.5zM605 529q-10 1 -17.5 1.5t-17.5 0.5q-31 0 -43.5 -11.5t-12.5 -34.5v-33h73q10 0 14 -5.5t4 -10.5v-77q0 -11 -6 -14t-11 -3h-74v-280q0 -8 -5.5 -13
t-12.5 -5h-97q-5 0 -11 3t-6 15v280h-56q-4 0 -10.5 3t-6.5 14v77q0 5 3.5 10.5t14.5 5.5h55v31q0 83 42.5 122.5t139.5 39.5q29 0 42 -4q9 -2 12 -6.5t3 -9.5v-79q0 -12 -6 -14.5t-10 -2.5z" />
    <glyph glyph-name="cid713" unicode="&#x24d6;" 
d="M475 -146q-96 0 -181 36t-148.5 101t-100.5 156t-37 201t37 201t100.5 156t148.5 101t181 36t181 -36t148.5 -101t100.5 -156t37 -201t-37 -201t-100.5 -156t-148.5 -101t-181 -36zM475 -53q76 0 142 28.5t114.5 81t76 126.5t27.5 165q0 90 -27.5 163.5t-75.5 126
t-114 81.5t-143 29t-143 -29t-114 -81.5t-75.5 -126t-27.5 -163.5q0 -91 27.5 -165t76 -126.5t114 -81t142.5 -28.5zM296 79q-8 5 -10.5 13t4.5 16l34 61q9 11 16.5 9t15.5 -5q26 -14 55.5 -21t52.5 -7h11q73 0 73 57v38q-17 -14 -38.5 -19t-44.5 -5h-20q-37 0 -70 10.5
t-58 31t-40 51.5t-15 72v87q0 35 12.5 66t36 54.5t57.5 37t76 13.5h18q27 0 48.5 -7.5t37.5 -19.5v5q0 11 4.5 14t12.5 3h97q16 0 16 -17v-423q0 -38 -13.5 -68t-38 -51t-58.5 -32t-74 -11h-36q-50 0 -90 13.5t-72 33.5zM469 526q-21 0 -35.5 -7t-23 -18.5t-12.5 -25
t-4 -26.5v-49q0 -14 4 -27.5t13 -24t23.5 -17t36.5 -6.5q37 0 55.5 22.5t18.5 57.5v40q0 14 -4 28.5t-13 26t-23.5 19t-35.5 7.5z" />
    <glyph glyph-name="cid714" unicode="&#x24d7;" 
d="M475 -146q-96 0 -181 36t-148.5 101t-100.5 156t-37 201t37 201t100.5 156t148.5 101t181 36t181 -36t148.5 -101t100.5 -156t37 -201t-37 -201t-100.5 -156t-148.5 -101t-181 -36zM475 -53q76 0 142 28.5t114.5 81t76 126.5t27.5 165q0 90 -27.5 163.5t-75.5 126
t-114 81.5t-143 29t-143 -29t-114 -81.5t-75.5 -126t-27.5 -163.5q0 -91 27.5 -165t76 -126.5t114 -81t142.5 -28.5zM563 279q0 16 -1.5 32t-6.5 28.5t-16.5 20.5t-30.5 8q-43 0 -62.5 -27t-19.5 -64v-216q0 -11 -4 -14t-12 -3h-98q-16 0 -16 17v567q0 17 16 17h100
q16 0 16 -17v-188q17 15 44 27.5t62 12.5q42 0 72.5 -14.5t50 -38.5t28.5 -54.5t9 -62.5v-249q0 -11 -4 -14t-12 -3h-98q-17 0 -17 17v218z" />
    <glyph glyph-name="cid715" unicode="&#x24d8;" 
d="M475 -146q-96 0 -181 36t-148.5 101t-100.5 156t-37 201t37 201t100.5 156t148.5 101t181 36t181 -36t148.5 -101t100.5 -156t37 -201t-37 -201t-100.5 -156t-148.5 -101t-181 -36zM475 -53q76 0 142 28.5t114.5 81t76 126.5t27.5 165q0 90 -27.5 163.5t-75.5 126
t-114 81.5t-143 29t-143 -29t-114 -81.5t-75.5 -126t-27.5 -163.5q0 -91 27.5 -165t76 -126.5t114 -81t142.5 -28.5zM399 517v149h152v-94q0 -8 -0.5 -15t-3.5 -14q-14 -15 -28 -20.5t-25 -5.5h-95zM543 49q0 -10 -6.5 -13.5t-12.5 -3.5h-99q-5 0 -11 3t-6 14v413h135v-413z
" />
    <glyph glyph-name="cid716" unicode="&#x24d9;" 
d="M475 -146q-96 0 -181 36t-148.5 101t-100.5 156t-37 201t37 201t100.5 156t148.5 101t181 36t181 -36t148.5 -101t100.5 -156t37 -201t-37 -201t-100.5 -156t-148.5 -101t-181 -36zM475 -53q76 0 142 28.5t114.5 81t76 126.5t27.5 165q0 90 -27.5 163.5t-75.5 126
t-114 81.5t-143 29t-143 -29t-114 -81.5t-75.5 -126t-27.5 -163.5q0 -91 27.5 -165t76 -126.5t114 -81t142.5 -28.5zM426 530v149h152v-94q0 -8 -1 -15t-6 -15q-11 -14 -25.5 -19.5t-24.5 -5.5h-95zM568 475v-326q0 -36 -8 -63.5t-27 -45.5t-51 -27.5t-80 -9.5
q-8 0 -16.5 0.5t-17.5 2.5q-16 4 -16 22v72q0 8 6 13.5t14 5.5q5 -1 12 -1h9q25 0 33 8.5t8 31.5v317h134z" />
    <glyph glyph-name="cid717" unicode="&#x24da;" 
d="M475 -146q-96 0 -181 36t-148.5 101t-100.5 156t-37 201t37 201t100.5 156t148.5 101t181 36t181 -36t148.5 -101t100.5 -156t37 -201t-37 -201t-100.5 -156t-148.5 -101t-181 -36zM475 -53q76 0 142 28.5t114.5 81t76 126.5t27.5 165q0 90 -27.5 163.5t-75.5 126
t-114 81.5t-143 29t-143 -29t-114 -81.5t-75.5 -126t-27.5 -163.5q0 -91 27.5 -165t76 -126.5t114 -81t142.5 -28.5zM426 350l123 135q3 5 6.5 8t12.5 3h103q14 0 17.5 -8.5t-1.5 -18.5l-144 -160l149 -219q1 -5 -1 -15.5t-15 -10.5h-105q-9 0 -13.5 3.5t-6.5 10.5l-91 139
l-34 -38v-98q0 -11 -4 -14t-12 -3h-98q-16 0 -16 17v567q0 17 16 17h98q16 0 16 -17v-298z" />
    <glyph glyph-name="cid718" unicode="&#x24db;" 
d="M475 -146q-96 0 -181 36t-148.5 101t-100.5 156t-37 201t37 201t100.5 156t148.5 101t181 36t181 -36t148.5 -101t100.5 -156t37 -201t-37 -201t-100.5 -156t-148.5 -101t-181 -36zM475 -53q76 0 142 28.5t114.5 81t76 126.5t27.5 165q0 90 -27.5 163.5t-75.5 126
t-114 81.5t-143 29t-143 -29t-114 -81.5t-75.5 -126t-27.5 -163.5q0 -91 27.5 -165t76 -126.5t114 -81t142.5 -28.5zM542 72q0 -8 -5.5 -13t-12.5 -5h-101q-4 0 -10 3t-6 15v565q0 11 6 14.5t10 3.5h101q7 0 12.5 -4.5t5.5 -13.5v-565z" />
    <glyph glyph-name="cid719" unicode="&#x24dc;" 
d="M475 -146q-96 0 -181 36t-148.5 101t-100.5 156t-37 201t37 201t100.5 156t148.5 101t181 36t181 -36t148.5 -101t100.5 -156t37 -201t-37 -201t-100.5 -156t-148.5 -101t-181 -36zM475 -53q76 0 142 28.5t114.5 81t76 126.5t27.5 165q0 90 -27.5 163.5t-75.5 126
t-114 81.5t-143 29t-143 -29t-114 -81.5t-75.5 -126t-27.5 -163.5q0 -91 27.5 -165t76 -126.5t114 -81t142.5 -28.5zM767 156q0 -17 -16 -17h-94q-16 0 -16 17v234q0 42 -10.5 57t-36.5 15q-27 0 -37.5 -13.5t-10.5 -51.5v-241q0 -17 -17 -17h-92q-17 0 -17 17v234
q0 42 -10 57t-37 15t-37.5 -13.5t-10.5 -51.5v-241q0 -17 -17 -17h-93q-5 0 -10.5 4.5t-5.5 12.5v397q0 17 16 17h88q16 0 16 -17v-8q32 30 91 30q41 0 66.5 -13t42.5 -39q15 25 44 38.5t67 13.5q76 0 106.5 -41t30.5 -120v-258z" />
    <glyph glyph-name="cid720" unicode="&#x24dd;" 
d="M475 -146q-96 0 -181 36t-148.5 101t-100.5 156t-37 201t37 201t100.5 156t148.5 101t181 36t181 -36t148.5 -101t100.5 -156t37 -201t-37 -201t-100.5 -156t-148.5 -101t-181 -36zM475 -53q76 0 142 28.5t114.5 81t76 126.5t27.5 165q0 90 -27.5 163.5t-75.5 126
t-114 81.5t-143 29t-143 -29t-114 -81.5t-75.5 -126t-27.5 -163.5q0 -91 27.5 -165t76 -126.5t114 -81t142.5 -28.5zM304 139q-16 0 -16 17v397q0 17 16 17h98q16 0 16 -17v-21q22 19 50 31t66 11q27 0 53.5 -8.5t50.5 -25.5q30 -24 37 -55t7 -60v-269q0 -5 -4 -11t-13 -6
h-100q-5 0 -10.5 4t-5.5 13v248q0 19 -5.5 30.5t-14.5 17.5t-20 8t-21 2q-32 0 -49.5 -26.5t-17.5 -62.5v-217q0 -17 -16 -17h-101z" />
    <glyph glyph-name="cid721" unicode="&#x24de;" 
d="M475 -146q-96 0 -181 36t-148.5 101t-100.5 156t-37 201t37 201t100.5 156t148.5 101t181 36t181 -36t148.5 -101t100.5 -156t37 -201t-37 -201t-100.5 -156t-148.5 -101t-181 -36zM475 -53q76 0 142 28.5t114.5 81t76 126.5t27.5 165q0 90 -27.5 163.5t-75.5 126
t-114 81.5t-143 29t-143 -29t-114 -81.5t-75.5 -126t-27.5 -163.5q0 -91 27.5 -165t76 -126.5t114 -81t142.5 -28.5zM679 320q0 -84 -53.5 -135.5t-151.5 -51.5q-47 0 -85 13.5t-64 37.5t-40 58t-14 76v68q0 42 14 76t40 59t63.5 38.5t85.5 13.5q99 0 152 -50t53 -135v-68z
M545 376q0 39 -15.5 61.5t-55.5 22.5q-37 0 -53.5 -24t-16.5 -62v-42q0 -39 16 -62.5t54 -23.5q40 0 55.5 22.5t15.5 63.5v44z" />
    <glyph glyph-name="cid722" unicode="&#x24df;" 
d="M475 -146q-96 0 -181 36t-148.5 101t-100.5 156t-37 201t37 201t100.5 156t148.5 101t181 36t181 -36t148.5 -101t100.5 -156t37 -201t-37 -201t-100.5 -156t-148.5 -101t-181 -36zM475 -53q76 0 142 28.5t114.5 81t76 126.5t27.5 165q0 90 -27.5 163.5t-75.5 126
t-114 81.5t-143 29t-143 -29t-114 -81.5t-75.5 -126t-27.5 -163.5q0 -91 27.5 -165t76 -126.5t114 -81t142.5 -28.5zM297 596q0 17 16 17h91q16 0 16 -17v-16q22 17 51.5 27.5t58.5 10.5q37 0 70 -10.5t58 -31.5t40 -52t15 -72v-103q0 -35 -12.5 -66t-36 -54.5t-57.5 -37.5
t-76 -14h-18q-27 0 -48 8t-38 21v-179q0 -11 -4.5 -14t-11.5 -3h-98q-16 0 -16 17v569zM506 290q21 0 35 7.5t23 18.5t12.5 25t3.5 27v66q0 14 -3.5 27.5t-12.5 24t-23.5 17t-36.5 6.5q-37 0 -55.5 -23t-18.5 -58v-56q0 -14 4 -28.5t13 -26.5t23.5 -19.5t35.5 -7.5z" />
    <glyph glyph-name="cid723" unicode="&#x24e0;" 
d="M475 -146q-96 0 -181 36t-148.5 101t-100.5 156t-37 201t37 201t100.5 156t148.5 101t181 36t181 -36t148.5 -101t100.5 -156t37 -201t-37 -201t-100.5 -156t-148.5 -101t-181 -36zM475 -53q76 0 142 28.5t114.5 81t76 126.5t27.5 165q0 90 -27.5 163.5t-75.5 126
t-114 81.5t-143 29t-143 -29t-114 -81.5t-75.5 -126t-27.5 -163.5q0 -91 27.5 -165t76 -126.5t114 -81t142.5 -28.5zM663 37q0 -17 -16 -17h-98q-7 0 -11.5 3t-4.5 14v178q-17 -12 -38.5 -20t-47.5 -8h-18q-42 0 -76 14t-57.5 37.5t-36 54.5t-12.5 66v103q0 41 15 72t40 52
t58 31.5t70 10.5q29 0 58.5 -10.5t51.5 -27.5v16q0 17 16 17h91q16 0 16 -17v-569zM454 300q21 0 35.5 7.5t23.5 19.5t13 26.5t4 28.5v56q0 35 -18.5 58t-55.5 23q-22 0 -36.5 -6.5t-23.5 -17t-13 -24t-4 -27.5v-66q0 -13 4 -27t12.5 -25t23 -18.5t35.5 -7.5z" />
    <glyph glyph-name="cid724" unicode="&#x24e1;" 
d="M475 -146q-96 0 -181 36t-148.5 101t-100.5 156t-37 201t37 201t100.5 156t148.5 101t181 36t181 -36t148.5 -101t100.5 -156t37 -201t-37 -201t-100.5 -156t-148.5 -101t-181 -36zM475 -53q76 0 142 28.5t114.5 81t76 126.5t27.5 165q0 90 -27.5 163.5t-75.5 126
t-114 81.5t-143 29t-143 -29t-114 -81.5t-75.5 -126t-27.5 -163.5q0 -91 27.5 -165t76 -126.5t114 -81t142.5 -28.5zM612 435q-15 3 -21 3q-30 0 -50 -10t-31 -24t-15.5 -30.5t-4.5 -28.5v-226h-134v414q0 17 17 17h95q17 0 17 -17l1 -33q20 23 50 39t62 16h13q22 -7 22 -25
v-76q0 -22 -21 -19z" />
    <glyph glyph-name="cid725" unicode="&#x24e2;" 
d="M475 -146q-96 0 -181 36t-148.5 101t-100.5 156t-37 201t37 201t100.5 156t148.5 101t181 36t181 -36t148.5 -101t100.5 -156t37 -201t-37 -201t-100.5 -156t-148.5 -101t-181 -36zM475 -53q76 0 142 28.5t114.5 81t76 126.5t27.5 165q0 90 -27.5 163.5t-75.5 126
t-114 81.5t-143 29t-143 -29t-114 -81.5t-75.5 -126t-27.5 -163.5q0 -91 27.5 -165t76 -126.5t114 -81t142.5 -28.5zM655 263q-2 -34 -17.5 -58.5t-40 -40.5t-56 -23.5t-66.5 -7.5q-50 0 -91.5 16.5t-83.5 46.5q-5 5 -6 11.5t3 11.5l38 59q12 15 26 8q22 -17 52.5 -30.5
t57.5 -15.5q23 -1 39 4t18 22q2 12 -6 22t-24 14q-20 3 -41 7t-55 13q-47 13 -71.5 45t-20.5 83q3 30 16 53.5t34 39t48.5 23.5t59.5 8q50 0 90 -13.5t81 -42.5q7 -10 1 -22l-40 -55q-9 -12 -24 -5q-20 15 -45.5 24t-52.5 9q-20 0 -28.5 -7t-9.5 -18q-1 -10 8 -17.5
t24 -10.5q12 -2 21.5 -4t19.5 -4.5t21.5 -5t25.5 -6.5q45 -11 72 -43.5t23 -89.5z" />
    <glyph glyph-name="cid726" unicode="&#x24e3;" 
d="M475 -146q-96 0 -181 36t-148.5 101t-100.5 156t-37 201t37 201t100.5 156t148.5 101t181 36t181 -36t148.5 -101t100.5 -156t37 -201t-37 -201t-100.5 -156t-148.5 -101t-181 -36zM475 -53q76 0 142 28.5t114.5 81t76 126.5t27.5 165q0 90 -27.5 163.5t-75.5 126
t-114 81.5t-143 29t-143 -29t-114 -81.5t-75.5 -126t-27.5 -163.5q0 -91 27.5 -165t76 -126.5t114 -81t142.5 -28.5zM507 518h81q9 0 13 -6t4 -11v-77q0 -5 -4 -11t-13 -6h-81v-168q0 -28 9.5 -36t33.5 -8h37q8 0 12 -6.5t4 -11.5v-77q0 -5 -2.5 -11t-13.5 -6h-61
q-81 0 -116 34.5t-35 117.5v172h-32q-11 0 -14.5 6t-3.5 11v77q0 5 3.5 11t14.5 6h32v82q0 17 16 17h99q5 0 11 -4.5t6 -12.5v-82z" />
    </font>
</defs>
</svg>
